<svg width="34" height="34" viewBox="0 0 34 34" fill="none" xmlns="http://www.w3.org/2000/svg">
<g clip-path="url(#clip0)">
<path d="M33.1326 17.3583C33.1326 21.7317 31.3952 25.926 28.3027 29.0185C25.2102 32.111 21.0159 33.8484 16.6425 33.8484C12.269 33.8484 8.07468 32.111 4.98219 29.0185C1.88969 25.926 0.152344 21.7317 0.152344 17.3583C0.152344 12.9848 1.88969 8.7905 4.98219 5.69801C8.07468 2.60551 12.269 0.868164 16.6425 0.868164C21.0159 0.868164 25.2102 2.60551 28.3027 5.69801C31.3952 8.7905 33.1326 12.9848 33.1326 17.3583V17.3583ZM11.1884 10.4448C10.9948 10.2513 10.7323 10.1425 10.4587 10.1425C10.185 10.1425 9.9225 10.2513 9.72898 10.4448C9.53545 10.6383 9.42673 10.9008 9.42673 11.1745C9.42673 11.4482 9.53545 11.7106 9.72898 11.9042L15.1851 17.3583L9.72898 22.8124C9.63315 22.9082 9.55714 23.022 9.50528 23.1472C9.45342 23.2724 9.42673 23.4066 9.42673 23.5421C9.42673 23.6776 9.45342 23.8118 9.50528 23.937C9.55714 24.0622 9.63315 24.1759 9.72898 24.2718C9.9225 24.4653 10.185 24.574 10.4587 24.574C10.5942 24.574 10.7284 24.5473 10.8536 24.4954C10.9788 24.4436 11.0925 24.3676 11.1884 24.2718L16.6425 18.8156L22.0966 24.2718C22.1924 24.3676 22.3061 24.4436 22.4313 24.4954C22.5565 24.5473 22.6907 24.574 22.8262 24.574C22.9618 24.574 23.0959 24.5473 23.2211 24.4954C23.3463 24.4436 23.4601 24.3676 23.5559 24.2718C23.6518 24.1759 23.7278 24.0622 23.7796 23.937C23.8315 23.8118 23.8582 23.6776 23.8582 23.5421C23.8582 23.4066 23.8315 23.2724 23.7796 23.1472C23.7278 23.022 23.6518 22.9082 23.5559 22.8124L18.0998 17.3583L23.5559 11.9042C23.6518 11.8083 23.7278 11.6946 23.7796 11.5694C23.8315 11.4442 23.8582 11.31 23.8582 11.1745C23.8582 11.039 23.8315 10.9048 23.7796 10.7796C23.7278 10.6544 23.6518 10.5406 23.5559 10.4448C23.4601 10.349 23.3463 10.273 23.2211 10.2211C23.0959 10.1692 22.9618 10.1425 22.8262 10.1425C22.6907 10.1425 22.5565 10.1692 22.4313 10.2211C22.3061 10.273 22.1924 10.349 22.0966 10.4448L16.6425 15.901L11.1884 10.4448Z" fill="#2C4761"/>
</g>
<defs>
<clipPath id="clip0">
<rect width="32.9802" height="32.9802" fill="white" transform="translate(0.152344 0.868164)"/>
</clipPath>
</defs>
</svg>
