<svg width="779" height="712" viewBox="0 0 779 712" fill="none" xmlns="http://www.w3.org/2000/svg">
<g filter="url(#filter0_d)">
<rect x="77.6428" y="72" width="635.79" height="557.431" rx="13" fill="#05202F"/>
<rect x="77.6428" y="72" width="635.79" height="557.431" rx="13" fill="url(#paint0_radial)"/>
</g>
<g opacity="0.42">
<line x1="140.083" y1="171.284" x2="690.993" y2="171.284" stroke="#8D8D8D" stroke-opacity="0.65" stroke-width="0.5"/>
<line x1="140.083" y1="223.771" x2="690.993" y2="223.771" stroke="#8D8D8D" stroke-opacity="0.65" stroke-width="0.5"/>
<line x1="140.083" y1="276.259" x2="690.993" y2="276.259" stroke="#8D8D8D" stroke-opacity="0.65" stroke-width="0.5"/>
<line x1="140.083" y1="328.746" x2="690.993" y2="328.746" stroke="#8D8D8D" stroke-opacity="0.65" stroke-width="0.5"/>
<line x1="140.083" y1="381.233" x2="690.993" y2="381.233" stroke="#8D8D8D" stroke-opacity="0.65" stroke-width="0.5"/>
<line x1="140.083" y1="433.721" x2="690.993" y2="433.721" stroke="#8D8D8D" stroke-opacity="0.65" stroke-width="0.5"/>
<line x1="140.083" y1="485.958" x2="690.993" y2="485.958" stroke="#959595"/>
</g>
<path d="M174.47 467H191.53V486H174.47V467Z" fill="#CDDD6D" fill-opacity="0.33"/>
<path d="M180.383 470.298H185.617V486H180.383V470.298Z" fill="#CDDD6D"/>
<path d="M238.184 291H255.244V486H238.184V291Z" fill="#D01240" fill-opacity="0.33"/>
<path d="M244.097 298.517H249.331V486H244.097V298.517Z" fill="url(#paint1_linear)"/>
<path d="M365.613 198H382.673V486H365.613V198Z" fill="url(#paint2_linear)"/>
<path d="M371.526 206.487H376.76V485.999H371.526V206.487Z" fill="url(#paint3_linear)"/>
<path d="M620.47 224H637.53V486H620.47V224Z" fill="url(#paint4_linear)" fill-opacity="0.3"/>
<path d="M626.383 234.099H631.617V486H626.383V234.099Z" fill="url(#paint5_linear)"/>
<path d="M429.327 329H446.387V486H429.327V329Z" fill="url(#paint6_linear)"/>
<path d="M435.24 335.773H440.474V486H435.24V335.773Z" fill="url(#paint7_linear)"/>
<path d="M493.041 434H510.101V486H493.041V434Z" fill="url(#paint8_linear)" fill-opacity="0.51"/>
<path d="M498.954 438.473H504.188V486H498.954V438.473Z" fill="url(#paint9_linear)"/>
<path d="M556.756 466H573.816V486H556.756V466Z" fill="url(#paint10_linear)" fill-opacity="0.3"/>
<path d="M562.668 470.586H567.903V486H562.668V470.586Z" fill="url(#paint11_linear)"/>
<path d="M301.899 447H318.959V486H301.899V447Z" fill="#2C28DB" fill-opacity="0.24"/>
<path d="M307.811 452.936H313.046V485.999H307.811V452.936Z" fill="url(#paint12_linear)"/>
<path d="M109.507 169.092C109.568 168.303 109.871 167.683 110.417 167.233C110.972 166.773 111.687 166.544 112.562 166.544C113.143 166.544 113.641 166.648 114.057 166.856C114.473 167.064 114.785 167.35 114.993 167.714C115.21 168.069 115.318 168.472 115.318 168.923C115.318 169.469 115.158 169.941 114.837 170.34C114.516 170.738 114.061 170.985 113.472 171.081V171.146C114.087 171.267 114.577 171.536 114.941 171.952C115.305 172.359 115.487 172.896 115.487 173.564C115.487 174.309 115.236 174.92 114.733 175.397C114.239 175.865 113.52 176.099 112.575 176.099C111.674 176.099 110.933 175.865 110.352 175.397C109.771 174.92 109.438 174.248 109.351 173.382H110.235C110.313 173.962 110.556 174.435 110.963 174.799C111.37 175.154 111.908 175.332 112.575 175.332C113.234 175.332 113.736 175.158 114.083 174.812C114.438 174.465 114.616 174.023 114.616 173.486C114.616 172.168 113.667 171.51 111.769 171.51H111.483V170.743H111.782C113.55 170.743 114.434 170.166 114.434 169.014C114.434 168.511 114.269 168.108 113.94 167.805C113.611 167.493 113.143 167.337 112.536 167.337C111.947 167.337 111.457 167.493 111.067 167.805C110.686 168.108 110.46 168.537 110.391 169.092H109.507ZM116.891 171.289C116.891 169.798 117.12 168.641 117.58 167.818C118.039 166.994 118.862 166.583 120.05 166.583C121.237 166.583 122.06 166.994 122.52 167.818C122.979 168.641 123.209 169.798 123.209 171.289C123.209 172.805 122.979 173.98 122.52 174.812C122.06 175.644 121.237 176.06 120.05 176.06C118.854 176.06 118.026 175.644 117.567 174.812C117.116 173.98 116.891 172.805 116.891 171.289ZM122.312 171.289C122.312 170.483 122.255 169.802 122.143 169.248C122.03 168.693 121.809 168.247 121.48 167.909C121.15 167.571 120.674 167.402 120.05 167.402C119.426 167.402 118.949 167.571 118.62 167.909C118.29 168.247 118.069 168.693 117.957 169.248C117.844 169.802 117.788 170.483 117.788 171.289C117.788 172.121 117.844 172.818 117.957 173.382C118.069 173.936 118.29 174.383 118.62 174.721C118.949 175.059 119.426 175.228 120.05 175.228C120.674 175.228 121.15 175.059 121.48 174.721C121.809 174.383 122.03 173.936 122.143 173.382C122.255 172.818 122.312 172.121 122.312 171.289ZM124.355 168.663C124.355 168.108 124.524 167.662 124.862 167.324C125.209 166.977 125.647 166.804 126.175 166.804C126.713 166.804 127.15 166.977 127.488 167.324C127.835 167.662 128.008 168.108 128.008 168.663C128.008 169.226 127.835 169.681 127.488 170.028C127.15 170.366 126.713 170.535 126.175 170.535C125.647 170.535 125.209 170.366 124.862 170.028C124.524 169.681 124.355 169.226 124.355 168.663ZM131.635 166.934L126.305 176.034H125.382L130.725 166.934H131.635ZM126.175 167.389C125.846 167.389 125.582 167.501 125.382 167.727C125.192 167.943 125.096 168.255 125.096 168.663C125.096 169.07 125.192 169.386 125.382 169.612C125.582 169.837 125.846 169.95 126.175 169.95C126.505 169.95 126.769 169.837 126.968 169.612C127.168 169.386 127.267 169.07 127.267 168.663C127.267 168.264 127.168 167.952 126.968 167.727C126.769 167.501 126.505 167.389 126.175 167.389ZM129.035 174.305C129.035 173.741 129.204 173.291 129.542 172.953C129.889 172.606 130.327 172.433 130.855 172.433C131.384 172.433 131.817 172.606 132.155 172.953C132.502 173.291 132.675 173.741 132.675 174.305C132.675 174.868 132.502 175.323 132.155 175.67C131.817 176.008 131.384 176.177 130.855 176.177C130.327 176.177 129.889 176.008 129.542 175.67C129.204 175.323 129.035 174.868 129.035 174.305ZM130.855 173.031C130.526 173.031 130.262 173.143 130.062 173.369C129.863 173.594 129.763 173.906 129.763 174.305C129.763 174.703 129.863 175.015 130.062 175.241C130.262 175.466 130.526 175.579 130.855 175.579C131.185 175.579 131.445 175.47 131.635 175.254C131.835 175.028 131.934 174.712 131.934 174.305C131.934 173.897 131.835 173.585 131.635 173.369C131.445 173.143 131.185 173.031 130.855 173.031Z" fill="white"/>
<path d="M109.516 227.806C111.111 226.61 112.342 225.54 113.208 224.595C114.084 223.642 114.521 222.71 114.521 221.8C114.521 221.202 114.37 220.725 114.066 220.37C113.772 220.006 113.286 219.824 112.61 219.824C111.952 219.824 111.44 220.032 111.076 220.448C110.721 220.855 110.522 221.401 110.478 222.086H109.594C109.646 221.124 109.941 220.379 110.478 219.85C111.024 219.313 111.735 219.044 112.61 219.044C113.451 219.044 114.131 219.282 114.651 219.759C115.171 220.227 115.431 220.894 115.431 221.761C115.431 222.81 114.994 223.828 114.118 224.816C113.252 225.795 112.181 226.753 110.907 227.689H115.717V228.456H109.516V227.806ZM122.754 219.98H117.996V223.308C118.212 223.005 118.529 222.758 118.945 222.567C119.361 222.368 119.811 222.268 120.297 222.268C121.007 222.268 121.588 222.415 122.039 222.71C122.489 222.996 122.814 223.373 123.014 223.841C123.213 224.3 123.313 224.794 123.313 225.323C123.313 225.93 123.196 226.48 122.962 226.974C122.736 227.459 122.385 227.845 121.909 228.131C121.441 228.417 120.856 228.56 120.154 228.56C119.261 228.56 118.537 228.33 117.983 227.871C117.428 227.403 117.09 226.775 116.969 225.986H117.866C117.978 226.558 118.238 227 118.646 227.312C119.053 227.624 119.556 227.78 120.154 227.78C120.908 227.78 121.475 227.559 121.857 227.117C122.247 226.666 122.442 226.073 122.442 225.336C122.442 224.617 122.247 224.058 121.857 223.659C121.467 223.252 120.908 223.048 120.18 223.048C119.677 223.048 119.235 223.165 118.854 223.399C118.472 223.633 118.191 223.949 118.009 224.348H117.151V219.187H122.754V219.98ZM124.355 221.15C124.355 220.595 124.524 220.149 124.862 219.811C125.209 219.464 125.647 219.291 126.175 219.291C126.713 219.291 127.15 219.464 127.488 219.811C127.835 220.149 128.008 220.595 128.008 221.15C128.008 221.713 127.835 222.168 127.488 222.515C127.15 222.853 126.713 223.022 126.175 223.022C125.647 223.022 125.209 222.853 124.862 222.515C124.524 222.168 124.355 221.713 124.355 221.15ZM131.635 219.421L126.305 228.521H125.382L130.725 219.421H131.635ZM126.175 219.876C125.846 219.876 125.582 219.989 125.382 220.214C125.192 220.431 125.096 220.743 125.096 221.15C125.096 221.557 125.192 221.874 125.382 222.099C125.582 222.324 125.846 222.437 126.175 222.437C126.505 222.437 126.769 222.324 126.968 222.099C127.168 221.874 127.267 221.557 127.267 221.15C127.267 220.751 127.168 220.439 126.968 220.214C126.769 219.989 126.505 219.876 126.175 219.876ZM129.035 226.792C129.035 226.229 129.204 225.778 129.542 225.44C129.889 225.093 130.327 224.92 130.855 224.92C131.384 224.92 131.817 225.093 132.155 225.44C132.502 225.778 132.675 226.229 132.675 226.792C132.675 227.355 132.502 227.81 132.155 228.157C131.817 228.495 131.384 228.664 130.855 228.664C130.327 228.664 129.889 228.495 129.542 228.157C129.204 227.81 129.035 227.355 129.035 226.792ZM130.855 225.518C130.526 225.518 130.262 225.631 130.062 225.856C129.863 226.081 129.763 226.393 129.763 226.792C129.763 227.191 129.863 227.503 130.062 227.728C130.262 227.953 130.526 228.066 130.855 228.066C131.185 228.066 131.445 227.958 131.635 227.741C131.835 227.516 131.934 227.199 131.934 226.792C131.934 226.385 131.835 226.073 131.635 225.856C131.445 225.631 131.185 225.518 130.855 225.518Z" fill="white"/>
<path d="M109.529 280.293C111.124 279.097 112.354 278.026 113.221 277.082C114.096 276.128 114.534 275.197 114.534 274.287C114.534 273.689 114.382 273.212 114.079 272.857C113.784 272.493 113.299 272.311 112.623 272.311C111.964 272.311 111.453 272.519 111.089 272.935C110.734 273.342 110.534 273.888 110.491 274.573H109.607C109.659 273.611 109.954 272.865 110.491 272.337C111.037 271.799 111.748 271.531 112.623 271.531C113.464 271.531 114.144 271.769 114.664 272.246C115.184 272.714 115.444 273.381 115.444 274.248C115.444 275.296 115.006 276.315 114.131 277.303C113.264 278.282 112.194 279.24 110.92 280.176H115.73V280.943H109.529V280.293ZM116.891 276.263C116.891 274.772 117.12 273.615 117.58 272.792C118.039 271.968 118.862 271.557 120.05 271.557C121.237 271.557 122.06 271.968 122.52 272.792C122.979 273.615 123.209 274.772 123.209 276.263C123.209 277.779 122.979 278.954 122.52 279.786C122.06 280.618 121.237 281.034 120.05 281.034C118.854 281.034 118.026 280.618 117.567 279.786C117.116 278.954 116.891 277.779 116.891 276.263ZM122.312 276.263C122.312 275.457 122.255 274.776 122.143 274.222C122.03 273.667 121.809 273.221 121.48 272.883C121.15 272.545 120.674 272.376 120.05 272.376C119.426 272.376 118.949 272.545 118.62 272.883C118.29 273.221 118.069 273.667 117.957 274.222C117.844 274.776 117.788 275.457 117.788 276.263C117.788 277.095 117.844 277.792 117.957 278.356C118.069 278.91 118.29 279.357 118.62 279.695C118.949 280.033 119.426 280.202 120.05 280.202C120.674 280.202 121.15 280.033 121.48 279.695C121.809 279.357 122.03 278.91 122.143 278.356C122.255 277.792 122.312 277.095 122.312 276.263ZM124.355 273.637C124.355 273.082 124.524 272.636 124.862 272.298C125.209 271.951 125.647 271.778 126.175 271.778C126.713 271.778 127.15 271.951 127.488 272.298C127.835 272.636 128.008 273.082 128.008 273.637C128.008 274.2 127.835 274.655 127.488 275.002C127.15 275.34 126.713 275.509 126.175 275.509C125.647 275.509 125.209 275.34 124.862 275.002C124.524 274.655 124.355 274.2 124.355 273.637ZM131.635 271.908L126.305 281.008H125.382L130.725 271.908H131.635ZM126.175 272.363C125.846 272.363 125.582 272.475 125.382 272.701C125.192 272.917 125.096 273.229 125.096 273.637C125.096 274.044 125.192 274.36 125.382 274.586C125.582 274.811 125.846 274.924 126.175 274.924C126.505 274.924 126.769 274.811 126.968 274.586C127.168 274.36 127.267 274.044 127.267 273.637C127.267 273.238 127.168 272.926 126.968 272.701C126.769 272.475 126.505 272.363 126.175 272.363ZM129.035 279.279C129.035 278.715 129.204 278.265 129.542 277.927C129.889 277.58 130.327 277.407 130.855 277.407C131.384 277.407 131.817 277.58 132.155 277.927C132.502 278.265 132.675 278.715 132.675 279.279C132.675 279.842 132.502 280.297 132.155 280.644C131.817 280.982 131.384 281.151 130.855 281.151C130.327 281.151 129.889 280.982 129.542 280.644C129.204 280.297 129.035 279.842 129.035 279.279ZM130.855 278.005C130.526 278.005 130.262 278.117 130.062 278.343C129.863 278.568 129.763 278.88 129.763 279.279C129.763 279.677 129.863 279.989 130.062 280.215C130.262 280.44 130.526 280.553 130.855 280.553C131.185 280.553 131.445 280.444 131.635 280.228C131.835 280.002 131.934 279.686 131.934 279.279C131.934 278.871 131.835 278.559 131.635 278.343C131.445 278.117 131.185 278.005 130.855 278.005Z" fill="white"/>
<path d="M112.9 324.993V324.174H115.11V333.495H114.187V324.993H112.9ZM122.754 324.954H117.996V328.282C118.212 327.978 118.529 327.731 118.945 327.541C119.361 327.341 119.811 327.242 120.297 327.242C121.007 327.242 121.588 327.389 122.039 327.684C122.489 327.97 122.814 328.347 123.014 328.815C123.213 329.274 123.313 329.768 123.313 330.297C123.313 330.903 123.196 331.454 122.962 331.948C122.736 332.433 122.385 332.819 121.909 333.105C121.441 333.391 120.856 333.534 120.154 333.534C119.261 333.534 118.537 333.304 117.983 332.845C117.428 332.377 117.09 331.748 116.969 330.96H117.866C117.978 331.532 118.238 331.974 118.646 332.286C119.053 332.598 119.556 332.754 120.154 332.754C120.908 332.754 121.475 332.533 121.857 332.091C122.247 331.64 122.442 331.046 122.442 330.31C122.442 329.59 122.247 329.031 121.857 328.633C121.467 328.225 120.908 328.022 120.18 328.022C119.677 328.022 119.235 328.139 118.854 328.373C118.472 328.607 118.191 328.923 118.009 329.322H117.151V324.161H122.754V324.954ZM124.355 326.124C124.355 325.569 124.524 325.123 124.862 324.785C125.209 324.438 125.647 324.265 126.175 324.265C126.713 324.265 127.15 324.438 127.488 324.785C127.835 325.123 128.008 325.569 128.008 326.124C128.008 326.687 127.835 327.142 127.488 327.489C127.15 327.827 126.713 327.996 126.175 327.996C125.647 327.996 125.209 327.827 124.862 327.489C124.524 327.142 124.355 326.687 124.355 326.124ZM131.635 324.395L126.305 333.495H125.382L130.725 324.395H131.635ZM126.175 324.85C125.846 324.85 125.582 324.962 125.382 325.188C125.192 325.404 125.096 325.716 125.096 326.124C125.096 326.531 125.192 326.847 125.382 327.073C125.582 327.298 125.846 327.411 126.175 327.411C126.505 327.411 126.769 327.298 126.968 327.073C127.168 326.847 127.267 326.531 127.267 326.124C127.267 325.725 127.168 325.413 126.968 325.188C126.769 324.962 126.505 324.85 126.175 324.85ZM129.035 331.766C129.035 331.202 129.204 330.752 129.542 330.414C129.889 330.067 130.327 329.894 130.855 329.894C131.384 329.894 131.817 330.067 132.155 330.414C132.502 330.752 132.675 331.202 132.675 331.766C132.675 332.329 132.502 332.784 132.155 333.131C131.817 333.469 131.384 333.638 130.855 333.638C130.327 333.638 129.889 333.469 129.542 333.131C129.204 332.784 129.035 332.329 129.035 331.766ZM130.855 330.492C130.526 330.492 130.262 330.604 130.062 330.83C129.863 331.055 129.763 331.367 129.763 331.766C129.763 332.164 129.863 332.476 130.062 332.702C130.262 332.927 130.526 333.04 130.855 333.04C131.185 333.04 131.445 332.931 131.635 332.715C131.835 332.489 131.934 332.173 131.934 331.766C131.934 331.358 131.835 331.046 131.635 330.83C131.445 330.604 131.185 330.492 130.855 330.492Z" fill="white"/>
<path d="M112.913 377.481V376.662H115.123V385.983H114.2V377.481H112.913ZM116.891 381.238C116.891 379.747 117.12 378.59 117.58 377.767C118.039 376.944 118.862 376.532 120.05 376.532C121.237 376.532 122.06 376.944 122.52 377.767C122.979 378.59 123.209 379.747 123.209 381.238C123.209 382.755 122.979 383.929 122.52 384.761C122.06 385.593 121.237 386.009 120.05 386.009C118.854 386.009 118.026 385.593 117.567 384.761C117.116 383.929 116.891 382.755 116.891 381.238ZM122.312 381.238C122.312 380.432 122.255 379.752 122.143 379.197C122.03 378.642 121.809 378.196 121.48 377.858C121.15 377.52 120.674 377.351 120.05 377.351C119.426 377.351 118.949 377.52 118.62 377.858C118.29 378.196 118.069 378.642 117.957 379.197C117.844 379.752 117.788 380.432 117.788 381.238C117.788 382.07 117.844 382.768 117.957 383.331C118.069 383.886 118.29 384.332 118.62 384.67C118.949 385.008 119.426 385.177 120.05 385.177C120.674 385.177 121.15 385.008 121.48 384.67C121.809 384.332 122.03 383.886 122.143 383.331C122.255 382.768 122.312 382.07 122.312 381.238ZM124.355 378.612C124.355 378.057 124.524 377.611 124.862 377.273C125.209 376.926 125.647 376.753 126.175 376.753C126.713 376.753 127.15 376.926 127.488 377.273C127.835 377.611 128.008 378.057 128.008 378.612C128.008 379.175 127.835 379.63 127.488 379.977C127.15 380.315 126.713 380.484 126.175 380.484C125.647 380.484 125.209 380.315 124.862 379.977C124.524 379.63 124.355 379.175 124.355 378.612ZM131.635 376.883L126.305 385.983H125.382L130.725 376.883H131.635ZM126.175 377.338C125.846 377.338 125.582 377.451 125.382 377.676C125.192 377.893 125.096 378.205 125.096 378.612C125.096 379.019 125.192 379.336 125.382 379.561C125.582 379.786 125.846 379.899 126.175 379.899C126.505 379.899 126.769 379.786 126.968 379.561C127.168 379.336 127.267 379.019 127.267 378.612C127.267 378.213 127.168 377.901 126.968 377.676C126.769 377.451 126.505 377.338 126.175 377.338ZM129.035 384.254C129.035 383.691 129.204 383.24 129.542 382.902C129.889 382.555 130.327 382.382 130.855 382.382C131.384 382.382 131.817 382.555 132.155 382.902C132.502 383.24 132.675 383.691 132.675 384.254C132.675 384.817 132.502 385.272 132.155 385.619C131.817 385.957 131.384 386.126 130.855 386.126C130.327 386.126 129.889 385.957 129.542 385.619C129.204 385.272 129.035 384.817 129.035 384.254ZM130.855 382.98C130.526 382.98 130.262 383.093 130.062 383.318C129.863 383.543 129.763 383.855 129.763 384.254C129.763 384.653 129.863 384.965 130.062 385.19C130.262 385.415 130.526 385.528 130.855 385.528C131.185 385.528 131.445 385.42 131.635 385.203C131.835 384.978 131.934 384.661 131.934 384.254C131.934 383.847 131.835 383.535 131.635 383.318C131.445 383.093 131.185 382.98 130.855 382.98Z" fill="white"/>
<path d="M122.754 429.929H117.996V433.257C118.212 432.954 118.529 432.707 118.945 432.516C119.361 432.317 119.811 432.217 120.297 432.217C121.007 432.217 121.588 432.365 122.039 432.659C122.489 432.945 122.814 433.322 123.014 433.79C123.213 434.25 123.313 434.744 123.313 435.272C123.313 435.879 123.196 436.429 122.962 436.923C122.736 437.409 122.385 437.794 121.909 438.08C121.441 438.366 120.856 438.509 120.154 438.509C119.261 438.509 118.537 438.28 117.983 437.82C117.428 437.352 117.09 436.724 116.969 435.935H117.866C117.978 436.507 118.238 436.949 118.646 437.261C119.053 437.573 119.556 437.729 120.154 437.729C120.908 437.729 121.475 437.508 121.857 437.066C122.247 436.616 122.442 436.022 122.442 435.285C122.442 434.566 122.247 434.007 121.857 433.608C121.467 433.201 120.908 432.997 120.18 432.997C119.677 432.997 119.235 433.114 118.854 433.348C118.472 433.582 118.191 433.899 118.009 434.297H117.151V429.136H122.754V429.929ZM124.355 431.099C124.355 430.545 124.524 430.098 124.862 429.76C125.209 429.414 125.647 429.24 126.175 429.24C126.713 429.24 127.15 429.414 127.488 429.76C127.835 430.098 128.008 430.545 128.008 431.099C128.008 431.663 127.835 432.118 127.488 432.464C127.15 432.802 126.713 432.971 126.175 432.971C125.647 432.971 125.209 432.802 124.862 432.464C124.524 432.118 124.355 431.663 124.355 431.099ZM131.635 429.37L126.305 438.47H125.382L130.725 429.37H131.635ZM126.175 429.825C125.846 429.825 125.582 429.938 125.382 430.163C125.192 430.38 125.096 430.692 125.096 431.099C125.096 431.507 125.192 431.823 125.382 432.048C125.582 432.274 125.846 432.386 126.175 432.386C126.505 432.386 126.769 432.274 126.968 432.048C127.168 431.823 127.267 431.507 127.267 431.099C127.267 430.701 127.168 430.389 126.968 430.163C126.769 429.938 126.505 429.825 126.175 429.825ZM129.035 436.741C129.035 436.178 129.204 435.727 129.542 435.389C129.889 435.043 130.327 434.869 130.855 434.869C131.384 434.869 131.817 435.043 132.155 435.389C132.502 435.727 132.675 436.178 132.675 436.741C132.675 437.305 132.502 437.76 132.155 438.106C131.817 438.444 131.384 438.613 130.855 438.613C130.327 438.613 129.889 438.444 129.542 438.106C129.204 437.76 129.035 437.305 129.035 436.741ZM130.855 435.467C130.526 435.467 130.262 435.58 130.062 435.805C129.863 436.031 129.763 436.343 129.763 436.741C129.763 437.14 129.863 437.452 130.062 437.677C130.262 437.903 130.526 438.015 130.855 438.015C131.185 438.015 131.445 437.907 131.635 437.69C131.835 437.465 131.934 437.149 131.934 436.741C131.934 436.334 131.835 436.022 131.635 435.805C131.445 435.58 131.185 435.467 130.855 435.467Z" fill="white"/>
<path d="M116.123 119.306C116.752 119.423 117.269 119.738 117.675 120.25C118.08 120.762 118.283 121.348 118.283 122.01C118.283 122.607 118.133 123.135 117.835 123.594C117.547 124.042 117.125 124.394 116.571 124.65C116.016 124.906 115.36 125.034 114.603 125.034H109.787V113.866H114.395C115.152 113.866 115.803 113.988 116.347 114.234C116.901 114.479 117.317 114.82 117.595 115.258C117.883 115.695 118.027 116.191 118.027 116.746C118.027 117.396 117.851 117.94 117.499 118.378C117.157 118.815 116.699 119.124 116.123 119.306ZM112.027 118.474H114.075C114.608 118.474 115.019 118.356 115.307 118.122C115.595 117.876 115.739 117.53 115.739 117.082C115.739 116.634 115.595 116.287 115.307 116.042C115.019 115.796 114.608 115.674 114.075 115.674H112.027V118.474ZM114.283 123.21C114.827 123.21 115.248 123.082 115.547 122.826C115.856 122.57 116.011 122.207 116.011 121.738C116.011 121.258 115.851 120.884 115.531 120.618C115.211 120.34 114.779 120.202 114.235 120.202H112.027V123.21H114.283ZM127.348 113.866V115.674H124.372V125.034H122.132V115.674H119.156V113.866H127.348ZM139.755 113.866V115.674H136.779V125.034H134.539V115.674H131.563V113.866H139.755ZM145.005 125.178C144.152 125.178 143.384 124.991 142.701 124.618C142.018 124.234 141.48 123.695 141.085 123.002C140.701 122.308 140.509 121.508 140.509 120.602C140.509 119.695 140.706 118.895 141.101 118.202C141.506 117.508 142.056 116.975 142.749 116.602C143.442 116.218 144.216 116.026 145.069 116.026C145.922 116.026 146.696 116.218 147.389 116.602C148.082 116.975 148.626 117.508 149.021 118.202C149.426 118.895 149.629 119.695 149.629 120.602C149.629 121.508 149.421 122.308 149.005 123.002C148.6 123.695 148.045 124.234 147.341 124.618C146.648 124.991 145.869 125.178 145.005 125.178ZM145.005 123.226C145.41 123.226 145.789 123.13 146.141 122.938C146.504 122.735 146.792 122.436 147.005 122.042C147.218 121.647 147.325 121.167 147.325 120.602C147.325 119.759 147.101 119.114 146.653 118.666C146.216 118.207 145.677 117.978 145.037 117.978C144.397 117.978 143.858 118.207 143.421 118.666C142.994 119.114 142.781 119.759 142.781 120.602C142.781 121.444 142.989 122.095 143.405 122.554C143.832 123.002 144.365 123.226 145.005 123.226ZM156.2 125.034L153.192 121.258V125.034H150.952V113.194H153.192V119.93L156.168 116.17H159.08L155.176 120.618L159.112 125.034H156.2ZM168.216 120.41C168.216 120.73 168.195 121.018 168.152 121.274H161.672C161.725 121.914 161.949 122.415 162.344 122.778C162.739 123.14 163.224 123.322 163.8 123.322C164.632 123.322 165.224 122.964 165.576 122.25H167.992C167.736 123.103 167.245 123.807 166.52 124.362C165.795 124.906 164.904 125.178 163.848 125.178C162.995 125.178 162.227 124.991 161.544 124.618C160.872 124.234 160.344 123.695 159.96 123.002C159.587 122.308 159.4 121.508 159.4 120.602C159.4 119.684 159.587 118.879 159.96 118.186C160.333 117.492 160.856 116.959 161.528 116.586C162.2 116.212 162.973 116.026 163.848 116.026C164.691 116.026 165.443 116.207 166.104 116.57C166.776 116.932 167.293 117.45 167.656 118.122C168.029 118.783 168.216 119.546 168.216 120.41ZM165.896 119.77C165.885 119.194 165.677 118.735 165.272 118.394C164.867 118.042 164.371 117.866 163.784 117.866C163.229 117.866 162.76 118.036 162.376 118.378C162.003 118.708 161.773 119.172 161.688 119.77H165.896ZM174.443 116.042C175.499 116.042 176.352 116.378 177.003 117.05C177.654 117.711 177.979 118.639 177.979 119.834V125.034H175.739V120.138C175.739 119.434 175.563 118.895 175.211 118.522C174.859 118.138 174.379 117.946 173.771 117.946C173.152 117.946 172.662 118.138 172.299 118.522C171.947 118.895 171.771 119.434 171.771 120.138V125.034H169.531V116.17H171.771V117.274C172.07 116.89 172.448 116.591 172.907 116.378C173.376 116.154 173.888 116.042 174.443 116.042ZM190.678 113.866C191.851 113.866 192.881 114.095 193.766 114.554C194.662 115.012 195.35 115.668 195.83 116.522C196.321 117.364 196.566 118.346 196.566 119.466C196.566 120.586 196.321 121.567 195.83 122.41C195.35 123.242 194.662 123.887 193.766 124.346C192.881 124.804 191.851 125.034 190.678 125.034H186.774V113.866H190.678ZM190.598 123.13C191.771 123.13 192.678 122.81 193.318 122.17C193.958 121.53 194.278 120.628 194.278 119.466C194.278 118.303 193.958 117.396 193.318 116.746C192.678 116.084 191.771 115.754 190.598 115.754H189.014V123.13H190.598ZM199.059 115.114C198.664 115.114 198.334 114.991 198.067 114.746C197.811 114.49 197.683 114.175 197.683 113.802C197.683 113.428 197.811 113.119 198.067 112.874C198.334 112.618 198.664 112.49 199.059 112.49C199.454 112.49 199.779 112.618 200.035 112.874C200.302 113.119 200.435 113.428 200.435 113.802C200.435 114.175 200.302 114.49 200.035 114.746C199.779 114.991 199.454 115.114 199.059 115.114ZM200.163 116.17V125.034H197.923V116.17H200.163ZM205.448 125.178C204.723 125.178 204.072 125.05 203.496 124.794C202.92 124.527 202.461 124.17 202.12 123.722C201.789 123.274 201.608 122.778 201.576 122.234H203.832C203.875 122.575 204.04 122.858 204.328 123.082C204.627 123.306 204.995 123.418 205.432 123.418C205.859 123.418 206.189 123.332 206.424 123.162C206.669 122.991 206.792 122.772 206.792 122.506C206.792 122.218 206.643 122.004 206.344 121.866C206.056 121.716 205.592 121.556 204.952 121.386C204.291 121.226 203.747 121.06 203.32 120.89C202.904 120.719 202.541 120.458 202.232 120.106C201.933 119.754 201.784 119.279 201.784 118.682C201.784 118.191 201.923 117.743 202.2 117.338C202.488 116.932 202.893 116.612 203.416 116.378C203.949 116.143 204.573 116.026 205.288 116.026C206.344 116.026 207.187 116.292 207.816 116.826C208.445 117.348 208.792 118.058 208.856 118.954H206.712C206.68 118.602 206.531 118.324 206.264 118.122C206.008 117.908 205.661 117.802 205.224 117.802C204.819 117.802 204.504 117.876 204.28 118.026C204.067 118.175 203.96 118.383 203.96 118.65C203.96 118.948 204.109 119.178 204.408 119.338C204.707 119.487 205.171 119.642 205.8 119.802C206.44 119.962 206.968 120.127 207.384 120.298C207.8 120.468 208.157 120.735 208.456 121.098C208.765 121.45 208.925 121.919 208.936 122.506C208.936 123.018 208.792 123.476 208.504 123.882C208.227 124.287 207.821 124.607 207.288 124.842C206.765 125.066 206.152 125.178 205.448 125.178ZM213.063 118.01V122.298C213.063 122.596 213.132 122.815 213.271 122.954C213.42 123.082 213.665 123.146 214.007 123.146H215.047V125.034H213.639C211.751 125.034 210.807 124.116 210.807 122.282V118.01H209.751V116.17H210.807V113.978H213.063V116.17H215.047V118.01H213.063ZM218.578 117.546C218.866 117.076 219.239 116.708 219.698 116.442C220.167 116.175 220.701 116.042 221.298 116.042V118.394H220.706C220.002 118.394 219.469 118.559 219.106 118.89C218.754 119.22 218.578 119.796 218.578 120.618V125.034H216.338V116.17H218.578V117.546ZM223.623 115.114C223.228 115.114 222.897 114.991 222.631 114.746C222.375 114.49 222.247 114.175 222.247 113.802C222.247 113.428 222.375 113.119 222.631 112.874C222.897 112.618 223.228 112.49 223.623 112.49C224.017 112.49 224.343 112.618 224.599 112.874C224.865 113.119 224.999 113.428 224.999 113.802C224.999 114.175 224.865 114.49 224.599 114.746C224.343 114.991 224.017 115.114 223.623 115.114ZM224.727 116.17V125.034H222.487V116.17H224.727ZM228.86 117.466C229.148 117.039 229.542 116.692 230.044 116.426C230.556 116.159 231.137 116.026 231.788 116.026C232.545 116.026 233.228 116.212 233.836 116.586C234.454 116.959 234.94 117.492 235.292 118.186C235.654 118.868 235.836 119.663 235.836 120.57C235.836 121.476 235.654 122.282 235.292 122.986C234.94 123.679 234.454 124.218 233.836 124.602C233.228 124.986 232.545 125.178 231.788 125.178C231.126 125.178 230.545 125.05 230.044 124.794C229.553 124.527 229.158 124.186 228.86 123.77V125.034H226.62V113.194H228.86V117.466ZM233.548 120.57C233.548 120.036 233.436 119.578 233.212 119.194C232.998 118.799 232.71 118.5 232.348 118.298C231.996 118.095 231.612 117.994 231.196 117.994C230.79 117.994 230.406 118.1 230.044 118.314C229.692 118.516 229.404 118.815 229.18 119.21C228.966 119.604 228.86 120.068 228.86 120.602C228.86 121.135 228.966 121.599 229.18 121.994C229.404 122.388 229.692 122.692 230.044 122.906C230.406 123.108 230.79 123.21 231.196 123.21C231.612 123.21 231.996 123.103 232.348 122.89C232.71 122.676 232.998 122.372 233.212 121.978C233.436 121.583 233.548 121.114 233.548 120.57ZM245.512 116.17V125.034H243.256V123.914C242.968 124.298 242.589 124.602 242.12 124.826C241.661 125.039 241.16 125.146 240.616 125.146C239.922 125.146 239.309 125.002 238.776 124.714C238.242 124.415 237.821 123.983 237.512 123.418C237.213 122.842 237.064 122.159 237.064 121.37V116.17H239.304V121.05C239.304 121.754 239.48 122.298 239.832 122.682C240.184 123.055 240.664 123.242 241.272 123.242C241.89 123.242 242.376 123.055 242.728 122.682C243.08 122.298 243.256 121.754 243.256 121.05V116.17H245.512ZM250.01 118.01V122.298C250.01 122.596 250.079 122.815 250.218 122.954C250.367 123.082 250.612 123.146 250.954 123.146H251.994V125.034H250.586C248.698 125.034 247.754 124.116 247.754 122.282V118.01H246.698V116.17H247.754V113.978H250.01V116.17H251.994V118.01H250.01ZM254.421 115.114C254.026 115.114 253.695 114.991 253.429 114.746C253.173 114.49 253.045 114.175 253.045 113.802C253.045 113.428 253.173 113.119 253.429 112.874C253.695 112.618 254.026 112.49 254.421 112.49C254.815 112.49 255.141 112.618 255.397 112.874C255.663 113.119 255.797 113.428 255.797 113.802C255.797 114.175 255.663 114.49 255.397 114.746C255.141 114.991 254.815 115.114 254.421 115.114ZM255.525 116.17V125.034H253.285V116.17H255.525ZM261.354 125.178C260.501 125.178 259.733 124.991 259.05 124.618C258.367 124.234 257.829 123.695 257.434 123.002C257.05 122.308 256.858 121.508 256.858 120.602C256.858 119.695 257.055 118.895 257.45 118.202C257.855 117.508 258.405 116.975 259.098 116.602C259.791 116.218 260.565 116.026 261.418 116.026C262.271 116.026 263.045 116.218 263.738 116.602C264.431 116.975 264.975 117.508 265.37 118.202C265.775 118.895 265.978 119.695 265.978 120.602C265.978 121.508 265.77 122.308 265.354 123.002C264.949 123.695 264.394 124.234 263.69 124.618C262.997 124.991 262.218 125.178 261.354 125.178ZM261.354 123.226C261.759 123.226 262.138 123.13 262.49 122.938C262.853 122.735 263.141 122.436 263.354 122.042C263.567 121.647 263.674 121.167 263.674 120.602C263.674 119.759 263.45 119.114 263.002 118.666C262.565 118.207 262.026 117.978 261.386 117.978C260.746 117.978 260.207 118.207 259.77 118.666C259.343 119.114 259.13 119.759 259.13 120.602C259.13 121.444 259.338 122.095 259.754 122.554C260.181 123.002 260.714 123.226 261.354 123.226ZM272.213 116.042C273.269 116.042 274.122 116.378 274.773 117.05C275.424 117.711 275.749 118.639 275.749 119.834V125.034H273.509V120.138C273.509 119.434 273.333 118.895 272.981 118.522C272.629 118.138 272.149 117.946 271.541 117.946C270.922 117.946 270.432 118.138 270.069 118.522C269.717 118.895 269.541 119.434 269.541 120.138V125.034H267.301V116.17H269.541V117.274C269.84 116.89 270.218 116.591 270.677 116.378C271.146 116.154 271.658 116.042 272.213 116.042Z" fill="white"/>
<rect x="109.965" y="542.898" width="10.5861" height="9.46548" fill="#CDDD6D"/>
<path d="M128.935 552.287C128.103 552.287 127.388 552.092 126.79 551.702C126.201 551.303 125.789 550.757 125.555 550.064L126.335 549.609C126.5 550.172 126.803 550.614 127.245 550.935C127.687 551.247 128.255 551.403 128.948 551.403C129.624 551.403 130.149 551.256 130.521 550.961C130.903 550.658 131.093 550.259 131.093 549.765C131.093 549.288 130.92 548.929 130.573 548.686C130.227 548.443 129.655 548.192 128.857 547.932C127.913 547.62 127.289 547.369 126.985 547.178C126.292 546.762 125.945 546.16 125.945 545.371C125.945 544.6 126.214 543.993 126.751 543.551C127.289 543.1 127.952 542.875 128.74 542.875C129.451 542.875 130.066 543.061 130.586 543.434C131.106 543.798 131.492 544.266 131.743 544.838L130.976 545.267C130.56 544.262 129.815 543.759 128.74 543.759C128.177 543.759 127.722 543.898 127.375 544.175C127.029 544.452 126.855 544.838 126.855 545.332C126.855 545.783 127.011 546.121 127.323 546.346C127.635 546.571 128.151 546.801 128.87 547.035C129.2 547.148 129.434 547.23 129.572 547.282C129.72 547.325 129.928 547.403 130.196 547.516C130.474 547.62 130.677 547.715 130.807 547.802C130.937 547.88 131.093 547.993 131.275 548.14C131.466 548.279 131.6 548.422 131.678 548.569C131.765 548.708 131.839 548.881 131.899 549.089C131.969 549.288 132.003 549.505 132.003 549.739C132.003 550.51 131.722 551.13 131.158 551.598C130.595 552.057 129.854 552.287 128.935 552.287ZM136.305 545.475C137.267 545.475 138.043 545.817 138.632 546.502C139.23 547.178 139.529 547.98 139.529 548.907C139.529 549.002 139.521 549.137 139.503 549.31H133.796C133.883 549.969 134.16 550.493 134.628 550.883C135.105 551.264 135.69 551.455 136.383 551.455C136.877 551.455 137.302 551.355 137.657 551.156C138.021 550.948 138.294 550.679 138.476 550.35L139.23 550.792C138.944 551.251 138.554 551.615 138.06 551.884C137.566 552.153 137.003 552.287 136.37 552.287C135.348 552.287 134.516 551.966 133.874 551.325C133.233 550.684 132.912 549.869 132.912 548.881C132.912 547.91 133.229 547.1 133.861 546.45C134.494 545.8 135.309 545.475 136.305 545.475ZM136.305 546.307C135.629 546.307 135.062 546.511 134.602 546.918C134.152 547.317 133.883 547.837 133.796 548.478H138.645C138.559 547.793 138.294 547.26 137.852 546.879C137.41 546.498 136.895 546.307 136.305 546.307ZM143.637 545.475C144.599 545.475 145.375 545.817 145.964 546.502C146.562 547.178 146.861 547.98 146.861 548.907C146.861 549.002 146.853 549.137 146.835 549.31H141.128C141.215 549.969 141.492 550.493 141.96 550.883C142.437 551.264 143.022 551.455 143.715 551.455C144.209 551.455 144.634 551.355 144.989 551.156C145.353 550.948 145.626 550.679 145.808 550.35L146.562 550.792C146.276 551.251 145.886 551.615 145.392 551.884C144.898 552.153 144.335 552.287 143.702 552.287C142.68 552.287 141.848 551.966 141.206 551.325C140.565 550.684 140.244 549.869 140.244 548.881C140.244 547.91 140.561 547.1 141.193 546.45C141.826 545.8 142.641 545.475 143.637 545.475ZM143.637 546.307C142.961 546.307 142.394 546.511 141.934 546.918C141.484 547.317 141.215 547.837 141.128 548.478H145.977C145.891 547.793 145.626 547.26 145.184 546.879C144.742 546.498 144.227 546.307 143.637 546.307ZM153.556 543.031H154.414V552.131H153.556V550.857C152.958 551.81 152.083 552.287 150.93 552.287C150.003 552.287 149.21 551.958 148.551 551.299C147.901 550.64 147.576 549.834 147.576 548.881C147.576 547.928 147.901 547.122 148.551 546.463C149.21 545.804 150.003 545.475 150.93 545.475C152.083 545.475 152.958 545.952 153.556 546.905V543.031ZM149.175 550.714C149.669 551.208 150.276 551.455 150.995 551.455C151.714 551.455 152.321 551.208 152.815 550.714C153.309 550.211 153.556 549.6 153.556 548.881C153.556 548.162 153.309 547.555 152.815 547.061C152.321 546.558 151.714 546.307 150.995 546.307C150.276 546.307 149.669 546.558 149.175 547.061C148.681 547.555 148.434 548.162 148.434 548.881C148.434 549.6 148.681 550.211 149.175 550.714ZM159.637 547.334C159.637 547.629 159.767 547.863 160.027 548.036C160.287 548.209 160.603 548.344 160.976 548.439C161.348 548.534 161.721 548.643 162.094 548.764C162.466 548.877 162.783 549.072 163.043 549.349C163.303 549.618 163.433 549.973 163.433 550.415C163.433 550.97 163.212 551.42 162.77 551.767C162.336 552.114 161.773 552.287 161.08 552.287C160.456 552.287 159.923 552.148 159.481 551.871C159.047 551.594 158.744 551.234 158.571 550.792L159.299 550.363C159.42 550.701 159.637 550.97 159.949 551.169C160.269 551.36 160.646 551.455 161.08 551.455C161.504 551.455 161.86 551.373 162.146 551.208C162.432 551.035 162.575 550.77 162.575 550.415C162.575 550.12 162.445 549.886 162.185 549.713C161.925 549.54 161.608 549.405 161.236 549.31C160.863 549.215 160.49 549.111 160.118 548.998C159.745 548.877 159.429 548.682 159.169 548.413C158.909 548.136 158.779 547.776 158.779 547.334C158.779 546.805 158.987 546.363 159.403 546.008C159.827 545.653 160.36 545.475 161.002 545.475C161.53 545.475 161.994 545.596 162.393 545.839C162.791 546.073 163.086 546.394 163.277 546.801L162.562 547.217C162.31 546.61 161.79 546.307 161.002 546.307C160.629 546.307 160.308 546.398 160.04 546.58C159.771 546.753 159.637 547.005 159.637 547.334ZM170.004 545.631H170.862V552.131H170.004V550.857C169.406 551.81 168.53 552.287 167.378 552.287C166.45 552.287 165.657 551.958 164.999 551.299C164.349 550.64 164.024 549.834 164.024 548.881C164.024 547.928 164.349 547.122 164.999 546.463C165.657 545.804 166.45 545.475 167.378 545.475C168.53 545.475 169.406 545.952 170.004 546.905V545.631ZM165.623 550.714C166.117 551.208 166.723 551.455 167.443 551.455C168.162 551.455 168.769 551.208 169.263 550.714C169.757 550.211 170.004 549.6 170.004 548.881C170.004 548.162 169.757 547.555 169.263 547.061C168.769 546.558 168.162 546.307 167.443 546.307C166.723 546.307 166.117 546.558 165.623 547.061C165.129 547.555 164.882 548.162 164.882 548.881C164.882 549.6 165.129 550.211 165.623 550.714ZM172.418 552.131V542.641H173.276V552.131H172.418ZM177.84 545.475C178.802 545.475 179.578 545.817 180.167 546.502C180.765 547.178 181.064 547.98 181.064 548.907C181.064 549.002 181.055 549.137 181.038 549.31H175.331C175.418 549.969 175.695 550.493 176.163 550.883C176.64 551.264 177.225 551.455 177.918 551.455C178.412 551.455 178.837 551.355 179.192 551.156C179.556 550.948 179.829 550.679 180.011 550.35L180.765 550.792C180.479 551.251 180.089 551.615 179.595 551.884C179.101 552.153 178.538 552.287 177.905 552.287C176.882 552.287 176.05 551.966 175.409 551.325C174.768 550.684 174.447 549.869 174.447 548.881C174.447 547.91 174.763 547.1 175.396 546.45C176.029 545.8 176.843 545.475 177.84 545.475ZM177.84 546.307C177.164 546.307 176.596 546.511 176.137 546.918C175.686 547.317 175.418 547.837 175.331 548.478H180.18C180.093 547.793 179.829 547.26 179.387 546.879C178.945 546.498 178.429 546.307 177.84 546.307Z" fill="#C2C2C2"/>
<rect x="254.113" y="542.898" width="10.5861" height="9.46548" fill="url(#paint13_linear)"/>
<path d="M273.473 543.031C274.288 543.031 274.968 543.304 275.514 543.85C276.06 544.396 276.333 545.076 276.333 545.891C276.333 546.706 276.06 547.386 275.514 547.932C274.968 548.478 274.288 548.751 273.473 548.751H271.133V552.131H270.223V543.031H273.473ZM273.473 547.893C274.036 547.893 274.5 547.707 274.864 547.334C275.237 546.953 275.423 546.472 275.423 545.891C275.423 545.31 275.237 544.834 274.864 544.461C274.5 544.08 274.036 543.889 273.473 543.889H271.133V547.893H273.473ZM278.232 546.71C278.631 545.921 279.316 545.527 280.286 545.527V546.359C279.697 546.359 279.207 546.532 278.817 546.879C278.427 547.226 278.232 547.772 278.232 548.517V552.131H277.374V545.631H278.232V546.71ZM282.073 544.071C281.952 544.192 281.804 544.253 281.631 544.253C281.458 544.253 281.31 544.192 281.189 544.071C281.068 543.95 281.007 543.802 281.007 543.629C281.007 543.456 281.068 543.308 281.189 543.187C281.31 543.066 281.458 543.005 281.631 543.005C281.804 543.005 281.952 543.066 282.073 543.187C282.194 543.308 282.255 543.456 282.255 543.629C282.255 543.802 282.194 543.95 282.073 544.071ZM281.202 552.131V545.631H282.06V552.131H281.202ZM288.301 545.631H289.211L286.546 552.131H285.506L282.841 545.631H283.751L286.026 551.234L288.301 545.631ZM295.324 545.631H296.182V552.131H295.324V550.857C294.726 551.81 293.85 552.287 292.698 552.287C291.77 552.287 290.977 551.958 290.319 551.299C289.669 550.64 289.344 549.834 289.344 548.881C289.344 547.928 289.669 547.122 290.319 546.463C290.977 545.804 291.77 545.475 292.698 545.475C293.85 545.475 294.726 545.952 295.324 546.905V545.631ZM290.943 550.714C291.437 551.208 292.043 551.455 292.763 551.455C293.482 551.455 294.089 551.208 294.583 550.714C295.077 550.211 295.324 549.6 295.324 548.881C295.324 548.162 295.077 547.555 294.583 547.061C294.089 546.558 293.482 546.307 292.763 546.307C292.043 546.307 291.437 546.558 290.943 547.061C290.449 547.555 290.202 548.162 290.202 548.881C290.202 549.6 290.449 550.211 290.943 550.714ZM301.183 546.463H299.311V550.402C299.311 550.757 299.381 551.013 299.519 551.169C299.658 551.316 299.866 551.394 300.143 551.403C300.421 551.403 300.767 551.394 301.183 551.377V552.131C300.273 552.27 299.589 552.205 299.129 551.936C298.679 551.667 298.453 551.156 298.453 550.402V546.463H297.088V545.631H298.453V544.071L299.311 543.811V545.631H301.183V546.463ZM304.963 545.475C305.925 545.475 306.701 545.817 307.29 546.502C307.888 547.178 308.187 547.98 308.187 548.907C308.187 549.002 308.178 549.137 308.161 549.31H302.454C302.541 549.969 302.818 550.493 303.286 550.883C303.763 551.264 304.348 551.455 305.041 551.455C305.535 551.455 305.96 551.355 306.315 551.156C306.679 550.948 306.952 550.679 307.134 550.35L307.888 550.792C307.602 551.251 307.212 551.615 306.718 551.884C306.224 552.153 305.661 552.287 305.028 552.287C304.005 552.287 303.173 551.966 302.532 551.325C301.891 550.684 301.57 549.869 301.57 548.881C301.57 547.91 301.886 547.1 302.519 546.45C303.152 545.8 303.966 545.475 304.963 545.475ZM304.963 546.307C304.287 546.307 303.719 546.511 303.26 546.918C302.809 547.317 302.541 547.837 302.454 548.478H307.303C307.216 547.793 306.952 547.26 306.51 546.879C306.068 546.498 305.552 546.307 304.963 546.307ZM312.958 547.334C312.958 547.629 313.088 547.863 313.348 548.036C313.608 548.209 313.924 548.344 314.297 548.439C314.669 548.534 315.042 548.643 315.415 548.764C315.787 548.877 316.104 549.072 316.364 549.349C316.624 549.618 316.754 549.973 316.754 550.415C316.754 550.97 316.533 551.42 316.091 551.767C315.657 552.114 315.094 552.287 314.401 552.287C313.777 552.287 313.244 552.148 312.802 551.871C312.368 551.594 312.065 551.234 311.892 550.792L312.62 550.363C312.741 550.701 312.958 550.97 313.27 551.169C313.59 551.36 313.967 551.455 314.401 551.455C314.825 551.455 315.181 551.373 315.467 551.208C315.753 551.035 315.896 550.77 315.896 550.415C315.896 550.12 315.766 549.886 315.506 549.713C315.246 549.54 314.929 549.405 314.557 549.31C314.184 549.215 313.811 549.111 313.439 548.998C313.066 548.877 312.75 548.682 312.49 548.413C312.23 548.136 312.1 547.776 312.1 547.334C312.1 546.805 312.308 546.363 312.724 546.008C313.148 545.653 313.681 545.475 314.323 545.475C314.851 545.475 315.315 545.596 315.714 545.839C316.112 546.073 316.407 546.394 316.598 546.801L315.883 547.217C315.631 546.61 315.111 546.307 314.323 546.307C313.95 546.307 313.629 546.398 313.361 546.58C313.092 546.753 312.958 547.005 312.958 547.334ZM323.325 545.631H324.183V552.131H323.325V550.857C322.727 551.81 321.851 552.287 320.699 552.287C319.771 552.287 318.978 551.958 318.32 551.299C317.67 550.64 317.345 549.834 317.345 548.881C317.345 547.928 317.67 547.122 318.32 546.463C318.978 545.804 319.771 545.475 320.699 545.475C321.851 545.475 322.727 545.952 323.325 546.905V545.631ZM318.944 550.714C319.438 551.208 320.044 551.455 320.764 551.455C321.483 551.455 322.09 551.208 322.584 550.714C323.078 550.211 323.325 549.6 323.325 548.881C323.325 548.162 323.078 547.555 322.584 547.061C322.09 546.558 321.483 546.307 320.764 546.307C320.044 546.307 319.438 546.558 318.944 547.061C318.45 547.555 318.203 548.162 318.203 548.881C318.203 549.6 318.45 550.211 318.944 550.714ZM325.739 552.131V542.641H326.597V552.131H325.739ZM331.161 545.475C332.123 545.475 332.899 545.817 333.488 546.502C334.086 547.178 334.385 547.98 334.385 548.907C334.385 549.002 334.376 549.137 334.359 549.31H328.652C328.739 549.969 329.016 550.493 329.484 550.883C329.961 551.264 330.546 551.455 331.239 551.455C331.733 551.455 332.158 551.355 332.513 551.156C332.877 550.948 333.15 550.679 333.332 550.35L334.086 550.792C333.8 551.251 333.41 551.615 332.916 551.884C332.422 552.153 331.859 552.287 331.226 552.287C330.203 552.287 329.371 551.966 328.73 551.325C328.089 550.684 327.768 549.869 327.768 548.881C327.768 547.91 328.084 547.1 328.717 546.45C329.35 545.8 330.164 545.475 331.161 545.475ZM331.161 546.307C330.485 546.307 329.917 546.511 329.458 546.918C329.007 547.317 328.739 547.837 328.652 548.478H333.501C333.414 547.793 333.15 547.26 332.708 546.879C332.266 546.498 331.75 546.307 331.161 546.307Z" fill="#C2C2C2"/>
<rect x="405.745" y="542.898" width="10.5861" height="9.46548" fill="url(#paint14_linear)"/>
<path d="M425.105 543.031C425.92 543.031 426.6 543.304 427.146 543.85C427.692 544.396 427.965 545.076 427.965 545.891C427.965 546.706 427.692 547.386 427.146 547.932C426.6 548.478 425.92 548.751 425.105 548.751H422.765V552.131H421.855V543.031H425.105ZM425.105 547.893C425.668 547.893 426.132 547.707 426.496 547.334C426.869 546.953 427.055 546.472 427.055 545.891C427.055 545.31 426.869 544.834 426.496 544.461C426.132 544.08 425.668 543.889 425.105 543.889H422.765V547.893H425.105ZM433.709 545.631H434.567V552.131H433.709V551.117C433.224 551.897 432.496 552.287 431.525 552.287C430.736 552.287 430.112 552.049 429.653 551.572C429.202 551.087 428.977 550.437 428.977 549.622V545.631H429.835V549.622C429.835 550.203 429.987 550.653 430.29 550.974C430.602 551.295 431.04 551.455 431.603 551.455C432.227 551.455 432.734 551.26 433.124 550.87C433.514 550.471 433.709 549.86 433.709 549.037V545.631ZM439.606 545.475C440.533 545.475 441.322 545.804 441.972 546.463C442.631 547.122 442.96 547.928 442.96 548.881C442.96 549.834 442.631 550.64 441.972 551.299C441.322 551.958 440.533 552.287 439.606 552.287C438.453 552.287 437.578 551.81 436.98 550.857V552.131H436.122V543.031H436.98V546.905C437.578 545.952 438.453 545.475 439.606 545.475ZM437.721 550.714C438.215 551.208 438.822 551.455 439.541 551.455C440.26 551.455 440.867 551.208 441.361 550.714C441.855 550.211 442.102 549.6 442.102 548.881C442.102 548.162 441.855 547.555 441.361 547.061C440.867 546.558 440.26 546.307 439.541 546.307C438.822 546.307 438.215 546.558 437.721 547.061C437.227 547.555 436.98 548.162 436.98 548.881C436.98 549.6 437.227 550.211 437.721 550.714ZM444.127 552.131V542.641H444.985V552.131H444.127ZM447.416 544.071C447.295 544.192 447.148 544.253 446.974 544.253C446.801 544.253 446.654 544.192 446.532 544.071C446.411 543.95 446.35 543.802 446.35 543.629C446.35 543.456 446.411 543.308 446.532 543.187C446.654 543.066 446.801 543.005 446.974 543.005C447.148 543.005 447.295 543.066 447.416 543.187C447.538 543.308 447.598 543.456 447.598 543.629C447.598 543.802 447.538 543.95 447.416 544.071ZM446.545 552.131V545.631H447.403V552.131H446.545ZM451.993 552.287C451.014 552.287 450.199 551.962 449.549 551.312C448.899 550.653 448.574 549.843 448.574 548.881C448.574 547.919 448.899 547.113 449.549 546.463C450.199 545.804 451.014 545.475 451.993 545.475C452.634 545.475 453.211 545.631 453.722 545.943C454.233 546.246 454.606 546.658 454.84 547.178L454.138 547.581C453.965 547.191 453.683 546.883 453.293 546.658C452.912 546.424 452.478 546.307 451.993 546.307C451.274 546.307 450.667 546.558 450.173 547.061C449.679 547.555 449.432 548.162 449.432 548.881C449.432 549.6 449.679 550.211 450.173 550.714C450.667 551.208 451.274 551.455 451.993 551.455C452.478 551.455 452.912 551.342 453.293 551.117C453.674 550.883 453.973 550.571 454.19 550.181L454.905 550.597C454.636 551.117 454.242 551.529 453.722 551.832C453.202 552.135 452.626 552.287 451.993 552.287ZM459.543 547.334C459.543 547.629 459.673 547.863 459.933 548.036C460.193 548.209 460.509 548.344 460.882 548.439C461.255 548.534 461.627 548.643 462 548.764C462.373 548.877 462.689 549.072 462.949 549.349C463.209 549.618 463.339 549.973 463.339 550.415C463.339 550.97 463.118 551.42 462.676 551.767C462.243 552.114 461.679 552.287 460.986 552.287C460.362 552.287 459.829 552.148 459.387 551.871C458.954 551.594 458.65 551.234 458.477 550.792L459.205 550.363C459.326 550.701 459.543 550.97 459.855 551.169C460.176 551.36 460.553 551.455 460.986 551.455C461.411 551.455 461.766 551.373 462.052 551.208C462.338 551.035 462.481 550.77 462.481 550.415C462.481 550.12 462.351 549.886 462.091 549.713C461.831 549.54 461.515 549.405 461.142 549.31C460.769 549.215 460.397 549.111 460.024 548.998C459.651 548.877 459.335 548.682 459.075 548.413C458.815 548.136 458.685 547.776 458.685 547.334C458.685 546.805 458.893 546.363 459.309 546.008C459.734 545.653 460.267 545.475 460.908 545.475C461.437 545.475 461.9 545.596 462.299 545.839C462.698 546.073 462.992 546.394 463.183 546.801L462.468 547.217C462.217 546.61 461.697 546.307 460.908 546.307C460.535 546.307 460.215 546.398 459.946 546.58C459.677 546.753 459.543 547.005 459.543 547.334ZM469.91 545.631H470.768V552.131H469.91V550.857C469.312 551.81 468.436 552.287 467.284 552.287C466.356 552.287 465.563 551.958 464.905 551.299C464.255 550.64 463.93 549.834 463.93 548.881C463.93 547.928 464.255 547.122 464.905 546.463C465.563 545.804 466.356 545.475 467.284 545.475C468.436 545.475 469.312 545.952 469.91 546.905V545.631ZM465.529 550.714C466.023 551.208 466.629 551.455 467.349 551.455C468.068 551.455 468.675 551.208 469.169 550.714C469.663 550.211 469.91 549.6 469.91 548.881C469.91 548.162 469.663 547.555 469.169 547.061C468.675 546.558 468.068 546.307 467.349 546.307C466.629 546.307 466.023 546.558 465.529 547.061C465.035 547.555 464.788 548.162 464.788 548.881C464.788 549.6 465.035 550.211 465.529 550.714ZM472.324 552.131V542.641H473.182V552.131H472.324ZM477.746 545.475C478.708 545.475 479.484 545.817 480.073 546.502C480.671 547.178 480.97 547.98 480.97 548.907C480.97 549.002 480.962 549.137 480.944 549.31H475.237C475.324 549.969 475.601 550.493 476.069 550.883C476.546 551.264 477.131 551.455 477.824 551.455C478.318 551.455 478.743 551.355 479.098 551.156C479.462 550.948 479.735 550.679 479.917 550.35L480.671 550.792C480.385 551.251 479.995 551.615 479.501 551.884C479.007 552.153 478.444 552.287 477.811 552.287C476.789 552.287 475.957 551.966 475.315 551.325C474.674 550.684 474.353 549.869 474.353 548.881C474.353 547.91 474.67 547.1 475.302 546.45C475.935 545.8 476.75 545.475 477.746 545.475ZM477.746 546.307C477.07 546.307 476.503 546.511 476.043 546.918C475.593 547.317 475.324 547.837 475.237 548.478H480.086C480 547.793 479.735 547.26 479.293 546.879C478.851 546.498 478.336 546.307 477.746 546.307Z" fill="#C2C2C2"/>
<rect x="524.375" y="542.898" width="10.5861" height="9.46548" fill="url(#paint15_linear)"/>
<path d="M543.736 543.031C544.55 543.031 545.231 543.304 545.777 543.85C546.323 544.396 546.596 545.076 546.596 545.891C546.596 546.706 546.323 547.386 545.777 547.932C545.231 548.478 544.55 548.751 543.736 548.751H541.396V552.131H540.486V543.031H543.736ZM543.736 547.893C544.299 547.893 544.763 547.707 545.127 547.334C545.499 546.953 545.686 546.472 545.686 545.891C545.686 545.31 545.499 544.834 545.127 544.461C544.763 544.08 544.299 543.889 543.736 543.889H541.396V547.893H543.736ZM547.764 552.131V542.641H548.622V552.131H547.764ZM555.772 545.631H556.63V552.131H555.772V550.857C555.174 551.81 554.299 552.287 553.146 552.287C552.219 552.287 551.426 551.958 550.767 551.299C550.117 550.64 549.792 549.834 549.792 548.881C549.792 547.928 550.117 547.122 550.767 546.463C551.426 545.804 552.219 545.475 553.146 545.475C554.299 545.475 555.174 545.952 555.772 546.905V545.631ZM551.391 550.714C551.885 551.208 552.492 551.455 553.211 551.455C553.931 551.455 554.537 551.208 555.031 550.714C555.525 550.211 555.772 549.6 555.772 548.881C555.772 548.162 555.525 547.555 555.031 547.061C554.537 546.558 553.931 546.307 553.211 546.307C552.492 546.307 551.885 546.558 551.391 547.061C550.897 547.555 550.65 548.162 550.65 548.881C550.65 549.6 550.897 550.211 551.391 550.714ZM561.632 546.463H559.76V550.402C559.76 550.757 559.829 551.013 559.968 551.169C560.107 551.316 560.315 551.394 560.592 551.403C560.869 551.403 561.216 551.394 561.632 551.377V552.131C560.722 552.27 560.037 552.205 559.578 551.936C559.127 551.667 558.902 551.156 558.902 550.402V546.463H557.537V545.631H558.902V544.071L559.76 543.811V545.631H561.632V546.463ZM565.722 543.707C565.089 543.655 564.617 543.763 564.305 544.032C564.002 544.301 563.85 544.747 563.85 545.371V545.631H565.722V546.463H563.85V552.131H562.992V546.463H561.887V545.631H562.992V545.371C562.992 544.522 563.226 543.88 563.694 543.447C564.171 543.005 564.847 542.814 565.722 542.875V543.707ZM571.43 551.312C570.771 551.962 569.965 552.287 569.012 552.287C568.058 552.287 567.248 551.962 566.581 551.312C565.922 550.653 565.593 549.843 565.593 548.881C565.593 547.919 565.922 547.113 566.581 546.463C567.248 545.804 568.058 545.475 569.012 545.475C569.965 545.475 570.771 545.804 571.43 546.463C572.097 547.113 572.431 547.919 572.431 548.881C572.431 549.843 572.097 550.653 571.43 551.312ZM567.192 550.714C567.686 551.208 568.292 551.455 569.012 551.455C569.731 551.455 570.338 551.208 570.832 550.714C571.326 550.211 571.573 549.6 571.573 548.881C571.573 548.162 571.326 547.555 570.832 547.061C570.338 546.558 569.731 546.307 569.012 546.307C568.292 546.307 567.686 546.558 567.192 547.061C566.698 547.555 566.451 548.162 566.451 548.881C566.451 549.6 566.698 550.211 567.192 550.714ZM574.464 546.71C574.863 545.921 575.548 545.527 576.518 545.527V546.359C575.929 546.359 575.439 546.532 575.049 546.879C574.659 547.226 574.464 547.772 574.464 548.517V552.131H573.606V545.631H574.464V546.71ZM584.363 545.475C585.091 545.475 585.676 545.709 586.118 546.177C586.569 546.645 586.794 547.278 586.794 548.075V552.131H585.936V548.075C585.936 547.512 585.789 547.078 585.494 546.775C585.208 546.463 584.827 546.307 584.35 546.307C583.813 546.307 583.375 546.489 583.037 546.853C582.708 547.208 582.543 547.767 582.543 548.53V552.131H581.685V548.075C581.685 547.503 581.547 547.065 581.269 546.762C581.001 546.459 580.632 546.307 580.164 546.307C579.644 546.307 579.202 546.489 578.838 546.853C578.474 547.217 578.292 547.776 578.292 548.53V552.131H577.434V545.631H578.292V546.58C578.76 545.843 579.423 545.475 580.281 545.475C581.217 545.475 581.876 545.869 582.257 546.658C582.725 545.869 583.427 545.475 584.363 545.475ZM600.011 547.802V548.27C600.011 549.397 599.608 550.35 598.802 551.13C597.996 551.901 596.917 552.287 595.565 552.287C594.187 552.287 593.047 551.832 592.146 550.922C591.244 550.012 590.794 548.898 590.794 547.581C590.794 546.264 591.244 545.15 592.146 544.24C593.047 543.33 594.187 542.875 595.565 542.875C596.405 542.875 597.177 543.079 597.879 543.486C598.581 543.893 599.122 544.435 599.504 545.111L598.698 545.579C598.412 545.024 597.987 544.582 597.424 544.253C596.86 543.924 596.241 543.759 595.565 543.759C594.429 543.759 593.502 544.127 592.783 544.864C592.063 545.601 591.704 546.506 591.704 547.581C591.704 548.656 592.063 549.561 592.783 550.298C593.502 551.035 594.429 551.403 595.565 551.403C596.587 551.403 597.406 551.147 598.022 550.636C598.637 550.116 598.988 549.457 599.075 548.66H595.461V547.802H600.011ZM602.04 546.71C602.438 545.921 603.123 545.527 604.094 545.527V546.359C603.504 546.359 603.015 546.532 602.625 546.879C602.235 547.226 602.04 547.772 602.04 548.517V552.131H601.182V545.631H602.04V546.71ZM610.063 551.312C609.404 551.962 608.598 552.287 607.645 552.287C606.692 552.287 605.881 551.962 605.214 551.312C604.555 550.653 604.226 549.843 604.226 548.881C604.226 547.919 604.555 547.113 605.214 546.463C605.881 545.804 606.692 545.475 607.645 545.475C608.598 545.475 609.404 545.804 610.063 546.463C610.73 547.113 611.064 547.919 611.064 548.881C611.064 549.843 610.73 550.653 610.063 551.312ZM605.825 550.714C606.319 551.208 606.926 551.455 607.645 551.455C608.364 551.455 608.971 551.208 609.465 550.714C609.959 550.211 610.206 549.6 610.206 548.881C610.206 548.162 609.959 547.555 609.465 547.061C608.971 546.558 608.364 546.307 607.645 546.307C606.926 546.307 606.319 546.558 605.825 547.061C605.331 547.555 605.084 548.162 605.084 548.881C605.084 549.6 605.331 550.211 605.825 550.714ZM619.812 545.631H620.696L618.694 552.131H617.758L616.081 546.892L614.404 552.131H613.468L611.466 545.631H612.35L613.949 551.026L615.652 545.631H616.51L618.213 551.026L619.812 545.631ZM625.175 546.463H623.303V550.402C623.303 550.757 623.372 551.013 623.511 551.169C623.649 551.316 623.857 551.394 624.135 551.403C624.412 551.403 624.759 551.394 625.175 551.377V552.131C624.265 552.27 623.58 552.205 623.121 551.936C622.67 551.667 622.445 551.156 622.445 550.402V546.463H621.08V545.631H622.445V544.071L623.303 543.811V545.631H625.175V546.463ZM629.387 545.475C630.175 545.475 630.795 545.718 631.246 546.203C631.705 546.68 631.935 547.325 631.935 548.14V552.131H631.077V548.14C631.077 547.559 630.921 547.109 630.609 546.788C630.305 546.467 629.872 546.307 629.309 546.307C628.685 546.307 628.178 546.506 627.788 546.905C627.398 547.295 627.203 547.902 627.203 548.725V552.131H626.345V543.031H627.203V546.645C627.688 545.865 628.416 545.475 629.387 545.475Z" fill="#C2C2C2"/>
<rect x="109.965" y="578.201" width="10.5861" height="9.46548" fill="url(#paint16_linear)"/>
<path d="M131.21 579.192H126.985V582.546H131.015V583.404H126.985V587.434H126.075V578.334H131.21V579.192ZM137.823 586.615C137.164 587.265 136.358 587.59 135.405 587.59C134.451 587.59 133.641 587.265 132.974 586.615C132.315 585.956 131.986 585.146 131.986 584.184C131.986 583.222 132.315 582.416 132.974 581.766C133.641 581.107 134.451 580.778 135.405 580.778C136.358 580.778 137.164 581.107 137.823 581.766C138.49 582.416 138.824 583.222 138.824 584.184C138.824 585.146 138.49 585.956 137.823 586.615ZM133.585 586.017C134.079 586.511 134.685 586.758 135.405 586.758C136.124 586.758 136.731 586.511 137.225 586.017C137.719 585.514 137.966 584.903 137.966 584.184C137.966 583.464 137.719 582.858 137.225 582.364C136.731 581.861 136.124 581.61 135.405 581.61C134.685 581.61 134.079 581.861 133.585 582.364C133.091 582.858 132.844 583.464 132.844 584.184C132.844 584.903 133.091 585.514 133.585 586.017ZM144.575 580.934H145.433V587.434H144.575V586.42C144.09 587.2 143.362 587.59 142.391 587.59C141.603 587.59 140.979 587.351 140.519 586.875C140.069 586.389 139.843 585.739 139.843 584.925V580.934H140.701V584.925C140.701 585.505 140.853 585.956 141.156 586.277C141.468 586.597 141.906 586.758 142.469 586.758C143.093 586.758 143.6 586.563 143.99 586.173C144.38 585.774 144.575 585.163 144.575 584.34V580.934ZM150.03 580.778C150.819 580.778 151.439 581.02 151.889 581.506C152.349 581.982 152.578 582.628 152.578 583.443V587.434H151.72V583.443C151.72 582.862 151.564 582.411 151.252 582.091C150.949 581.77 150.516 581.61 149.952 581.61C149.328 581.61 148.821 581.809 148.431 582.208C148.041 582.598 147.846 583.204 147.846 584.028V587.434H146.988V580.934H147.846V581.948C148.332 581.168 149.06 580.778 150.03 580.778ZM159.567 578.334H160.425V587.434H159.567V586.16C158.969 587.113 158.094 587.59 156.941 587.59C156.014 587.59 155.221 587.26 154.562 586.602C153.912 585.943 153.587 585.137 153.587 584.184C153.587 583.23 153.912 582.424 154.562 581.766C155.221 581.107 156.014 580.778 156.941 580.778C158.094 580.778 158.969 581.254 159.567 582.208V578.334ZM155.186 586.017C155.68 586.511 156.287 586.758 157.006 586.758C157.726 586.758 158.332 586.511 158.826 586.017C159.32 585.514 159.567 584.903 159.567 584.184C159.567 583.464 159.32 582.858 158.826 582.364C158.332 581.861 157.726 581.61 157.006 581.61C156.287 581.61 155.68 581.861 155.186 582.364C154.692 582.858 154.445 583.464 154.445 584.184C154.445 584.903 154.692 585.514 155.186 586.017ZM167.572 580.934H168.43V587.434H167.572V586.16C166.974 587.113 166.099 587.59 164.946 587.59C164.019 587.59 163.226 587.26 162.567 586.602C161.917 585.943 161.592 585.137 161.592 584.184C161.592 583.23 161.917 582.424 162.567 581.766C163.226 581.107 164.019 580.778 164.946 580.778C166.099 580.778 166.974 581.254 167.572 582.208V580.934ZM163.191 586.017C163.685 586.511 164.292 586.758 165.011 586.758C165.73 586.758 166.337 586.511 166.831 586.017C167.325 585.514 167.572 584.903 167.572 584.184C167.572 583.464 167.325 582.858 166.831 582.364C166.337 581.861 165.73 581.61 165.011 581.61C164.292 581.61 163.685 581.861 163.191 582.364C162.697 582.858 162.45 583.464 162.45 584.184C162.45 584.903 162.697 585.514 163.191 586.017ZM173.432 581.766H171.56V585.705C171.56 586.06 171.629 586.316 171.768 586.472C171.906 586.619 172.114 586.697 172.392 586.706C172.669 586.706 173.016 586.697 173.432 586.68V587.434C172.522 587.572 171.837 587.507 171.378 587.239C170.927 586.97 170.702 586.459 170.702 585.705V581.766H169.337V580.934H170.702V579.374L171.56 579.114V580.934H173.432V581.766ZM175.473 579.374C175.351 579.495 175.204 579.556 175.031 579.556C174.857 579.556 174.71 579.495 174.589 579.374C174.467 579.252 174.407 579.105 174.407 578.932C174.407 578.758 174.467 578.611 174.589 578.49C174.71 578.368 174.857 578.308 175.031 578.308C175.204 578.308 175.351 578.368 175.473 578.49C175.594 578.611 175.655 578.758 175.655 578.932C175.655 579.105 175.594 579.252 175.473 579.374ZM174.602 587.434V580.934H175.46V587.434H174.602ZM182.467 586.615C181.809 587.265 181.003 587.59 180.049 587.59C179.096 587.59 178.286 587.265 177.618 586.615C176.96 585.956 176.63 585.146 176.63 584.184C176.63 583.222 176.96 582.416 177.618 581.766C178.286 581.107 179.096 580.778 180.049 580.778C181.003 580.778 181.809 581.107 182.467 581.766C183.135 582.416 183.468 583.222 183.468 584.184C183.468 585.146 183.135 585.956 182.467 586.615ZM178.229 586.017C178.723 586.511 179.33 586.758 180.049 586.758C180.769 586.758 181.375 586.511 181.869 586.017C182.363 585.514 182.61 584.903 182.61 584.184C182.61 583.464 182.363 582.858 181.869 582.364C181.375 581.861 180.769 581.61 180.049 581.61C179.33 581.61 178.723 581.861 178.229 582.364C177.735 582.858 177.488 583.464 177.488 584.184C177.488 584.903 177.735 585.514 178.229 586.017ZM187.686 580.778C188.475 580.778 189.095 581.02 189.545 581.506C190.005 581.982 190.234 582.628 190.234 583.443V587.434H189.376V583.443C189.376 582.862 189.22 582.411 188.908 582.091C188.605 581.77 188.172 581.61 187.608 581.61C186.984 581.61 186.477 581.809 186.087 582.208C185.697 582.598 185.502 583.204 185.502 584.028V587.434H184.644V580.934H185.502V581.948C185.988 581.168 186.716 580.778 187.686 580.778ZM200.473 578.334V579.192H197.678V587.434H196.768V579.192H193.973V578.334H200.473ZM203.219 580.778C204.181 580.778 204.957 581.12 205.546 581.805C206.144 582.481 206.443 583.282 206.443 584.21C206.443 584.305 206.434 584.439 206.417 584.613H200.71C200.797 585.271 201.074 585.796 201.542 586.186C202.019 586.567 202.604 586.758 203.297 586.758C203.791 586.758 204.216 586.658 204.571 586.459C204.935 586.251 205.208 585.982 205.39 585.653L206.144 586.095C205.858 586.554 205.468 586.918 204.974 587.187C204.48 587.455 203.917 587.59 203.284 587.59C202.261 587.59 201.429 587.269 200.788 586.628C200.147 585.986 199.826 585.172 199.826 584.184C199.826 583.213 200.142 582.403 200.775 581.753C201.408 581.103 202.222 580.778 203.219 580.778ZM203.219 581.61C202.543 581.61 201.975 581.813 201.516 582.221C201.065 582.619 200.797 583.139 200.71 583.781H205.559C205.472 583.096 205.208 582.563 204.766 582.182C204.324 581.8 203.808 581.61 203.219 581.61ZM213.138 580.934H213.996V587.434H213.138V586.16C212.54 587.113 211.664 587.59 210.512 587.59C209.584 587.59 208.791 587.26 208.133 586.602C207.483 585.943 207.158 585.137 207.158 584.184C207.158 583.23 207.483 582.424 208.133 581.766C208.791 581.107 209.584 580.778 210.512 580.778C211.664 580.778 212.54 581.254 213.138 582.208V580.934ZM208.757 586.017C209.251 586.511 209.857 586.758 210.577 586.758C211.296 586.758 211.903 586.511 212.397 586.017C212.891 585.514 213.138 584.903 213.138 584.184C213.138 583.464 212.891 582.858 212.397 582.364C211.903 581.861 211.296 581.61 210.577 581.61C209.857 581.61 209.251 581.861 208.757 582.364C208.263 582.858 208.016 583.464 208.016 584.184C208.016 584.903 208.263 585.514 208.757 586.017ZM222.481 580.778C223.209 580.778 223.794 581.012 224.236 581.48C224.687 581.948 224.912 582.58 224.912 583.378V587.434H224.054V583.378C224.054 582.814 223.907 582.381 223.612 582.078C223.326 581.766 222.945 581.61 222.468 581.61C221.931 581.61 221.493 581.792 221.155 582.156C220.826 582.511 220.661 583.07 220.661 583.833V587.434H219.803V583.378C219.803 582.806 219.665 582.368 219.387 582.065C219.119 581.761 218.75 581.61 218.282 581.61C217.762 581.61 217.32 581.792 216.956 582.156C216.592 582.52 216.41 583.079 216.41 583.833V587.434H215.552V580.934H216.41V581.883C216.878 581.146 217.541 580.778 218.399 580.778C219.335 580.778 219.994 581.172 220.375 581.961C220.843 581.172 221.545 580.778 222.481 580.778Z" fill="#C2C2C2"/>
<rect x="254.113" y="578.201" width="10.5861" height="9.46548" fill="url(#paint17_linear)"/>
<path d="M273.083 587.59C272.251 587.59 271.536 587.395 270.938 587.005C270.349 586.606 269.937 586.06 269.703 585.367L270.483 584.912C270.648 585.475 270.951 585.917 271.393 586.238C271.835 586.55 272.403 586.706 273.096 586.706C273.772 586.706 274.296 586.558 274.669 586.264C275.051 585.96 275.241 585.562 275.241 585.068C275.241 584.591 275.068 584.231 274.721 583.989C274.375 583.746 273.802 583.495 273.005 583.235C272.06 582.923 271.436 582.671 271.133 582.481C270.44 582.065 270.093 581.462 270.093 580.674C270.093 579.902 270.362 579.296 270.899 578.854C271.436 578.403 272.1 578.178 272.888 578.178C273.599 578.178 274.214 578.364 274.734 578.737C275.254 579.101 275.64 579.569 275.891 580.141L275.124 580.57C274.708 579.564 273.963 579.062 272.888 579.062C272.325 579.062 271.87 579.2 271.523 579.478C271.176 579.755 271.003 580.141 271.003 580.635C271.003 581.085 271.159 581.423 271.471 581.649C271.783 581.874 272.299 582.104 273.018 582.338C273.347 582.45 273.581 582.533 273.72 582.585C273.868 582.628 274.076 582.706 274.344 582.819C274.622 582.923 274.825 583.018 274.955 583.105C275.085 583.183 275.241 583.295 275.423 583.443C275.614 583.581 275.748 583.724 275.826 583.872C275.913 584.01 275.987 584.184 276.047 584.392C276.116 584.591 276.151 584.808 276.151 585.042C276.151 585.813 275.87 586.433 275.306 586.901C274.743 587.36 274.002 587.59 273.083 587.59ZM280.578 581.766H278.706V585.705C278.706 586.06 278.775 586.316 278.914 586.472C279.053 586.619 279.261 586.697 279.538 586.706C279.815 586.706 280.162 586.697 280.578 586.68V587.434C279.668 587.572 278.983 587.507 278.524 587.239C278.073 586.97 277.848 586.459 277.848 585.705V581.766H276.483V580.934H277.848V579.374L278.706 579.114V580.934H280.578V581.766ZM282.606 582.013C283.005 581.224 283.689 580.83 284.66 580.83V581.662C284.071 581.662 283.581 581.835 283.191 582.182C282.801 582.528 282.606 583.074 282.606 583.82V587.434H281.748V580.934H282.606V582.013ZM290.772 580.934H291.63V587.434H290.772V586.16C290.174 587.113 289.299 587.59 288.146 587.59C287.219 587.59 286.426 587.26 285.767 586.602C285.117 585.943 284.792 585.137 284.792 584.184C284.792 583.23 285.117 582.424 285.767 581.766C286.426 581.107 287.219 580.778 288.146 580.778C289.299 580.778 290.174 581.254 290.772 582.208V580.934ZM286.391 586.017C286.885 586.511 287.492 586.758 288.211 586.758C288.931 586.758 289.537 586.511 290.031 586.017C290.525 585.514 290.772 584.903 290.772 584.184C290.772 583.464 290.525 582.858 290.031 582.364C289.537 581.861 288.931 581.61 288.211 581.61C287.492 581.61 286.885 581.861 286.391 582.364C285.897 582.858 285.65 583.464 285.65 584.184C285.65 584.903 285.897 585.514 286.391 586.017ZM296.632 581.766H294.76V585.705C294.76 586.06 294.829 586.316 294.968 586.472C295.107 586.619 295.315 586.697 295.592 586.706C295.869 586.706 296.216 586.697 296.632 586.68V587.434C295.722 587.572 295.037 587.507 294.578 587.239C294.127 586.97 293.902 586.459 293.902 585.705V581.766H292.537V580.934H293.902V579.374L294.76 579.114V580.934H296.632V581.766ZM300.411 580.778C301.373 580.778 302.149 581.12 302.738 581.805C303.336 582.481 303.635 583.282 303.635 584.21C303.635 584.305 303.627 584.439 303.609 584.613H297.902C297.989 585.271 298.266 585.796 298.734 586.186C299.211 586.567 299.796 586.758 300.489 586.758C300.983 586.758 301.408 586.658 301.763 586.459C302.127 586.251 302.4 585.982 302.582 585.653L303.336 586.095C303.05 586.554 302.66 586.918 302.166 587.187C301.672 587.455 301.109 587.59 300.476 587.59C299.454 587.59 298.622 587.269 297.98 586.628C297.339 585.986 297.018 585.172 297.018 584.184C297.018 583.213 297.335 582.403 297.967 581.753C298.6 581.103 299.415 580.778 300.411 580.778ZM300.411 581.61C299.735 581.61 299.168 581.813 298.708 582.221C298.258 582.619 297.989 583.139 297.902 583.781H302.751C302.665 583.096 302.4 582.563 301.958 582.182C301.516 581.8 301.001 581.61 300.411 581.61ZM310.33 580.934H311.188V587.174C311.188 588.11 310.868 588.846 310.226 589.384C309.585 589.921 308.818 590.19 307.925 590.19C306.4 590.19 305.373 589.661 304.844 588.604L305.598 588.175C305.988 588.963 306.764 589.358 307.925 589.358C308.671 589.358 309.256 589.158 309.68 588.76C310.114 588.37 310.33 587.841 310.33 587.174V586.16C309.732 587.113 308.857 587.59 307.704 587.59C306.777 587.59 305.984 587.26 305.325 586.602C304.675 585.943 304.35 585.137 304.35 584.184C304.35 583.23 304.675 582.424 305.325 581.766C305.984 581.107 306.777 580.778 307.704 580.778C308.857 580.778 309.732 581.254 310.33 582.208V580.934ZM305.949 586.017C306.443 586.511 307.05 586.758 307.769 586.758C308.489 586.758 309.095 586.511 309.589 586.017C310.083 585.514 310.33 584.903 310.33 584.184C310.33 583.464 310.083 582.858 309.589 582.364C309.095 581.861 308.489 581.61 307.769 581.61C307.05 581.61 306.443 581.861 305.949 582.364C305.455 582.858 305.208 583.464 305.208 584.184C305.208 584.903 305.455 585.514 305.949 586.017ZM313.616 579.374C313.495 579.495 313.347 579.556 313.174 579.556C313.001 579.556 312.853 579.495 312.732 579.374C312.611 579.252 312.55 579.105 312.55 578.932C312.55 578.758 312.611 578.611 312.732 578.49C312.853 578.368 313.001 578.308 313.174 578.308C313.347 578.308 313.495 578.368 313.616 578.49C313.737 578.611 313.798 578.758 313.798 578.932C313.798 579.105 313.737 579.252 313.616 579.374ZM312.745 587.434V580.934H313.603V587.434H312.745ZM318.193 587.59C317.213 587.59 316.399 587.265 315.749 586.615C315.099 585.956 314.774 585.146 314.774 584.184C314.774 583.222 315.099 582.416 315.749 581.766C316.399 581.107 317.213 580.778 318.193 580.778C318.834 580.778 319.41 580.934 319.922 581.246C320.433 581.549 320.806 581.961 321.04 582.481L320.338 582.884C320.164 582.494 319.883 582.186 319.493 581.961C319.111 581.727 318.678 581.61 318.193 581.61C317.473 581.61 316.867 581.861 316.373 582.364C315.879 582.858 315.632 583.464 315.632 584.184C315.632 584.903 315.879 585.514 316.373 586.017C316.867 586.511 317.473 586.758 318.193 586.758C318.678 586.758 319.111 586.645 319.493 586.42C319.874 586.186 320.173 585.874 320.39 585.484L321.105 585.9C320.836 586.42 320.442 586.831 319.922 587.135C319.402 587.438 318.825 587.59 318.193 587.59ZM328.446 578.334C329.261 578.334 329.941 578.607 330.487 579.153C331.033 579.699 331.306 580.379 331.306 581.194C331.306 582.008 331.033 582.689 330.487 583.235C329.941 583.781 329.261 584.054 328.446 584.054H326.106V587.434H325.196V578.334H328.446ZM328.446 583.196C329.01 583.196 329.473 583.009 329.837 582.637C330.21 582.255 330.396 581.774 330.396 581.194C330.396 580.613 330.21 580.136 329.837 579.764C329.473 579.382 329.01 579.192 328.446 579.192H326.106V583.196H328.446ZM337.544 580.934H338.402V587.434H337.544V586.16C336.946 587.113 336.071 587.59 334.918 587.59C333.991 587.59 333.198 587.26 332.539 586.602C331.889 585.943 331.564 585.137 331.564 584.184C331.564 583.23 331.889 582.424 332.539 581.766C333.198 581.107 333.991 580.778 334.918 580.778C336.071 580.778 336.946 581.254 337.544 582.208V580.934ZM333.163 586.017C333.657 586.511 334.264 586.758 334.983 586.758C335.702 586.758 336.309 586.511 336.803 586.017C337.297 585.514 337.544 584.903 337.544 584.184C337.544 583.464 337.297 582.858 336.803 582.364C336.309 581.861 335.702 581.61 334.983 581.61C334.264 581.61 333.657 581.861 333.163 582.364C332.669 582.858 332.422 583.464 332.422 584.184C332.422 584.903 332.669 585.514 333.163 586.017ZM340.817 582.013C341.215 581.224 341.9 580.83 342.871 580.83V581.662C342.281 581.662 341.792 581.835 341.402 582.182C341.012 582.528 340.817 583.074 340.817 583.82V587.434H339.959V580.934H340.817V582.013ZM347.358 581.766H345.486V585.705C345.486 586.06 345.556 586.316 345.694 586.472C345.833 586.619 346.041 586.697 346.318 586.706C346.596 586.706 346.942 586.697 347.358 586.68V587.434C346.448 587.572 345.764 587.507 345.304 587.239C344.854 586.97 344.628 586.459 344.628 585.705V581.766H343.263V580.934H344.628V579.374L345.486 579.114V580.934H347.358V581.766ZM351.57 580.778C352.359 580.778 352.979 581.02 353.429 581.506C353.889 581.982 354.118 582.628 354.118 583.443V587.434H353.26V583.443C353.26 582.862 353.104 582.411 352.792 582.091C352.489 581.77 352.056 581.61 351.492 581.61C350.868 581.61 350.361 581.809 349.971 582.208C349.581 582.598 349.386 583.204 349.386 584.028V587.434H348.528V580.934H349.386V581.948C349.872 581.168 350.6 580.778 351.57 580.778ZM358.52 580.778C359.482 580.778 360.258 581.12 360.847 581.805C361.445 582.481 361.744 583.282 361.744 584.21C361.744 584.305 361.736 584.439 361.718 584.613H356.011C356.098 585.271 356.375 585.796 356.843 586.186C357.32 586.567 357.905 586.758 358.598 586.758C359.092 586.758 359.517 586.658 359.872 586.459C360.236 586.251 360.509 585.982 360.691 585.653L361.445 586.095C361.159 586.554 360.769 586.918 360.275 587.187C359.781 587.455 359.218 587.59 358.585 587.59C357.563 587.59 356.731 587.269 356.089 586.628C355.448 585.986 355.127 585.172 355.127 584.184C355.127 583.213 355.444 582.403 356.076 581.753C356.709 581.103 357.524 580.778 358.52 580.778ZM358.52 581.61C357.844 581.61 357.277 581.813 356.817 582.221C356.367 582.619 356.098 583.139 356.011 583.781H360.86C360.774 583.096 360.509 582.563 360.067 582.182C359.625 581.8 359.11 581.61 358.52 581.61ZM363.707 582.013C364.106 581.224 364.791 580.83 365.761 580.83V581.662C365.172 581.662 364.682 581.835 364.292 582.182C363.902 582.528 363.707 583.074 363.707 583.82V587.434H362.849V580.934H363.707V582.013ZM367.099 582.637C367.099 582.931 367.229 583.165 367.489 583.339C367.749 583.512 368.066 583.646 368.438 583.742C368.811 583.837 369.184 583.945 369.556 584.067C369.929 584.179 370.245 584.374 370.505 584.652C370.765 584.92 370.895 585.276 370.895 585.718C370.895 586.272 370.674 586.723 370.232 587.07C369.799 587.416 369.236 587.59 368.542 587.59C367.918 587.59 367.385 587.451 366.943 587.174C366.51 586.896 366.207 586.537 366.033 586.095L366.761 585.666C366.883 586.004 367.099 586.272 367.411 586.472C367.732 586.662 368.109 586.758 368.542 586.758C368.967 586.758 369.322 586.675 369.608 586.511C369.894 586.337 370.037 586.073 370.037 585.718C370.037 585.423 369.907 585.189 369.647 585.016C369.387 584.842 369.071 584.708 368.698 584.613C368.326 584.517 367.953 584.413 367.58 584.301C367.208 584.179 366.891 583.984 366.631 583.716C366.371 583.438 366.241 583.079 366.241 582.637C366.241 582.108 366.449 581.666 366.865 581.311C367.29 580.955 367.823 580.778 368.464 580.778C368.993 580.778 369.457 580.899 369.855 581.142C370.254 581.376 370.549 581.696 370.739 582.104L370.024 582.52C369.773 581.913 369.253 581.61 368.464 581.61C368.092 581.61 367.771 581.701 367.502 581.883C367.234 582.056 367.099 582.307 367.099 582.637Z" fill="#C2C2C2"/>
<rect x="405.745" y="578.201" width="10.5861" height="9.46548" fill="url(#paint18_linear)"/>
<path d="M427.913 587.434L427.068 585.198H422.752L421.907 587.434H420.945L424.442 578.334H425.378L428.875 587.434H427.913ZM423.077 584.34H426.743L424.91 579.465L423.077 584.34ZM435.117 578.334H435.975V587.434H435.117V586.16C434.519 587.113 433.643 587.59 432.491 587.59C431.563 587.59 430.77 587.26 430.112 586.602C429.462 585.943 429.137 585.137 429.137 584.184C429.137 583.23 429.462 582.424 430.112 581.766C430.77 581.107 431.563 580.778 432.491 580.778C433.643 580.778 434.519 581.254 435.117 582.208V578.334ZM430.736 586.017C431.23 586.511 431.836 586.758 432.556 586.758C433.275 586.758 433.882 586.511 434.376 586.017C434.87 585.514 435.117 584.903 435.117 584.184C435.117 583.464 434.87 582.858 434.376 582.364C433.882 581.861 433.275 581.61 432.556 581.61C431.836 581.61 431.23 581.861 430.736 582.364C430.242 582.858 429.995 583.464 429.995 584.184C429.995 584.903 430.242 585.514 430.736 586.017ZM442.211 580.934H443.121L440.456 587.434H439.416L436.751 580.934H437.661L439.936 586.537L442.211 580.934ZM444.769 579.374C444.648 579.495 444.5 579.556 444.327 579.556C444.154 579.556 444.006 579.495 443.885 579.374C443.764 579.252 443.703 579.105 443.703 578.932C443.703 578.758 443.764 578.611 443.885 578.49C444.006 578.368 444.154 578.308 444.327 578.308C444.5 578.308 444.648 578.368 444.769 578.49C444.89 578.611 444.951 578.758 444.951 578.932C444.951 579.105 444.89 579.252 444.769 579.374ZM443.898 587.434V580.934H444.756V587.434H443.898ZM446.993 582.637C446.993 582.931 447.123 583.165 447.383 583.339C447.643 583.512 447.959 583.646 448.332 583.742C448.705 583.837 449.077 583.945 449.45 584.067C449.823 584.179 450.139 584.374 450.399 584.652C450.659 584.92 450.789 585.276 450.789 585.718C450.789 586.272 450.568 586.723 450.126 587.07C449.693 587.416 449.129 587.59 448.436 587.59C447.812 587.59 447.279 587.451 446.837 587.174C446.404 586.896 446.1 586.537 445.927 586.095L446.655 585.666C446.776 586.004 446.993 586.272 447.305 586.472C447.626 586.662 448.003 586.758 448.436 586.758C448.861 586.758 449.216 586.675 449.502 586.511C449.788 586.337 449.931 586.073 449.931 585.718C449.931 585.423 449.801 585.189 449.541 585.016C449.281 584.842 448.965 584.708 448.592 584.613C448.219 584.517 447.847 584.413 447.474 584.301C447.101 584.179 446.785 583.984 446.525 583.716C446.265 583.438 446.135 583.079 446.135 582.637C446.135 582.108 446.343 581.666 446.759 581.311C447.184 580.955 447.717 580.778 448.358 580.778C448.887 580.778 449.35 580.899 449.749 581.142C450.148 581.376 450.442 581.696 450.633 582.104L449.918 582.52C449.667 581.913 449.147 581.61 448.358 581.61C447.985 581.61 447.665 581.701 447.396 581.883C447.127 582.056 446.993 582.307 446.993 582.637ZM457.217 586.615C456.558 587.265 455.752 587.59 454.799 587.59C453.845 587.59 453.035 587.265 452.368 586.615C451.709 585.956 451.38 585.146 451.38 584.184C451.38 583.222 451.709 582.416 452.368 581.766C453.035 581.107 453.845 580.778 454.799 580.778C455.752 580.778 456.558 581.107 457.217 581.766C457.884 582.416 458.218 583.222 458.218 584.184C458.218 585.146 457.884 585.956 457.217 586.615ZM452.979 586.017C453.473 586.511 454.079 586.758 454.799 586.758C455.518 586.758 456.125 586.511 456.619 586.017C457.113 585.514 457.36 584.903 457.36 584.184C457.36 583.464 457.113 582.858 456.619 582.364C456.125 581.861 455.518 581.61 454.799 581.61C454.079 581.61 453.473 581.861 452.979 582.364C452.485 582.858 452.238 583.464 452.238 584.184C452.238 584.903 452.485 585.514 452.979 586.017ZM460.252 582.013C460.65 581.224 461.335 580.83 462.306 580.83V581.662C461.716 581.662 461.227 581.835 460.837 582.182C460.447 582.528 460.252 583.074 460.252 583.82V587.434H459.394V580.934H460.252V582.013ZM463.644 582.637C463.644 582.931 463.774 583.165 464.034 583.339C464.294 583.512 464.61 583.646 464.983 583.742C465.355 583.837 465.728 583.945 466.101 584.067C466.473 584.179 466.79 584.374 467.05 584.652C467.31 584.92 467.44 585.276 467.44 585.718C467.44 586.272 467.219 586.723 466.777 587.07C466.343 587.416 465.78 587.59 465.087 587.59C464.463 587.59 463.93 587.451 463.488 587.174C463.054 586.896 462.751 586.537 462.578 586.095L463.306 585.666C463.427 586.004 463.644 586.272 463.956 586.472C464.276 586.662 464.653 586.758 465.087 586.758C465.511 586.758 465.867 586.675 466.153 586.511C466.439 586.337 466.582 586.073 466.582 585.718C466.582 585.423 466.452 585.189 466.192 585.016C465.932 584.842 465.615 584.708 465.243 584.613C464.87 584.517 464.497 584.413 464.125 584.301C463.752 584.179 463.436 583.984 463.176 583.716C462.916 583.438 462.786 583.079 462.786 582.637C462.786 582.108 462.994 581.666 463.41 581.311C463.834 580.955 464.367 580.778 465.009 580.778C465.537 580.778 466.001 580.899 466.4 581.142C466.798 581.376 467.093 581.696 467.284 582.104L466.569 582.52C466.317 581.913 465.797 581.61 465.009 581.61C464.636 581.61 464.315 581.701 464.047 581.883C463.778 582.056 463.644 582.307 463.644 582.637Z" fill="#C2C2C2"/>
<rect x="524.375" y="578.201" width="10.5861" height="9.46548" fill="url(#paint19_linear)"/>
<path d="M544.737 587.59C543.359 587.59 542.219 587.135 541.318 586.225C540.416 585.315 539.966 584.201 539.966 582.884C539.966 581.566 540.416 580.453 541.318 579.543C542.219 578.633 543.359 578.178 544.737 578.178C545.577 578.178 546.349 578.381 547.051 578.789C547.753 579.187 548.294 579.729 548.676 580.414L547.87 580.882C547.584 580.327 547.159 579.885 546.596 579.556C546.032 579.226 545.413 579.062 544.737 579.062C543.601 579.062 542.674 579.43 541.955 580.167C541.235 580.903 540.876 581.809 540.876 582.884C540.876 583.958 541.235 584.864 541.955 585.601C542.674 586.337 543.601 586.706 544.737 586.706C545.413 586.706 546.032 586.541 546.596 586.212C547.159 585.882 547.584 585.44 547.87 584.886L548.676 585.341C548.303 586.025 547.761 586.571 547.051 586.979C546.349 587.386 545.577 587.59 544.737 587.59ZM555.166 586.615C554.507 587.265 553.701 587.59 552.748 587.59C551.794 587.59 550.984 587.265 550.317 586.615C549.658 585.956 549.329 585.146 549.329 584.184C549.329 583.222 549.658 582.416 550.317 581.766C550.984 581.107 551.794 580.778 552.748 580.778C553.701 580.778 554.507 581.107 555.166 581.766C555.833 582.416 556.167 583.222 556.167 584.184C556.167 585.146 555.833 585.956 555.166 586.615ZM550.928 586.017C551.422 586.511 552.028 586.758 552.748 586.758C553.467 586.758 554.074 586.511 554.568 586.017C555.062 585.514 555.309 584.903 555.309 584.184C555.309 583.464 555.062 582.858 554.568 582.364C554.074 581.861 553.467 581.61 552.748 581.61C552.028 581.61 551.422 581.861 550.928 582.364C550.434 582.858 550.187 583.464 550.187 584.184C550.187 584.903 550.434 585.514 550.928 586.017ZM564.272 580.778C565 580.778 565.585 581.012 566.027 581.48C566.477 581.948 566.703 582.58 566.703 583.378V587.434H565.845V583.378C565.845 582.814 565.697 582.381 565.403 582.078C565.117 581.766 564.735 581.61 564.259 581.61C563.721 581.61 563.284 581.792 562.946 582.156C562.616 582.511 562.452 583.07 562.452 583.833V587.434H561.594V583.378C561.594 582.806 561.455 582.368 561.178 582.065C560.909 581.761 560.541 581.61 560.073 581.61C559.553 581.61 559.111 581.792 558.747 582.156C558.383 582.52 558.201 583.079 558.201 583.833V587.434H557.343V580.934H558.201V581.883C558.669 581.146 559.332 580.778 560.19 580.778C561.126 580.778 561.784 581.172 562.166 581.961C562.634 581.172 563.336 580.778 564.272 580.778ZM575.031 580.778C575.759 580.778 576.344 581.012 576.786 581.48C577.237 581.948 577.462 582.58 577.462 583.378V587.434H576.604V583.378C576.604 582.814 576.457 582.381 576.162 582.078C575.876 581.766 575.495 581.61 575.018 581.61C574.481 581.61 574.043 581.792 573.705 582.156C573.376 582.511 573.211 583.07 573.211 583.833V587.434H572.353V583.378C572.353 582.806 572.214 582.368 571.937 582.065C571.668 581.761 571.3 581.61 570.832 581.61C570.312 581.61 569.87 581.792 569.506 582.156C569.142 582.52 568.96 583.079 568.96 583.833V587.434H568.102V580.934H568.96V581.883C569.428 581.146 570.091 580.778 570.949 580.778C571.885 580.778 572.544 581.172 572.925 581.961C573.393 581.172 574.095 580.778 575.031 580.778ZM583.438 580.934H584.296V587.434H583.438V586.42C582.952 587.2 582.224 587.59 581.254 587.59C580.465 587.59 579.841 587.351 579.382 586.875C578.931 586.389 578.706 585.739 578.706 584.925V580.934H579.564V584.925C579.564 585.505 579.715 585.956 580.019 586.277C580.331 586.597 580.768 586.758 581.332 586.758C581.956 586.758 582.463 586.563 582.853 586.173C583.243 585.774 583.438 585.163 583.438 584.34V580.934ZM588.893 580.778C589.681 580.778 590.301 581.02 590.752 581.506C591.211 581.982 591.441 582.628 591.441 583.443V587.434H590.583V583.443C590.583 582.862 590.427 582.411 590.115 582.091C589.811 581.77 589.378 581.61 588.815 581.61C588.191 581.61 587.684 581.809 587.294 582.208C586.904 582.598 586.709 583.204 586.709 584.028V587.434H585.851V580.934H586.709V581.948C587.194 581.168 587.922 580.778 588.893 580.778ZM593.711 579.374C593.589 579.495 593.442 579.556 593.269 579.556C593.095 579.556 592.948 579.495 592.827 579.374C592.705 579.252 592.645 579.105 592.645 578.932C592.645 578.758 592.705 578.611 592.827 578.49C592.948 578.368 593.095 578.308 593.269 578.308C593.442 578.308 593.589 578.368 593.711 578.49C593.832 578.611 593.893 578.758 593.893 578.932C593.893 579.105 593.832 579.252 593.711 579.374ZM592.84 587.434V580.934H593.698V587.434H592.84ZM598.703 581.766H596.831V585.705C596.831 586.06 596.901 586.316 597.039 586.472C597.178 586.619 597.386 586.697 597.663 586.706C597.941 586.706 598.287 586.697 598.703 586.68V587.434C597.793 587.572 597.109 587.507 596.649 587.239C596.199 586.97 595.973 586.459 595.973 585.705V581.766H594.608V580.934H595.973V579.374L596.831 579.114V580.934H598.703V581.766ZM604.68 580.934H605.59L602.808 588.032C602.557 588.673 602.197 589.176 601.729 589.54C601.27 589.912 600.754 590.077 600.182 590.034V589.228C600.962 589.314 601.556 588.864 601.963 587.876L602.132 587.473L599.22 580.934H600.13L602.574 586.381L604.68 580.934ZM615.077 587.434L612.945 583.794H610.397V587.434H609.487V578.334H613.127C613.881 578.334 614.523 578.602 615.051 579.14C615.589 579.668 615.857 580.31 615.857 581.064C615.857 581.679 615.671 582.229 615.298 582.715C614.934 583.191 614.466 583.512 613.894 583.677L616.117 587.434H615.077ZM610.397 579.192V582.936H613.127C613.63 582.936 614.059 582.754 614.414 582.39C614.77 582.017 614.947 581.575 614.947 581.064C614.947 580.544 614.77 580.102 614.414 579.738C614.059 579.374 613.63 579.192 613.127 579.192H610.397ZM619.705 580.778C620.667 580.778 621.442 581.12 622.032 581.805C622.63 582.481 622.929 583.282 622.929 584.21C622.929 584.305 622.92 584.439 622.903 584.613H617.196C617.282 585.271 617.56 585.796 618.028 586.186C618.504 586.567 619.089 586.758 619.783 586.758C620.277 586.758 620.701 586.658 621.057 586.459C621.421 586.251 621.694 585.982 621.876 585.653L622.63 586.095C622.344 586.554 621.954 586.918 621.46 587.187C620.966 587.455 620.402 587.59 619.77 587.59C618.747 587.59 617.915 587.269 617.274 586.628C616.632 585.986 616.312 585.172 616.312 584.184C616.312 583.213 616.628 582.403 617.261 581.753C617.893 581.103 618.708 580.778 619.705 580.778ZM619.705 581.61C619.029 581.61 618.461 581.813 618.002 582.221C617.551 582.619 617.282 583.139 617.196 583.781H622.045C621.958 583.096 621.694 582.563 621.252 582.182C620.81 581.8 620.294 581.61 619.705 581.61ZM631.606 580.934H632.49L630.488 587.434H629.552L627.875 582.195L626.198 587.434H625.262L623.26 580.934H624.144L625.743 586.329L627.446 580.934H628.304L630.007 586.329L631.606 580.934ZM638.86 580.934H639.718V587.434H638.86V586.16C638.262 587.113 637.386 587.59 636.234 587.59C635.306 587.59 634.513 587.26 633.855 586.602C633.205 585.943 632.88 585.137 632.88 584.184C632.88 583.23 633.205 582.424 633.855 581.766C634.513 581.107 635.306 580.778 636.234 580.778C637.386 580.778 638.262 581.254 638.86 582.208V580.934ZM634.479 586.017C634.973 586.511 635.579 586.758 636.299 586.758C637.018 586.758 637.625 586.511 638.119 586.017C638.613 585.514 638.86 584.903 638.86 584.184C638.86 583.464 638.613 582.858 638.119 582.364C637.625 581.861 637.018 581.61 636.299 581.61C635.579 581.61 634.973 581.861 634.479 582.364C633.985 582.858 633.738 583.464 633.738 584.184C633.738 584.903 633.985 585.514 634.479 586.017ZM642.132 582.013C642.531 581.224 643.216 580.83 644.186 580.83V581.662C643.597 581.662 643.107 581.835 642.717 582.182C642.327 582.528 642.132 583.074 642.132 583.82V587.434H641.274V580.934H642.132V582.013ZM650.299 578.334H651.157V587.434H650.299V586.16C649.701 587.113 648.825 587.59 647.673 587.59C646.745 587.59 645.952 587.26 645.294 586.602C644.644 585.943 644.319 585.137 644.319 584.184C644.319 583.23 644.644 582.424 645.294 581.766C645.952 581.107 646.745 580.778 647.673 580.778C648.825 580.778 649.701 581.254 650.299 582.208V578.334ZM645.918 586.017C646.412 586.511 647.018 586.758 647.738 586.758C648.457 586.758 649.064 586.511 649.558 586.017C650.052 585.514 650.299 584.903 650.299 584.184C650.299 583.464 650.052 582.858 649.558 582.364C649.064 581.861 648.457 581.61 647.738 581.61C647.018 581.61 646.412 581.861 645.918 582.364C645.424 582.858 645.177 583.464 645.177 584.184C645.177 584.903 645.424 585.514 645.918 586.017Z" fill="#C2C2C2"/>
<defs>
<filter id="filter0_d" x="0.642822" y="0" width="789.79" height="711.431" filterUnits="userSpaceOnUse" color-interpolation-filters="sRGB">
<feFlood flood-opacity="0" result="BackgroundImageFix"/>
<feColorMatrix in="SourceAlpha" type="matrix" values="0 0 0 0 0 0 0 0 0 0 0 0 0 0 0 0 0 0 127 0"/>
<feOffset dy="5"/>
<feGaussianBlur stdDeviation="38.5"/>
<feColorMatrix type="matrix" values="0 0 0 0 0.0261785 0 0 0 0 0.0247569 0 0 0 0 0.0958333 0 0 0 0.86 0"/>
<feBlend mode="normal" in2="BackgroundImageFix" result="effect1_dropShadow"/>
<feBlend mode="normal" in="SourceGraphic" in2="effect1_dropShadow" result="shape"/>
</filter>
<radialGradient id="paint0_radial" cx="0" cy="0" r="1" gradientUnits="userSpaceOnUse" gradientTransform="translate(767.009 -12.2041) rotate(142.113) scale(704.54 943.438)">
<stop stop-color="#AF0074" stop-opacity="0.19"/>
<stop offset="1" stop-color="#060431"/>
</radialGradient>
<linearGradient id="paint1_linear" x1="247.792" y1="329.695" x2="224.229" y2="332.393" gradientUnits="userSpaceOnUse">
<stop stop-color="#D01240"/>
<stop offset="1" stop-color="#D85086"/>
</linearGradient>
<linearGradient id="paint2_linear" x1="369.971" y1="324.398" x2="410.344" y2="329.627" gradientUnits="userSpaceOnUse">
<stop stop-color="#0B3A82" stop-opacity="0.31"/>
<stop offset="1" stop-color="#1A779E" stop-opacity="0.65"/>
</linearGradient>
<linearGradient id="paint3_linear" x1="373.879" y1="335.636" x2="383.024" y2="335.992" gradientUnits="userSpaceOnUse">
<stop stop-color="#0B3A82"/>
<stop offset="1" stop-color="#43A7D2" stop-opacity="0.65"/>
</linearGradient>
<linearGradient id="paint4_linear" x1="629" y1="224" x2="629" y2="486" gradientUnits="userSpaceOnUse">
<stop stop-color="#EFBD07"/>
<stop offset="1" stop-color="#BBA84B"/>
</linearGradient>
<linearGradient id="paint5_linear" x1="629" y1="234.099" x2="629" y2="486" gradientUnits="userSpaceOnUse">
<stop stop-color="#EFBD07"/>
<stop offset="1" stop-color="#BBA84B"/>
</linearGradient>
<linearGradient id="paint6_linear" x1="429.327" y1="325.988" x2="462.321" y2="493.239" gradientUnits="userSpaceOnUse">
<stop stop-color="#309A04" stop-opacity="0.37"/>
<stop offset="1" stop-color="#93EB23" stop-opacity="0.47"/>
</linearGradient>
<linearGradient id="paint7_linear" x1="435.24" y1="332.892" x2="509.443" y2="453.502" gradientUnits="userSpaceOnUse">
<stop stop-color="#309A04"/>
<stop offset="1" stop-color="#93EB23"/>
</linearGradient>
<linearGradient id="paint8_linear" x1="498.795" y1="434" x2="520.875" y2="485.32" gradientUnits="userSpaceOnUse">
<stop stop-color="#16131D"/>
<stop offset="1" stop-color="#3E384A"/>
</linearGradient>
<linearGradient id="paint9_linear" x1="500.336" y1="438.473" x2="527.21" y2="458.269" gradientUnits="userSpaceOnUse">
<stop stop-color="#58555C"/>
<stop offset="0.524816" stop-color="#45424B"/>
<stop offset="1" stop-color="#36343A"/>
</linearGradient>
<linearGradient id="paint10_linear" x1="565.286" y1="466" x2="565.286" y2="486" gradientUnits="userSpaceOnUse">
<stop stop-color="#23EFEF"/>
<stop offset="1" stop-color="#1B9EC8"/>
</linearGradient>
<linearGradient id="paint11_linear" x1="565.286" y1="470.586" x2="565.286" y2="486" gradientUnits="userSpaceOnUse">
<stop stop-color="#23EFEF"/>
<stop offset="1" stop-color="#1B9EC8"/>
</linearGradient>
<linearGradient id="paint12_linear" x1="310.697" y1="463.547" x2="321.538" y2="476.584" gradientUnits="userSpaceOnUse">
<stop stop-color="#2C28DB"/>
<stop offset="1" stop-color="#D40CD8" stop-opacity="0.69"/>
</linearGradient>
<linearGradient id="paint13_linear" x1="261.586" y1="544.472" x2="259.822" y2="552.455" gradientUnits="userSpaceOnUse">
<stop stop-color="#D01240"/>
<stop offset="1" stop-color="#D85086"/>
</linearGradient>
<linearGradient id="paint14_linear" x1="411.58" y1="545.936" x2="412.313" y2="552.163" gradientUnits="userSpaceOnUse">
<stop stop-color="#2C28DB"/>
<stop offset="1" stop-color="#D40CD8" stop-opacity="0.69"/>
</linearGradient>
<linearGradient id="paint15_linear" x1="529.135" y1="547.271" x2="532.034" y2="554.002" gradientUnits="userSpaceOnUse">
<stop stop-color="#0B3A82"/>
<stop offset="1" stop-color="#43A7D2" stop-opacity="0.65"/>
</linearGradient>
<linearGradient id="paint16_linear" x1="115.951" y1="585.388" x2="110.623" y2="579.946" gradientUnits="userSpaceOnUse">
<stop stop-color="#93EB23"/>
<stop offset="1" stop-color="#269200"/>
</linearGradient>
<linearGradient id="paint17_linear" x1="263.804" y1="582.022" x2="262.379" y2="587.718" gradientUnits="userSpaceOnUse">
<stop stop-color="#3D3D3D"/>
<stop offset="1" stop-color="#333333" stop-opacity="0.63"/>
</linearGradient>
<linearGradient id="paint18_linear" x1="416.331" y1="588.028" x2="415.641" y2="580.361" gradientUnits="userSpaceOnUse">
<stop stop-color="#FAD67C"/>
<stop offset="1" stop-color="#D08412"/>
</linearGradient>
<linearGradient id="paint19_linear" x1="530.872" y1="582.153" x2="533.144" y2="586.925" gradientUnits="userSpaceOnUse">
<stop stop-color="#EFBD07"/>
<stop offset="1" stop-color="#FFEF60" stop-opacity="0.67"/>
</linearGradient>
</defs>
</svg>
