<svg width="18" height="18" viewBox="0 0 18 18" fill="none" xmlns="http://www.w3.org/2000/svg">
<path d="M11.7261 11.3891C11.7261 11.3891 13.6995 9.41577 14.3741 8.74254C16.4913 6.6254 15.4323 2.38973 15.4323 2.38973C15.4323 2.38973 11.1967 1.33081 9.07953 3.44865C7.49669 5.03149 6.44192 6.12151 6.44192 6.12151C6.44192 6.12151 3.78564 5.56579 2.19727 7.15416L10.6679 15.6248C12.2563 14.0364 11.7261 11.3891 11.7261 11.3891ZM10.688 5.17872C10.8162 5.05023 10.9686 4.94829 11.1363 4.87874C11.304 4.8092 11.4838 4.7734 11.6653 4.7734C11.8469 4.7734 12.0266 4.8092 12.1943 4.87874C12.362 4.94829 12.5144 5.05023 12.6427 5.17872C12.836 5.37203 12.9677 5.61835 13.0211 5.88652C13.0745 6.15469 13.0471 6.43267 12.9425 6.68529C12.8379 6.93792 12.6607 7.15384 12.4334 7.30576C12.206 7.45768 11.9387 7.53877 11.6653 7.53877C11.3919 7.53877 11.1246 7.45768 10.8972 7.30576C10.6699 7.15384 10.4927 6.93792 10.3881 6.68529C10.2835 6.43267 10.2561 6.15469 10.3095 5.88652C10.3629 5.61835 10.4946 5.37203 10.688 5.17872ZM2.86842 14.9322C2.86842 14.9322 4.94202 14.9322 6.32441 13.5498L4.25082 11.4762C2.86842 12.1674 2.86842 14.9322 2.86842 14.9322Z" fill="#030622"/>
</svg>
