<svg width="40" height="39" viewBox="0 0 40 39" fill="none" xmlns="http://www.w3.org/2000/svg">
<path fill-rule="evenodd" clip-rule="evenodd" d="M37.2079 27.8381H30.3418C32.0859 25.569 33.1341 22.7337 33.1341 19.6469C33.1341 16.5565 32.0834 13.7184 30.3358 11.4479H37.2044C38.3681 13.9379 39.0217 16.7154 39.0217 19.6469C39.0217 22.5755 38.3692 25.3502 37.2079 27.8381ZM19.7413 27.8381C15.2292 27.8381 11.5712 24.1692 11.5712 19.6434C11.5712 15.1172 15.2292 11.4479 19.7413 11.4479C24.2541 11.4479 27.9114 15.1172 27.9114 19.6434C27.9114 24.1692 24.2541 27.8381 19.7413 27.8381ZM6.34105 19.6469C6.34105 27.07 12.3386 33.0873 19.7378 33.0873C21.7236 33.0873 23.6015 32.6419 25.2966 31.8643V38.1684C23.5367 38.6987 21.6732 38.9869 19.7413 38.9869C9.09354 38.9869 0.461182 30.3285 0.461182 19.6469C0.461182 8.96567 9.09354 0.306885 19.7413 0.306885C21.6732 0.306885 23.5367 0.595454 25.2966 1.12573V7.42911C23.6015 6.65149 21.7236 6.20648 19.7378 6.20648C12.3386 6.20648 6.34105 12.2241 6.34105 19.6469Z" fill="#062131"/>
</svg>
