<svg width="40" height="40" viewBox="0 0 40 40" fill="none" xmlns="http://www.w3.org/2000/svg">
<path fill-rule="evenodd" clip-rule="evenodd" d="M39.6554 20.0469C39.6554 25.2499 37.5885 30.2397 33.9095 33.9188C30.2305 37.5978 25.2406 39.6647 20.0377 39.6647C14.8347 39.6647 9.84486 37.5978 6.16582 33.9188C2.48679 30.2397 0.419922 25.2499 0.419922 20.0469C0.419922 14.844 2.48679 9.85414 6.16582 6.1751C9.84486 2.49606 14.8347 0.429199 20.0377 0.429199C25.2406 0.429199 30.2305 2.49606 33.9095 6.1751C37.5885 9.85414 39.6554 14.844 39.6554 20.0469ZM20.9057 26.5355C21.136 26.7657 21.2653 27.078 21.2653 27.4036C21.2653 27.7292 21.136 28.0414 20.9057 28.2717C20.6755 28.5019 20.3633 28.6312 20.0377 28.6312C19.7121 28.6312 19.3998 28.5019 19.1696 28.2717L11.8129 20.915C11.6987 20.8011 11.6081 20.6658 11.5463 20.5169C11.4845 20.3679 11.4527 20.2082 11.4527 20.0469C11.4527 19.8857 11.4845 19.726 11.5463 19.577C11.6081 19.4281 11.6987 19.2927 11.8129 19.1789L19.1696 11.8222C19.2836 11.7082 19.4189 11.6178 19.5679 11.5561C19.7168 11.4944 19.8764 11.4626 20.0377 11.4626C20.1989 11.4626 20.3585 11.4944 20.5075 11.5561C20.6564 11.6178 20.7917 11.7082 20.9057 11.8222C21.0197 11.9362 21.1102 12.0715 21.1719 12.2205C21.2336 12.3694 21.2653 12.5291 21.2653 12.6903C21.2653 12.8515 21.2336 13.0111 21.1719 13.1601C21.1102 13.309 21.0197 13.4444 20.9057 13.5584L15.6408 18.8208H27.3943C27.7195 18.8208 28.0314 18.95 28.2613 19.1799C28.4912 19.4099 28.6204 19.7218 28.6204 20.0469C28.6204 20.3721 28.4912 20.684 28.2613 20.9139C28.0314 21.1439 27.7195 21.273 27.3943 21.273H15.6408L20.9057 26.5355Z" fill="#023047"/>
</svg>
