<svg width="90" height="20" viewBox="0 0 90 20" fill="none" xmlns="http://www.w3.org/2000/svg">
<path d="M32.4575 14.2753C32.8404 14.2753 33.162 14.2294 33.4223 14.1375C33.6827 14.0456 33.8894 13.9231 34.0426 13.77C34.2008 13.6168 34.3131 13.4381 34.3795 13.2339C34.451 13.0298 34.4867 12.8128 34.4867 12.5831C34.4867 12.3431 34.4484 12.1287 34.3718 11.9399C34.2953 11.7459 34.1753 11.5825 34.0119 11.4498C33.8486 11.312 33.6367 11.2073 33.3764 11.1358C33.1211 11.0644 32.8123 11.0286 32.4498 11.0286H30.3747V14.2753H32.4575ZM30.3747 6.40359V9.60436H32.0134C32.7178 9.60436 33.2487 9.47674 33.6061 9.2215C33.9685 8.96625 34.1498 8.56041 34.1498 8.00398C34.1498 7.42712 33.9864 7.01618 33.6597 6.77114C33.333 6.52611 32.8225 6.40359 32.1282 6.40359H30.3747ZM32.1282 4.81086C32.8531 4.81086 33.4734 4.87978 33.989 5.01761C34.5046 5.15544 34.9257 5.35198 35.2524 5.60723C35.5842 5.86247 35.8267 6.17132 35.9799 6.53377C36.133 6.89621 36.2096 7.30461 36.2096 7.75894C36.2096 8.01929 36.1713 8.26943 36.0947 8.50936C36.0182 8.74419 35.8982 8.96625 35.7348 9.17555C35.5766 9.37975 35.3724 9.56608 35.1222 9.73454C34.8772 9.903 34.5837 10.0459 34.2417 10.1633C35.7629 10.5054 36.5235 11.3273 36.5235 12.629C36.5235 13.0987 36.4342 13.5326 36.2555 13.9308C36.0769 14.3289 35.8165 14.6735 35.4745 14.9645C35.1325 15.2504 34.7113 15.475 34.211 15.6384C33.7107 15.8017 33.139 15.8834 32.4958 15.8834H28.3149V4.81086H32.1282ZM42.0661 8.02695V15.8834H40.1671V8.02695H42.0661ZM42.3265 5.7374C42.3265 5.90076 42.2933 6.05391 42.227 6.19684C42.1606 6.33978 42.0713 6.46485 41.9589 6.57205C41.8517 6.67926 41.7241 6.76604 41.5761 6.8324C41.428 6.89366 41.2698 6.92429 41.1013 6.92429C40.938 6.92429 40.7823 6.89366 40.6342 6.8324C40.4913 6.76604 40.3662 6.67926 40.259 6.57205C40.1518 6.46485 40.065 6.33978 39.9987 6.19684C39.9374 6.05391 39.9068 5.90076 39.9068 5.7374C39.9068 5.56894 39.9374 5.41069 39.9987 5.26265C40.065 5.1146 40.1518 4.98698 40.259 4.87978C40.3662 4.77258 40.4913 4.68835 40.6342 4.62709C40.7823 4.56072 40.938 4.52754 41.1013 4.52754C41.2698 4.52754 41.428 4.56072 41.5761 4.62709C41.7241 4.68835 41.8517 4.77258 41.9589 4.87978C42.0713 4.98698 42.1606 5.1146 42.227 5.26265C42.2933 5.41069 42.3265 5.56894 42.3265 5.7374ZM51.7666 9.68859C51.7104 9.76006 51.6543 9.81622 51.5981 9.85706C51.5471 9.89789 51.4705 9.91831 51.3684 9.91831C51.2714 9.91831 51.177 9.89024 51.0851 9.83408C50.9932 9.77282 50.8834 9.70646 50.7558 9.63499C50.6282 9.55842 50.475 9.49205 50.2964 9.4359C50.1228 9.37464 49.9058 9.34401 49.6455 9.34401C49.3137 9.34401 49.0227 9.40527 48.7725 9.52779C48.5224 9.6452 48.3131 9.81622 48.1446 10.0408C47.9813 10.2654 47.8588 10.5386 47.7771 10.8602C47.6954 11.1767 47.6546 11.5366 47.6546 11.9399C47.6546 12.3585 47.698 12.7311 47.7848 13.0578C47.8766 13.3845 48.0068 13.6602 48.1753 13.8848C48.3437 14.1043 48.5479 14.2728 48.7879 14.3902C49.0278 14.5025 49.2984 14.5587 49.5995 14.5587C49.9007 14.5587 50.1432 14.5229 50.327 14.4515C50.5159 14.3749 50.6741 14.2932 50.8017 14.2064C50.9294 14.1145 51.0391 14.0329 51.131 13.9614C51.228 13.8848 51.3352 13.8465 51.4526 13.8465C51.6058 13.8465 51.7206 13.9052 51.7972 14.0227L52.3409 14.7118C52.1316 14.9568 51.9044 15.1636 51.6594 15.3321C51.4143 15.4954 51.1591 15.6281 50.8936 15.7302C50.6333 15.8272 50.3627 15.8962 50.082 15.937C49.8063 15.9778 49.5306 15.9982 49.255 15.9982C48.77 15.9982 48.3131 15.9089 47.8843 15.7302C47.4555 15.5465 47.0803 15.281 46.7587 14.9339C46.4371 14.5867 46.1818 14.163 45.9929 13.6628C45.8092 13.1574 45.7173 12.5831 45.7173 11.9399C45.7173 11.363 45.7989 10.8295 45.9623 10.3395C46.1308 9.84429 46.3758 9.41803 46.6974 9.06069C47.019 8.69824 47.4172 8.41492 47.892 8.21072C48.3667 8.00653 48.9129 7.90443 49.5306 7.90443C50.1177 7.90443 50.6307 7.99887 51.0698 8.18775C51.5139 8.37663 51.9121 8.64719 52.2643 8.99943L51.7666 9.68859ZM58.2894 16.0059C57.6054 16.0059 57.0796 15.8145 56.712 15.4316C56.3496 15.0436 56.1683 14.5102 56.1683 13.8312V9.44356H55.3643C55.2622 9.44356 55.1754 9.41038 55.104 9.34401C55.0325 9.27765 54.9968 9.1781 54.9968 9.04538V8.29496L56.2602 8.08821L56.6584 5.94415C56.6839 5.84205 56.7324 5.76293 56.8039 5.70677C56.8754 5.65062 56.9673 5.62254 57.0796 5.62254H58.0597V8.09586H60.1578V9.44356H58.0597V13.701C58.0597 13.9461 58.1184 14.1375 58.2358 14.2753C58.3584 14.4132 58.5243 14.4821 58.7336 14.4821C58.851 14.4821 58.948 14.4693 59.0245 14.4438C59.1062 14.4132 59.1751 14.3825 59.2313 14.3519C59.2925 14.3213 59.3461 14.2932 59.3921 14.2677C59.438 14.2371 59.484 14.2217 59.5299 14.2217C59.5861 14.2217 59.632 14.2371 59.6678 14.2677C59.7035 14.2932 59.7418 14.3341 59.7826 14.3902L60.3493 15.3091C60.0736 15.5388 59.7571 15.7124 59.3998 15.8298C59.0424 15.9472 58.6723 16.0059 58.2894 16.0059ZM66.9294 7.90443C67.5114 7.90443 68.0398 7.99887 68.5145 8.18775C68.9944 8.37663 69.4028 8.64464 69.7397 8.99177C70.0817 9.33891 70.3446 9.76261 70.5284 10.2629C70.7122 10.7632 70.8041 11.3222 70.8041 11.9399C70.8041 12.5627 70.7122 13.1242 70.5284 13.6245C70.3446 14.1248 70.0817 14.551 69.7397 14.9032C69.4028 15.2555 68.9944 15.526 68.5145 15.7149C68.0398 15.9038 67.5114 15.9982 66.9294 15.9982C66.3424 15.9982 65.8089 15.9038 65.329 15.7149C64.8492 15.526 64.4382 15.2555 64.0962 14.9032C63.7593 14.551 63.4964 14.1248 63.3075 13.6245C63.1237 13.1242 63.0318 12.5627 63.0318 11.9399C63.0318 11.3222 63.1237 10.7632 63.3075 10.2629C63.4964 9.76261 63.7593 9.33891 64.0962 8.99177C64.4382 8.64464 64.8492 8.37663 65.329 8.18775C65.8089 7.99887 66.3424 7.90443 66.9294 7.90443ZM66.9294 14.5434C67.5829 14.5434 68.0653 14.3238 68.3767 13.8848C68.6932 13.4458 68.8514 12.8026 68.8514 11.9552C68.8514 11.1078 68.6932 10.462 68.3767 10.0179C68.0653 9.57373 67.5829 9.35167 66.9294 9.35167C66.2658 9.35167 65.7732 9.57629 65.4516 10.0255C65.1351 10.4696 64.9768 11.1129 64.9768 11.9552C64.9768 12.7975 65.1351 13.4407 65.4516 13.8848C65.7732 14.3238 66.2658 14.5434 66.9294 14.5434ZM76.1752 9.38996C76.4202 8.92031 76.7112 8.55275 77.0481 8.2873C77.3851 8.01674 77.7832 7.88146 78.2427 7.88146C78.6051 7.88146 78.8961 7.96059 79.1156 8.11884L78.9931 9.53545C78.9676 9.62733 78.9293 9.6937 78.8783 9.73454C78.8323 9.77027 78.7685 9.78814 78.6868 9.78814C78.6102 9.78814 78.4954 9.77538 78.3422 9.74985C78.1942 9.72433 78.0487 9.71157 77.9058 9.71157C77.6965 9.71157 77.5101 9.74219 77.3468 9.80345C77.1834 9.86471 77.0354 9.95405 76.9027 10.0715C76.775 10.1838 76.6602 10.3216 76.5581 10.485C76.4611 10.6483 76.3692 10.8346 76.2824 11.0439V15.8834H74.391V8.02695H75.5014C75.6953 8.02695 75.8306 8.06268 75.9072 8.13415C75.9838 8.20052 76.0348 8.32303 76.0603 8.5017L76.1752 9.38996ZM89.3848 8.02695L85.1044 18.0428C85.0482 18.1755 84.9742 18.275 84.8823 18.3414C84.7955 18.4129 84.6603 18.4486 84.4765 18.4486H83.0675L84.5377 15.2938L81.3599 8.02695H83.0216C83.1696 8.02695 83.2845 8.06268 83.3662 8.13415C83.453 8.20562 83.5168 8.2873 83.5576 8.37919L85.2269 12.4529C85.2831 12.5907 85.329 12.7286 85.3647 12.8664C85.4056 13.0042 85.4439 13.1446 85.4796 13.2875C85.5255 13.1446 85.5715 13.0042 85.6174 12.8664C85.6634 12.7235 85.7144 12.5831 85.7706 12.4452L87.348 8.37919C87.3888 8.27709 87.4552 8.19286 87.5471 8.12649C87.6441 8.06013 87.7513 8.02695 87.8687 8.02695H89.3848Z" fill="#02002B"/>
<path d="M12.7882 14.208C12.4021 14.208 11.9091 14.0097 10.4438 13.2169C9.56654 12.7424 8.39102 12.077 6.95076 11.2387C4.50705 9.81717 2.10529 8.36694 2.08145 8.35245L0.423828 7.35052L11.6088 1.34312C11.9553 1.15609 12.3364 1.04195 12.7287 1.00774C13.121 0.973526 13.5161 1.01996 13.8898 1.14419C15.3198 1.62719 18.0047 2.61524 19.9204 3.80072C22.0034 5.09005 22.2835 6.63838 22.2651 7.44742C22.2349 8.80014 21.364 10.0517 19.8772 10.8807C18.6845 11.5448 17.1993 12.3237 15.9042 12.9612C13.5601 14.1159 13.1504 14.1706 12.9539 14.1968C12.899 14.2042 12.8436 14.2079 12.7882 14.208ZM4.88802 7.4595C5.68981 7.93737 6.70141 8.5369 7.73896 9.14217C11.1777 11.1491 12.3924 11.7628 12.8157 11.9496C13.6932 11.6197 16.4738 10.2486 18.8028 8.95048C19.5877 8.51245 20.046 7.94582 20.0587 7.3955C20.0716 6.82193 19.5983 6.19583 18.7606 5.6769C16.9674 4.56689 14.2641 3.59876 13.1852 3.23379C13.0981 3.20566 13.0062 3.1958 12.9152 3.20484C12.8242 3.21388 12.7361 3.24162 12.6563 3.28632L4.88802 7.4595Z" fill="url(#paint0_linear)"/>
<path d="M12.7882 19.0663C12.4021 19.0663 11.9091 18.8679 10.4438 18.0752C9.56654 17.6006 8.39102 16.9353 6.95076 16.0973C4.50705 14.6754 2.1053 13.2252 2.08145 13.2107L0.423828 12.2103L11.6088 6.20048C11.9553 6.01344 12.3364 5.89931 12.7287 5.86509C13.121 5.83088 13.5161 5.87731 13.8898 6.00154C15.3198 6.48455 18.0044 7.4726 19.9204 8.65808C22.0034 9.9474 22.2835 11.4957 22.2651 12.3048C22.2349 13.6575 21.364 14.9091 19.8772 15.738C18.6845 16.4022 17.1993 17.181 15.9042 17.8186C13.5601 18.9733 13.1504 19.0279 12.9539 19.0542C12.899 19.0619 12.8436 19.0659 12.7882 19.0663ZM4.88802 12.3181C5.68981 12.7956 6.70141 13.3952 7.73896 14.0004C11.1777 16.0073 12.3924 16.621 12.8157 16.8079C13.6932 16.4783 16.4738 15.1083 18.8028 13.8102C19.5877 13.3722 20.046 12.8056 20.0587 12.2553C20.0716 11.6817 19.5983 11.0556 18.7606 10.5364C16.9674 9.42666 14.2641 8.45853 13.1852 8.09356C13.0982 8.06527 13.0062 8.05536 12.9152 8.06445C12.8241 8.07355 12.736 8.10145 12.6563 8.14639L4.88802 12.3181Z" fill="url(#paint1_linear)"/>
<defs>
<linearGradient id="paint0_linear" x1="0.0282403" y1="0.996822" x2="19.5814" y2="1.55955" gradientUnits="userSpaceOnUse">
<stop stop-color="#FFB703"/>
<stop offset="0.35783" stop-color="#FFD877" stop-opacity="0.99"/>
<stop offset="1" stop-color="#FFBF1E" stop-opacity="0.994003"/>
</linearGradient>
<linearGradient id="paint1_linear" x1="0.0282403" y1="5.85418" x2="19.5814" y2="6.41686" gradientUnits="userSpaceOnUse">
<stop stop-color="#FFB703"/>
<stop offset="0.35783" stop-color="#FFD877" stop-opacity="0.99"/>
<stop offset="1" stop-color="#FFBF1E" stop-opacity="0.994003"/>
</linearGradient>
</defs>
</svg>
