<svg width="149" height="37" viewBox="0 0 149 37" fill="none" xmlns="http://www.w3.org/2000/svg">
<path d="M50.7507 17.5446C52.0466 18.2789 52.6946 19.3949 52.6946 20.8924C52.6946 22.2747 52.241 23.3619 51.3338 24.1539C50.4411 24.9458 49.1379 25.3418 47.4244 25.3418H41.0311V10.2225H47.0356C48.7348 10.2225 50.0307 10.5897 50.9235 11.324C51.8162 12.0584 52.2626 13.1096 52.2626 14.4775C52.2626 15.7878 51.7586 16.8102 50.7507 17.5446ZM46.7765 13.9375H45.3509V15.9678L47.014 15.9462C47.6332 15.8598 47.9428 15.5287 47.9428 14.9527C47.9428 14.6215 47.8276 14.3695 47.5972 14.1967C47.3668 14.0239 47.0932 13.9375 46.7765 13.9375ZM47.1652 21.6268C47.5108 21.6268 47.7988 21.526 48.0292 21.3244C48.2596 21.1228 48.3748 20.8636 48.3748 20.5468C48.3748 19.942 48.0508 19.5893 47.4028 19.4885L45.3509 19.4669V21.6268H47.1652ZM57.1325 10.2225H61.4523V25.3418H57.1325V10.2225ZM73.9971 25.6874C71.722 25.6874 69.8357 24.9314 68.3382 23.4195C66.8406 21.9076 66.0919 20.0284 66.0919 17.7821C66.0919 15.5359 66.8406 13.6567 68.3382 12.1448C69.8357 10.6329 71.722 9.87691 73.9971 9.87691C75.3938 9.87691 76.6826 10.2081 77.8633 10.8705C79.0441 11.5328 79.9656 12.4256 80.628 13.5487L76.8698 15.7086C76.625 15.2191 76.2434 14.8303 75.725 14.5423C75.2066 14.2543 74.6307 14.1103 73.9971 14.1103C72.9315 14.1103 72.0676 14.4559 71.4052 15.1471C70.7429 15.8382 70.4117 16.7166 70.4117 17.7821C70.4117 18.8477 70.7429 19.7261 71.4052 20.4172C72.0676 21.1084 72.9315 21.454 73.9971 21.454C74.6451 21.454 75.221 21.31 75.725 21.022C76.2434 20.734 76.625 20.338 76.8698 19.8341L80.628 21.994C79.9656 23.1315 79.0441 24.0315 77.8633 24.6938C76.6826 25.3562 75.3938 25.6874 73.9971 25.6874ZM95.5315 10.2225V14.4127H91.9676V25.3418H87.6478V14.4127H84.084V10.2225H95.5315ZM112.347 23.4195C110.806 24.9314 108.913 25.6874 106.666 25.6874C104.42 25.6874 102.519 24.9314 100.964 23.4195C99.4236 21.8932 98.6532 20.014 98.6532 17.7821C98.6532 15.5503 99.4236 13.6783 100.964 12.1664C102.519 10.6401 104.42 9.87691 106.666 9.87691C108.913 9.87691 110.806 10.6401 112.347 12.1664C113.902 13.6783 114.68 15.5503 114.68 17.7821C114.68 20.014 113.902 21.8932 112.347 23.4195ZM104.01 20.4172C104.715 21.1084 105.601 21.454 106.666 21.454C107.732 21.454 108.61 21.1084 109.302 20.4172C110.007 19.7117 110.36 18.8333 110.36 17.7821C110.36 16.731 110.007 15.8598 109.302 15.1687C108.61 14.4631 107.732 14.1103 106.666 14.1103C105.601 14.1103 104.715 14.4631 104.01 15.1687C103.319 15.8598 102.973 16.731 102.973 17.7821C102.973 18.8333 103.319 19.7117 104.01 20.4172ZM127.121 25.3202L124.723 20.5684H123.643V25.3202H119.323V10.2009H125.371C127.027 10.2009 128.395 10.6905 129.475 11.6696C130.555 12.6344 131.095 13.9159 131.095 15.5143C131.095 16.407 130.886 17.2134 130.468 17.9333C130.065 18.6533 129.496 19.2365 128.762 19.6829L131.743 25.3202H127.121ZM123.643 14.1751V16.983H125.285C125.745 16.9974 126.105 16.8822 126.365 16.6374C126.638 16.3926 126.775 16.047 126.775 15.6006C126.775 15.1543 126.638 14.8087 126.365 14.5639C126.105 14.3047 125.745 14.1751 125.285 14.1751H123.643ZM148.902 10.2225L143.783 19.5965V25.3418H139.464V19.5965L134.345 10.2225H139.14L141.624 15.5359L144.107 10.2225H148.902Z" fill="url(#paint0_linear)"/>
<path fill-rule="evenodd" clip-rule="evenodd" d="M1.27941 0.375H19.3145C23.4086 0.375 30.3942 5.36472 25.0718 15.0883C30.6219 17.3587 36.0475 30.3239 22.9583 36.2064C22.5885 36.3726 22.1763 36.4545 21.7709 36.4545H1.53062H1.14679C0.581514 36.4545 0.123264 35.9962 0.123264 35.4309L8.70672e-06 1.65908C-0.00257677 0.950664 0.570989 0.375 1.27941 0.375ZM3.58985 29.0291V3.95261H18.9428C19.4546 3.95261 23.9581 4.72026 23.5487 9.83791C23.5061 10.1364 23.3184 10.9382 22.909 11.757L18.6869 19.6894L13.5693 10.7335L3.58985 29.0291ZM13.5693 17.6423L4.99721 33.2512H21.2458C27.6428 31.8438 30.4576 22.8879 23.5487 18.1541L18.9428 26.5982L13.5693 17.6423Z" fill="url(#paint1_linear)"/>
<defs>
<linearGradient id="paint0_linear" x1="127.086" y1="18.9472" x2="43.9935" y2="18.9472" gradientUnits="userSpaceOnUse">
<stop stop-color="#FFBA1D"/>
<stop offset="0.501343" stop-color="#FFCB47"/>
<stop offset="1" stop-color="#FFB81A"/>
</linearGradient>
<linearGradient id="paint1_linear" x1="24.8169" y1="18.2868" x2="1.1513" y2="18.2868" gradientUnits="userSpaceOnUse">
<stop stop-color="#FFBA1D"/>
<stop offset="0.501343" stop-color="#FFCB47"/>
<stop offset="1" stop-color="#FFB81A"/>
</linearGradient>
</defs>
</svg>
