<svg width="246" height="245" viewBox="0 0 246 245" fill="none" xmlns="http://www.w3.org/2000/svg">
<path style="mix-blend-mode:multiply" opacity="0.5" d="M81.5848 44.7217C81.5848 44.7217 4.92149 111.88 1.0727 169.231C-2.7761 226.581 70.9642 225.646 109.292 210.09C147.62 194.533 81.5848 44.7217 81.5848 44.7217Z" fill="url(#paint0_linear)"/>
<path style="mix-blend-mode:multiply" opacity="0.5" d="M62.1315 117.867C62.1315 117.867 15.4513 157.129 16.7533 183.284C18.0553 209.439 39.3187 208.503 39.4294 216.131C39.5401 223.76 58.3726 250.736 109.292 242.987C172.296 233.4 173.707 192.972 174.438 165.071C175.168 137.17 62.1315 117.867 62.1315 117.867Z" fill="url(#paint1_linear)"/>
<path d="M200.375 21.4264C200.375 21.4264 205.278 2.80738 226.121 3.63938C226.121 3.63938 224.153 22.0826 202.779 22.0852L200.375 21.4264Z" fill="url(#paint2_radial)"/>
<g style="mix-blend-mode:soft-light">
<path d="M226.119 3.63574L200.375 21.4266L203.562 21.467C203.562 21.467 221.666 21.5568 226.119 3.63574Z" fill="#BDE0FF"/>
</g>
<path d="M146.173 83.4374C133.835 79.1746 64.1549 118.242 64.1549 118.242C63.9192 118.192 63.6796 118.152 63.4309 118.112C62.9974 118.026 62.5599 117.948 62.1289 117.871L96.979 172.871L128.767 183.852L187.476 162.89C186.942 162.855 186.426 162.685 185.975 162.396C185.525 162.106 185.156 161.707 184.904 161.235C184.904 161.235 157.209 87.2471 146.173 83.4374Z" fill="url(#paint3_linear)"/>
<path d="M75.7934 105.372L81.5861 44.7226C81.6792 43.7495 81.9662 42.8048 82.4304 41.9444C82.8945 41.084 83.5263 40.3252 84.2884 39.713C85.0506 39.1007 85.9277 38.6473 86.8679 38.3795C87.8081 38.1118 88.7924 38.0351 89.7628 38.1539L154.26 46.0494C156.188 46.2851 157.942 47.2767 159.139 48.8062C160.335 50.3357 160.875 52.2778 160.64 54.2053L153.33 113.903C153.095 115.815 152.115 117.557 150.604 118.751C149.093 119.945 147.172 120.496 145.258 120.283L82.2775 113.35C80.3653 113.139 78.6131 112.183 77.3997 110.691C76.1864 109.198 75.6093 107.287 75.7934 105.372Z" fill="url(#paint4_linear)"/>
<path d="M155.615 55.6388L148.791 111.372C148.638 112.623 147.998 113.763 147.009 114.545C146.02 115.327 144.763 115.687 143.51 115.548L84.9088 109.086C83.66 108.947 82.5155 108.323 81.7215 107.349C80.9275 106.375 80.5474 105.129 80.6629 103.878L81.8738 91.2166L86.0741 47.2589C86.1353 46.6223 86.3233 46.0044 86.6271 45.4416C86.9308 44.8788 87.3442 44.3826 87.8429 43.9821C88.3415 43.5817 88.9153 43.2851 89.5303 43.1099C90.1454 42.9348 90.7893 42.8845 91.4241 42.9622L151.448 50.3109C152.706 50.4655 153.852 51.1134 154.634 52.1124C155.415 53.1114 155.768 54.3797 155.615 55.6388Z" fill="url(#paint5_linear)"/>
<path d="M149.493 105.635L148.791 111.372C148.638 112.623 147.998 113.764 147.009 114.545C146.02 115.327 144.763 115.687 143.51 115.548L84.9088 109.086C83.66 108.947 82.5155 108.323 81.7215 107.349C80.9275 106.375 80.5474 105.129 80.6629 103.878L81.8738 91.2167C81.8738 91.2167 87.3983 84.7769 92.8746 78.9477V78.9386C97.3848 74.112 101.859 69.7072 103.144 69.6642C104.12 69.6369 106.379 72.754 108.912 76.8449L108.918 76.8631C113.714 84.6102 119.492 95.8233 119.492 95.8233C119.492 95.8233 120.834 94.1541 122.674 92.0474L122.686 92.0305C125.921 88.308 130.666 83.1975 132.321 83.2613C133.582 83.3121 138.155 89.3288 142.525 95.5121H142.534C145.193 99.2528 147.775 103.07 149.493 105.635Z" fill="url(#paint6_linear)"/>
<path d="M136.568 71.9247C136.408 73.2341 135.863 74.4665 135.002 75.4662C134.141 76.4658 133.003 77.1878 131.732 77.5408C130.461 77.8937 129.114 77.8618 127.861 77.4491C126.608 77.0364 125.505 76.2615 124.693 75.2222C123.88 74.183 123.394 72.9261 123.296 71.6106C123.198 70.2951 123.492 68.9799 124.141 67.8315C124.79 66.683 125.765 65.7528 126.943 65.1585C128.12 64.5643 129.448 64.3325 130.757 64.4927C131.627 64.5991 132.467 64.8757 133.23 65.3068C133.992 65.7378 134.663 66.3149 135.202 67.0051C135.742 67.6952 136.14 68.4849 136.375 69.329C136.609 70.1731 136.675 71.0551 136.568 71.9247Z" fill="white"/>
<path d="M89.4551 109.476C89.4551 109.476 114.488 82.4112 117.669 82.4542C120.85 82.4971 135.832 114.751 135.832 114.751L89.4551 109.476Z" fill="url(#paint7_linear)"/>
<path d="M135.166 48.3125L154.176 67.3612L156.332 49.7669L135.166 48.3125Z" fill="url(#paint8_linear)"/>
<path d="M84.1527 126.618C84.1527 126.618 62.875 110.901 66.8045 78.4648C66.8045 78.4648 91.5352 85.3135 93.7851 124.749C93.7851 124.749 91.1993 129.502 90.1004 130.06C89.2762 130.476 84.1527 126.618 84.1527 126.618Z" fill="url(#paint9_linear)"/>
<g style="mix-blend-mode:soft-light">
<path d="M68.0399 80.6436L89.3932 128.704L83.3973 124.735C83.3973 124.735 63.2849 106.264 68.0399 80.6436Z" fill="#BDE0FF"/>
</g>
<path d="M72.7464 160.891L93.9538 93.7732C94.2947 92.6966 94.8477 91.6992 95.5801 90.8396C96.3125 89.9801 97.2095 89.2757 98.2183 88.7682C99.2271 88.2607 100.327 87.9601 101.454 87.8843C102.581 87.8085 103.711 87.959 104.779 88.3268L175.739 112.84C177.859 113.574 179.6 115.119 180.581 117.135C181.563 119.152 181.703 121.476 180.972 123.596L158.283 189.272C157.555 191.374 156.029 193.106 154.034 194.091C152.038 195.077 149.736 195.237 147.623 194.537L78.1498 171.465C76.0416 170.765 74.2934 169.263 73.2825 167.285C72.2716 165.307 72.079 163.01 72.7464 160.891Z" fill="url(#paint10_linear)"/>
<path d="M174.948 124.001L153.765 185.315C153.29 186.691 152.291 187.825 150.984 188.469C149.678 189.114 148.171 189.217 146.789 188.756L82.1472 167.289C80.7692 166.83 79.6266 165.848 78.9653 164.555C78.3039 163.262 78.1767 161.76 78.6109 160.374L83.0378 146.364L98.4095 97.7181C98.6321 97.0136 98.9936 96.3607 99.4726 95.7981C99.9517 95.2356 100.539 94.7747 101.199 94.4426C101.859 94.1106 102.579 93.9141 103.316 93.8648C104.053 93.8156 104.793 93.9145 105.491 94.1558L171.525 116.967C172.911 117.446 174.051 118.456 174.693 119.775C175.335 121.094 175.426 122.614 174.948 124.001Z" fill="#8BC478" fill-opacity="0.62"/>
<g style="mix-blend-mode:multiply">
<path d="M155.946 179.006L153.766 185.315C153.291 186.692 152.292 187.826 150.986 188.47C149.68 189.114 148.172 189.217 146.79 188.757L82.1472 167.29C80.7692 166.831 79.6266 165.849 78.9653 164.555C78.3039 163.262 78.1767 161.761 78.6109 160.375L83.0378 146.365C83.0378 146.365 90.8356 140.425 98.4303 135.168V135.159C104.692 130.796 110.814 126.901 112.272 127.163C113.383 127.367 115.182 131.436 117.053 136.668V136.69C120.599 146.601 124.416 160.667 124.416 160.667C124.416 160.667 126.337 159.104 128.926 157.164L128.942 157.149C133.499 153.726 140.094 149.098 141.954 149.572C143.368 149.934 147.079 157.837 150.522 165.879H150.531C152.63 170.753 154.624 175.692 155.946 179.006Z" fill="#3BF1A5"/>
</g>
<path d="M149.883 135.984C150.272 131.745 147.151 127.994 142.913 127.605C138.674 127.216 134.923 130.337 134.534 134.576C134.145 138.814 137.266 142.565 141.505 142.954C145.743 143.343 149.494 140.222 149.883 135.984Z" fill="white"/>
<path d="M87.1934 168.831C87.1934 168.831 122.015 144.306 125.603 145.119C129.192 145.933 138.31 186.003 138.31 186.003L87.1934 168.831Z" fill="#3BF1A5"/>
<path d="M153.617 110.78L170.495 136.898L177.183 117.542L153.617 110.78Z" fill="url(#paint11_linear)"/>
<path d="M187.479 162.889C187.479 162.889 172.845 201.311 158.497 225.115C158.497 225.115 98.9723 208.303 46.3848 188.102C46.3848 188.102 50.3208 149.094 62.1315 117.867L96.9815 172.867L128.769 183.849L187.479 162.889Z" fill="#FFB703"/>
<path d="M62.1309 117.867L64.162 118.242L97.6853 170.827L129.12 181.686L184.905 161.232L187.478 162.889L128.769 183.851L96.9809 172.87L62.1309 117.867Z" fill="#FF69CF"/>
<path style="mix-blend-mode:screen" opacity="0.5" d="M48.9805 187.459L96.9823 172.868L128.77 183.849L158.503 225.112C158.503 225.112 65.6777 195.585 48.9805 187.459Z" fill="url(#paint12_linear)"/>
<path d="M97.6867 170.827L96.0552 171.405L48.9805 187.458L96.9823 172.867L97.6867 170.827Z" fill="#FFB703"/>
<path d="M129.119 181.687L130.394 183.268L158.502 225.112L128.768 183.849L129.119 181.687Z" fill="#FFB703"/>
<path style="mix-blend-mode:multiply" opacity="0.5" d="M72.2092 180.403C72.2092 180.403 57.5171 187.189 56.8856 192.066L46.3848 188.109L72.2092 180.403Z" fill="url(#paint13_linear)"/>
<path style="mix-blend-mode:multiply" opacity="0.5" d="M142.629 203.083C142.629 203.083 150.41 215.276 149.252 222.431L158.497 225.112L142.629 203.083Z" fill="url(#paint14_linear)"/>
<path d="M234.514 82.7285L231.564 88.7986C231.564 88.7986 204.603 100.844 186.036 115.846L171.112 97.7474L170.219 89.0668L234.514 82.7285Z" fill="url(#paint15_radial)"/>
<path d="M170.219 89.0667C170.219 89.0667 193.535 67.6405 215.635 57.1279L234.514 82.7284C234.514 82.7284 203.734 95.3437 186.488 108.759L170.219 89.0667Z" fill="url(#paint16_radial)"/>
<g style="mix-blend-mode:multiply">
<path d="M186.037 115.846L186.489 108.759C186.489 108.759 213.05 88.8168 234.515 82.7285L231.565 88.7986C231.565 88.7986 205.754 99.9934 186.037 115.846Z" fill="#6E4298"/>
</g>
<path d="M174.785 0.960938C170.104 13.006 167.681 20.6515 165.977 32.901L197.713 43.8653C203.64 34.3202 207.106 26.3791 210.523 13.3081C199.034 8.05578 187.066 3.92103 174.785 0.960938Z" fill="url(#paint17_linear)"/>
<path d="M165.977 32.9004L168.648 35.7414L195.26 44.935L197.715 43.8648L165.977 32.9004Z" fill="url(#paint18_linear)"/>
<path d="M69.4707 18.7817C70.7285 31.6418 72.0162 39.5581 76.0212 51.2594L109.292 46.7245C110.274 35.527 109.783 26.8803 106.935 13.6738C94.3122 14.1712 81.7662 15.8817 69.4707 18.7817Z" fill="#3BF1A5"/>
<path d="M76.0215 51.2589L79.688 52.5883L107.585 48.7851L109.293 46.7227L76.0215 51.2589Z" fill="url(#paint19_linear)"/>
<path d="M185.635 133.333C185.635 133.333 198.415 112.469 223.468 121.113C223.468 121.113 214.325 142.833 188.313 135.015L185.635 133.333Z" fill="url(#paint20_radial)"/>
<g style="mix-blend-mode:soft-light">
<path d="M223.468 121.113L185.635 133.333L189.498 134.549C189.498 134.549 211.489 141.292 223.468 121.113Z" fill="#BDE0FF"/>
</g>
<path d="M184.074 152.247L193.263 144.144L195.287 147.833L187.396 153.396L184.074 152.247Z" fill="#9A7DF8"/>
<path d="M74.4176 71.0428L77.3277 67.6484L71.8019 59.9092L66.5039 61.6018L74.4176 71.0428Z" fill="#4F31E0"/>
<path d="M165.236 64.1506L172.647 61.6768L174.438 64.9618L165.301 66.1479L165.236 64.1506Z" fill="#FF1D9C"/>
<path d="M227.105 40.566L245.073 37.6182L244.476 44.541H226.906L227.105 40.566Z" fill="#6877FF"/>
<g style="mix-blend-mode:multiply" opacity="0.5">
<path d="M80.2812 58.3753L102.246 55.1488L102.444 49.4863L80.8489 52.4315L80.2812 58.3753Z" fill="#B975B6"/>
</g>
<defs>
<linearGradient id="paint0_linear" x1="0.927734" y1="131.95" x2="121.254" y2="131.95" gradientUnits="userSpaceOnUse">
<stop offset="0.135" stop-color="white"/>
<stop offset="1" stop-color="#7CFFB8"/>
</linearGradient>
<linearGradient id="paint1_linear" x1="25.5586" y1="209.582" x2="150.971" y2="122.796" gradientUnits="userSpaceOnUse">
<stop offset="0.135" stop-color="white"/>
<stop offset="1" stop-color="#FFB703"/>
</linearGradient>
<radialGradient id="paint2_radial" cx="0" cy="0" r="1" gradientUnits="userSpaceOnUse" gradientTransform="translate(143.142 51.0101) rotate(17.3727) scale(16.5989 15.8862)">
<stop stop-color="#3996F7"/>
<stop offset="1" stop-color="#6840D5"/>
</radialGradient>
<linearGradient id="paint3_linear" x1="160.276" y1="221.831" x2="160.276" y2="121.293" gradientUnits="userSpaceOnUse">
<stop stop-color="#9C5AFF"/>
<stop offset="0.848958" stop-color="#6C0E65"/>
<stop offset="1" stop-color="#63004A"/>
</linearGradient>
<linearGradient id="paint4_linear" x1="112.281" y1="118.766" x2="112.281" y2="43.1978" gradientUnits="userSpaceOnUse">
<stop stop-color="#D1BBFF"/>
<stop offset="1" stop-color="#DACFFF"/>
</linearGradient>
<linearGradient id="paint5_linear" x1="112.221" y1="114.197" x2="112.221" y2="47.7943" gradientUnits="userSpaceOnUse">
<stop stop-color="#D1BBFF"/>
<stop offset="1" stop-color="white"/>
</linearGradient>
<linearGradient id="paint6_linear" x1="112.865" y1="114.2" x2="112.865" y2="72.878" gradientUnits="userSpaceOnUse">
<stop stop-color="#E1BDFF"/>
<stop offset="1" stop-color="#B17FFF"/>
</linearGradient>
<linearGradient id="paint7_linear" x1="111.484" y1="114.073" x2="111.484" y2="83.8106" gradientUnits="userSpaceOnUse">
<stop stop-color="#CF95FF"/>
<stop offset="1" stop-color="#9552FF"/>
</linearGradient>
<linearGradient id="paint8_linear" x1="136.669" y1="64.3896" x2="136.669" y2="46.6743" gradientUnits="userSpaceOnUse">
<stop stop-color="#D1BBFF"/>
<stop offset="1" stop-color="#DACFFF"/>
</linearGradient>
<linearGradient id="paint9_linear" x1="87.221" y1="76.6063" x2="87.221" y2="29.0581" gradientUnits="userSpaceOnUse">
<stop stop-color="#3BF1A5"/>
<stop offset="1" stop-color="#6A2C9A"/>
</linearGradient>
<linearGradient id="paint10_linear" x1="161.8" y1="226.669" x2="161.8" y2="139.381" gradientUnits="userSpaceOnUse">
<stop stop-color="#D1BBFF"/>
<stop offset="1" stop-color="#DACFFF"/>
</linearGradient>
<linearGradient id="paint11_linear" x1="190.049" y1="163.877" x2="190.049" y2="143.375" gradientUnits="userSpaceOnUse">
<stop stop-color="#D1BBFF"/>
<stop offset="1" stop-color="#DACFFF"/>
</linearGradient>
<linearGradient id="paint12_linear" x1="161.898" y1="252.279" x2="160.993" y2="217.047" gradientUnits="userSpaceOnUse">
<stop stop-color="#FFB703"/>
<stop offset="1" stop-color="#F2C420"/>
</linearGradient>
<linearGradient id="paint13_linear" x1="112.65" y1="253.106" x2="112.65" y2="237.082" gradientUnits="userSpaceOnUse">
<stop stop-color="#CC8BA1"/>
<stop offset="1" stop-color="white"/>
</linearGradient>
<linearGradient id="paint14_linear" x1="208.623" y1="251.657" x2="208.623" y2="235.532" gradientUnits="userSpaceOnUse">
<stop stop-color="#CC8BA1"/>
<stop offset="1" stop-color="white"/>
</linearGradient>
<radialGradient id="paint15_radial" cx="0" cy="0" r="1" gradientUnits="userSpaceOnUse" gradientTransform="translate(80.2097 143.806) rotate(27.1146) scale(28.85 24.4465)">
<stop stop-color="#FFF857"/>
<stop offset="1" stop-color="#9A7F39"/>
</radialGradient>
<radialGradient id="paint16_radial" cx="0" cy="0" r="1" gradientUnits="userSpaceOnUse" gradientTransform="translate(125.906 112.144) rotate(18.191) scale(34.5043 33.3334)">
<stop stop-color="#FFD313"/>
<stop offset="1" stop-color="#FFB703"/>
</radialGradient>
<linearGradient id="paint17_linear" x1="180.989" y1="67.0337" x2="180.989" y2="33.0534" gradientUnits="userSpaceOnUse">
<stop stop-color="#744FD8"/>
<stop offset="1" stop-color="#3996F7"/>
</linearGradient>
<linearGradient id="paint18_linear" x1="180.862" y1="68.8599" x2="180.862" y2="67.0426" gradientUnits="userSpaceOnUse">
<stop stop-color="#1C257B"/>
<stop offset="1" stop-color="#482C83"/>
</linearGradient>
<linearGradient id="paint19_linear" x1="29.8067" y1="13.0598" x2="30.7356" y2="28.1731" gradientUnits="userSpaceOnUse">
<stop stop-color="#BA0065"/>
<stop offset="1" stop-color="#63004A"/>
</linearGradient>
<radialGradient id="paint20_radial" cx="0" cy="0" r="1" gradientUnits="userSpaceOnUse" gradientTransform="translate(50.3376 202.286) rotate(50.3439) scale(28.1093 15.1108)">
<stop stop-color="#FFD313"/>
<stop offset="1" stop-color="#FFB703"/>
</radialGradient>
</defs>
</svg>
