<svg width="246" height="245" viewBox="0 0 246 245" fill="none" xmlns="http://www.w3.org/2000/svg">
<path style="mix-blend-mode:multiply" opacity="0.5" d="M81.5848 44.7222C81.5848 44.7222 4.92149 111.881 1.0727 169.231C-2.7761 226.581 70.9642 225.647 109.292 210.09C147.62 194.533 81.5848 44.7222 81.5848 44.7222Z" fill="url(#paint0_linear)"/>
<path style="mix-blend-mode:multiply" opacity="0.5" d="M62.1315 117.868C62.1315 117.868 15.4513 157.129 16.7533 183.284C18.0553 209.439 39.3187 208.503 39.4294 216.132C39.5401 223.76 58.3726 250.737 109.292 242.987C172.296 233.4 173.707 192.972 174.438 165.071C175.168 137.17 62.1315 117.868 62.1315 117.868Z" fill="url(#paint1_linear)"/>
<path d="M200.375 21.4259C200.375 21.4259 205.278 2.8069 226.121 3.63889C226.121 3.63889 224.153 22.0821 202.779 22.0847L200.375 21.4259Z" fill="url(#paint2_radial)"/>
<g style="mix-blend-mode:soft-light">
<path d="M226.119 3.63477L200.375 21.4257L203.562 21.466C203.562 21.466 221.666 21.5559 226.119 3.63477Z" fill="#BDE0FF"/>
</g>
<path d="M146.173 83.4379C133.835 79.1751 64.1549 118.242 64.1549 118.242C63.9192 118.193 63.6796 118.153 63.4309 118.112C62.9974 118.026 62.5599 117.948 62.1289 117.871L96.979 172.872L128.767 183.853L187.476 162.89C186.942 162.856 186.426 162.686 185.975 162.396C185.525 162.107 185.156 161.707 184.904 161.235C184.904 161.235 157.209 87.2476 146.173 83.4379Z" fill="url(#paint3_linear)"/>
<path d="M75.7934 105.372L81.5861 44.7222C81.6792 43.749 81.9662 42.8043 82.4304 41.9439C82.8945 41.0835 83.5263 40.3247 84.2884 39.7125C85.0506 39.1002 85.9277 38.6468 86.8679 38.3791C87.8081 38.1113 88.7924 38.0346 89.7628 38.1534L154.26 46.0489C156.188 46.2846 157.942 47.2762 159.139 48.8057C160.335 50.3352 160.875 52.2773 160.64 54.2048L153.33 113.903C153.095 115.814 152.115 117.556 150.604 118.75C149.093 119.945 147.172 120.495 145.258 120.283L82.2775 113.349C80.3653 113.138 78.6131 112.183 77.3997 110.69C76.1864 109.197 75.6093 107.287 75.7934 105.372Z" fill="url(#paint4_linear)"/>
<path d="M155.615 55.6383L148.791 111.372C148.638 112.623 147.998 113.763 147.009 114.545C146.02 115.327 144.763 115.687 143.51 115.547L84.9088 109.085C83.66 108.946 82.5155 108.323 81.7215 107.349C80.9275 106.375 80.5474 105.128 80.6629 103.877L81.8738 91.2162L86.0741 47.2584C86.1353 46.6218 86.3233 46.0039 86.6271 45.4411C86.9308 44.8783 87.3442 44.3821 87.8429 43.9816C88.3415 43.5812 88.9153 43.2846 89.5303 43.1094C90.1454 42.9343 90.7893 42.8841 91.4241 42.9617L151.448 50.3104C152.706 50.465 153.852 51.113 154.634 52.1119C155.415 53.1109 155.768 54.3792 155.615 55.6383Z" fill="url(#paint5_linear)"/>
<path d="M149.493 105.635L148.791 111.372C148.638 112.623 147.998 113.763 147.009 114.545C146.02 115.327 144.763 115.687 143.51 115.547L84.9088 109.085C83.66 108.946 82.5155 108.323 81.7215 107.349C80.9275 106.375 80.5474 105.128 80.6629 103.877L81.8738 91.2162C81.8738 91.2162 87.3983 84.7764 92.8746 78.9472V78.9381C97.3848 74.1115 101.859 69.7067 103.144 69.6638C104.12 69.6364 106.379 72.7535 108.912 76.8444L108.918 76.8627C113.714 84.6097 119.492 95.8228 119.492 95.8228C119.492 95.8228 120.834 94.1536 122.674 92.0469L122.686 92.03C125.921 88.3075 130.666 83.197 132.321 83.2608C133.582 83.3116 138.155 89.3283 142.525 95.5116H142.534C145.193 99.2523 147.775 103.07 149.493 105.635Z" fill="url(#paint6_linear)"/>
<path d="M136.568 71.9242C136.408 73.2336 135.863 74.4661 135.002 75.4657C134.141 76.4654 133.003 77.1873 131.732 77.5403C130.461 77.8932 129.114 77.8613 127.861 77.4486C126.608 77.036 125.505 76.261 124.693 75.2217C123.88 74.1825 123.394 72.9256 123.296 71.6101C123.198 70.2946 123.492 68.9794 124.141 67.831C124.79 66.6825 125.765 65.7523 126.943 65.1581C128.12 64.5638 129.448 64.3321 130.757 64.4922C131.627 64.5986 132.467 64.8752 133.23 65.3063C133.992 65.7373 134.663 66.3144 135.202 67.0046C135.742 67.6947 136.14 68.4844 136.375 69.3285C136.609 70.1726 136.675 71.0546 136.568 71.9242Z" fill="white"/>
<path d="M89.4551 109.475C89.4551 109.475 114.488 82.4102 117.669 82.4532C120.85 82.4961 135.832 114.75 135.832 114.75L89.4551 109.475Z" fill="url(#paint7_linear)"/>
<path d="M135.166 48.312L154.176 67.3607L156.332 49.7664L135.166 48.312Z" fill="url(#paint8_linear)"/>
<path d="M84.1527 126.618C84.1527 126.618 62.875 110.901 66.8045 78.4653C66.8045 78.4653 91.5352 85.314 93.7851 124.75C93.7851 124.75 91.1993 129.502 90.1004 130.061C89.2762 130.476 84.1527 126.618 84.1527 126.618Z" fill="url(#paint9_linear)"/>
<g style="mix-blend-mode:soft-light">
<path d="M68.0399 80.6436L89.3932 128.704L83.3973 124.735C83.3973 124.735 63.2849 106.264 68.0399 80.6436Z" fill="#BDE0FF"/>
</g>
<path d="M72.7464 160.892L93.9538 93.7737C94.2947 92.6971 94.8477 91.6997 95.5801 90.8401C96.3125 89.9805 97.2095 89.2762 98.2183 88.7687C99.2271 88.2611 100.327 87.9606 101.454 87.8848C102.581 87.809 103.711 87.9595 104.779 88.3273L175.739 112.841C177.859 113.574 179.6 115.119 180.581 117.136C181.563 119.153 181.703 121.476 180.972 123.597L158.283 189.272C157.555 191.375 156.029 193.106 154.034 194.092C152.038 195.077 149.736 195.237 147.623 194.538L78.1498 171.466C76.0416 170.765 74.2934 169.264 73.2825 167.285C72.2716 165.307 72.079 163.011 72.7464 160.892Z" fill="url(#paint10_linear)"/>
<path d="M174.948 124.002L153.765 185.316C153.29 186.692 152.291 187.826 150.984 188.47C149.678 189.115 148.171 189.218 146.789 188.757L82.1472 167.29C80.7692 166.831 79.6266 165.849 78.9653 164.556C78.3039 163.263 78.1767 161.761 78.6109 160.375L83.0378 146.365L98.4095 97.7191C98.6321 97.0145 98.9936 96.3617 99.4726 95.7991C99.9517 95.2365 100.539 94.7756 101.199 94.4436C101.859 94.1115 102.579 93.9151 103.316 93.8658C104.053 93.8166 104.793 93.9155 105.491 94.1568L171.525 116.968C172.911 117.447 174.051 118.457 174.693 119.776C175.335 121.095 175.426 122.615 174.948 124.002Z" fill="#8BC478" fill-opacity="0.62"/>
<g style="mix-blend-mode:multiply">
<path d="M155.946 179.006L153.766 185.315C153.291 186.692 152.292 187.826 150.986 188.47C149.68 189.114 148.172 189.217 146.79 188.757L82.1472 167.29C80.7692 166.831 79.6266 165.849 78.9653 164.555C78.3039 163.262 78.1767 161.761 78.6109 160.375L83.0378 146.365C83.0378 146.365 90.8356 140.425 98.4303 135.168V135.159C104.692 130.796 110.814 126.901 112.272 127.163C113.383 127.367 115.182 131.436 117.053 136.668V136.69C120.599 146.601 124.416 160.667 124.416 160.667C124.416 160.667 126.337 159.104 128.926 157.164L128.942 157.149C133.499 153.726 140.094 149.098 141.954 149.572C143.368 149.934 147.079 157.837 150.522 165.879H150.531C152.63 170.753 154.624 175.692 155.946 179.006Z" fill="#3BF1A5"/>
</g>
<path d="M149.883 135.985C150.272 131.746 147.151 127.995 142.913 127.606C138.674 127.217 134.923 130.338 134.534 134.577C134.145 138.815 137.266 142.566 141.505 142.955C145.743 143.344 149.494 140.223 149.883 135.985Z" fill="white"/>
<path d="M87.1934 168.831C87.1934 168.831 122.015 144.306 125.603 145.119C129.192 145.933 138.31 186.003 138.31 186.003L87.1934 168.831Z" fill="#3BF1A5"/>
<path d="M153.617 110.781L170.495 136.899L177.183 117.543L153.617 110.781Z" fill="url(#paint11_linear)"/>
<path d="M187.479 162.889C187.479 162.889 172.845 201.312 158.497 225.116C158.497 225.116 98.9723 208.304 46.3848 188.103C46.3848 188.103 50.3208 149.094 62.1315 117.868L96.9815 172.868L128.769 183.849L187.479 162.889Z" fill="#FFB703"/>
<path d="M62.1309 117.868L64.162 118.243L97.6853 170.828L129.12 181.687L184.905 161.233L187.478 162.889L128.769 183.852L96.9809 172.871L62.1309 117.868Z" fill="#FF69CF"/>
<path style="mix-blend-mode:screen" opacity="0.5" d="M48.9805 187.459L96.9823 172.868L128.77 183.849L158.503 225.112C158.503 225.112 65.6777 195.585 48.9805 187.459Z" fill="url(#paint12_linear)"/>
<path d="M97.6867 170.828L96.0552 171.406L48.9805 187.458L96.9823 172.868L97.6867 170.828Z" fill="#FFB703"/>
<path d="M129.119 181.687L130.394 183.269L158.502 225.112L128.768 183.85L129.119 181.687Z" fill="#FFB703"/>
<path style="mix-blend-mode:multiply" opacity="0.5" d="M72.2092 180.404C72.2092 180.404 57.5171 187.19 56.8856 192.066L46.3848 188.109L72.2092 180.404Z" fill="url(#paint13_linear)"/>
<path style="mix-blend-mode:multiply" opacity="0.5" d="M142.629 203.083C142.629 203.083 150.41 215.276 149.252 222.431L158.497 225.112L142.629 203.083Z" fill="url(#paint14_linear)"/>
<path d="M234.514 82.7285L231.564 88.7986C231.564 88.7986 204.603 100.844 186.036 115.846L171.112 97.7474L170.219 89.0668L234.514 82.7285Z" fill="url(#paint15_radial)"/>
<path d="M170.219 89.0667C170.219 89.0667 193.535 67.6405 215.635 57.1279L234.514 82.7284C234.514 82.7284 203.734 95.3437 186.488 108.759L170.219 89.0667Z" fill="url(#paint16_radial)"/>
<g style="mix-blend-mode:multiply">
<path d="M186.037 115.846L186.489 108.759C186.489 108.759 213.05 88.8168 234.515 82.7285L231.565 88.7986C231.565 88.7986 205.754 99.9934 186.037 115.846Z" fill="#6E4298"/>
</g>
<path d="M174.785 0.960938C170.104 13.006 167.681 20.6515 165.977 32.901L197.713 43.8653C203.64 34.3202 207.106 26.3791 210.523 13.3081C199.034 8.05578 187.066 3.92103 174.785 0.960938Z" fill="url(#paint17_linear)"/>
<path d="M165.977 32.9004L168.648 35.7414L195.26 44.935L197.715 43.8648L165.977 32.9004Z" fill="url(#paint18_linear)"/>
<path d="M69.4707 18.7822C70.7285 31.6423 72.0162 39.5586 76.0212 51.2599L109.292 46.725C110.274 35.5275 109.783 26.8808 106.935 13.6743C94.3122 14.1717 81.7662 15.8822 69.4707 18.7822Z" fill="#3BF1A5"/>
<path d="M76.0215 51.2599L79.688 52.5893L107.585 48.786L109.293 46.7236L76.0215 51.2599Z" fill="url(#paint19_linear)"/>
<path d="M185.635 133.333C185.635 133.333 198.415 112.469 223.468 121.113C223.468 121.113 214.325 142.833 188.313 135.015L185.635 133.333Z" fill="url(#paint20_radial)"/>
<g style="mix-blend-mode:soft-light">
<path d="M223.468 121.113L185.635 133.333L189.498 134.549C189.498 134.549 211.489 141.292 223.468 121.113Z" fill="#BDE0FF"/>
</g>
<path d="M184.074 152.247L193.263 144.143L195.287 147.833L187.396 153.395L184.074 152.247Z" fill="#9A7DF8"/>
<path d="M74.4176 71.0423L77.3277 67.6479L71.8019 59.9087L66.5039 61.6013L74.4176 71.0423Z" fill="#4F31E0"/>
<path d="M165.236 64.1506L172.647 61.6768L174.438 64.9618L165.301 66.1479L165.236 64.1506Z" fill="#FF1D9C"/>
<path d="M227.105 40.566L245.073 37.6182L244.476 44.541H226.906L227.105 40.566Z" fill="#6877FF"/>
<g style="mix-blend-mode:multiply" opacity="0.5">
<path d="M80.2812 58.3753L102.246 55.1488L102.444 49.4863L80.8489 52.4315L80.2812 58.3753Z" fill="#B975B6"/>
</g>
<path d="M176.129 89.4766C183.609 82.7479 201.254 68.2249 211.992 63.9624M178.384 92.2432C184.327 87.2565 198.631 75.2133 203.795 73.082M181.15 95.0098C187.093 90.0231 201.397 77.9799 206.562 75.8486M183.404 98.5961C189.347 93.6094 192.626 90.2963 196.725 88.0421" stroke="white"/>
<defs>
<linearGradient id="paint0_linear" x1="0.927734" y1="131.951" x2="121.254" y2="131.951" gradientUnits="userSpaceOnUse">
<stop offset="0.135" stop-color="white"/>
<stop offset="1" stop-color="#7CFFB8"/>
</linearGradient>
<linearGradient id="paint1_linear" x1="25.5586" y1="209.583" x2="150.971" y2="122.797" gradientUnits="userSpaceOnUse">
<stop offset="0.135" stop-color="white"/>
<stop offset="1" stop-color="#FFB703"/>
</linearGradient>
<radialGradient id="paint2_radial" cx="0" cy="0" r="1" gradientUnits="userSpaceOnUse" gradientTransform="translate(143.142 51.0096) rotate(17.3727) scale(16.5989 15.8862)">
<stop stop-color="#3996F7"/>
<stop offset="1" stop-color="#6840D5"/>
</radialGradient>
<linearGradient id="paint3_linear" x1="160.276" y1="221.832" x2="160.276" y2="121.293" gradientUnits="userSpaceOnUse">
<stop stop-color="#9C5AFF"/>
<stop offset="0.848958" stop-color="#6C0E65"/>
<stop offset="1" stop-color="#63004A"/>
</linearGradient>
<linearGradient id="paint4_linear" x1="112.281" y1="118.765" x2="112.281" y2="43.1973" gradientUnits="userSpaceOnUse">
<stop stop-color="#D1BBFF"/>
<stop offset="1" stop-color="#DACFFF"/>
</linearGradient>
<linearGradient id="paint5_linear" x1="112.221" y1="114.196" x2="112.221" y2="47.7938" gradientUnits="userSpaceOnUse">
<stop stop-color="#D1BBFF"/>
<stop offset="1" stop-color="white"/>
</linearGradient>
<linearGradient id="paint6_linear" x1="112.865" y1="114.199" x2="112.865" y2="72.8775" gradientUnits="userSpaceOnUse">
<stop stop-color="#E1BDFF"/>
<stop offset="1" stop-color="#B17FFF"/>
</linearGradient>
<linearGradient id="paint7_linear" x1="111.484" y1="114.072" x2="111.484" y2="83.8096" gradientUnits="userSpaceOnUse">
<stop stop-color="#CF95FF"/>
<stop offset="1" stop-color="#9552FF"/>
</linearGradient>
<linearGradient id="paint8_linear" x1="136.669" y1="64.3891" x2="136.669" y2="46.6738" gradientUnits="userSpaceOnUse">
<stop stop-color="#D1BBFF"/>
<stop offset="1" stop-color="#DACFFF"/>
</linearGradient>
<linearGradient id="paint9_linear" x1="87.221" y1="76.6068" x2="87.221" y2="29.0586" gradientUnits="userSpaceOnUse">
<stop stop-color="#3BF1A5"/>
<stop offset="1" stop-color="#6A2C9A"/>
</linearGradient>
<linearGradient id="paint10_linear" x1="161.8" y1="226.669" x2="161.8" y2="139.382" gradientUnits="userSpaceOnUse">
<stop stop-color="#D1BBFF"/>
<stop offset="1" stop-color="#DACFFF"/>
</linearGradient>
<linearGradient id="paint11_linear" x1="190.049" y1="163.878" x2="190.049" y2="143.376" gradientUnits="userSpaceOnUse">
<stop stop-color="#D1BBFF"/>
<stop offset="1" stop-color="#DACFFF"/>
</linearGradient>
<linearGradient id="paint12_linear" x1="161.898" y1="252.279" x2="160.993" y2="217.047" gradientUnits="userSpaceOnUse">
<stop stop-color="#FFB703"/>
<stop offset="1" stop-color="#F2C420"/>
</linearGradient>
<linearGradient id="paint13_linear" x1="112.65" y1="253.106" x2="112.65" y2="237.082" gradientUnits="userSpaceOnUse">
<stop stop-color="#CC8BA1"/>
<stop offset="1" stop-color="white"/>
</linearGradient>
<linearGradient id="paint14_linear" x1="208.623" y1="251.657" x2="208.623" y2="235.532" gradientUnits="userSpaceOnUse">
<stop stop-color="#CC8BA1"/>
<stop offset="1" stop-color="white"/>
</linearGradient>
<radialGradient id="paint15_radial" cx="0" cy="0" r="1" gradientUnits="userSpaceOnUse" gradientTransform="translate(80.2097 143.806) rotate(27.1146) scale(28.85 24.4465)">
<stop stop-color="#FFF857"/>
<stop offset="1" stop-color="#9A7F39"/>
</radialGradient>
<radialGradient id="paint16_radial" cx="0" cy="0" r="1" gradientUnits="userSpaceOnUse" gradientTransform="translate(125.906 112.144) rotate(18.191) scale(34.5043 33.3334)">
<stop stop-color="#FFD313"/>
<stop offset="1" stop-color="#FFB703"/>
</radialGradient>
<linearGradient id="paint17_linear" x1="180.989" y1="67.0337" x2="180.989" y2="33.0534" gradientUnits="userSpaceOnUse">
<stop stop-color="#744FD8"/>
<stop offset="1" stop-color="#3996F7"/>
</linearGradient>
<linearGradient id="paint18_linear" x1="180.862" y1="68.8599" x2="180.862" y2="67.0426" gradientUnits="userSpaceOnUse">
<stop stop-color="#1C257B"/>
<stop offset="1" stop-color="#482C83"/>
</linearGradient>
<linearGradient id="paint19_linear" x1="29.8067" y1="13.0608" x2="30.7356" y2="28.1741" gradientUnits="userSpaceOnUse">
<stop stop-color="#BA0065"/>
<stop offset="1" stop-color="#63004A"/>
</linearGradient>
<radialGradient id="paint20_radial" cx="0" cy="0" r="1" gradientUnits="userSpaceOnUse" gradientTransform="translate(50.3376 202.286) rotate(50.3439) scale(28.1093 15.1108)">
<stop stop-color="#FFD313"/>
<stop offset="1" stop-color="#FFB703"/>
</radialGradient>
</defs>
</svg>
