<svg width="578" height="578" viewBox="0 0 578 578" fill="none" xmlns="http://www.w3.org/2000/svg">
<g opacity="0.91">
<circle r="74.6465" transform="matrix(4.37114e-08 -1 -1 -4.37114e-08 289.006 288.944)" fill="#4A4A4A"/>
<path d="M242.671 276.746H244.591V287.946H242.383V279.082L240.271 279.674L239.727 277.786L242.671 276.746ZM250.458 288.17C249.061 288.17 247.962 287.642 247.162 286.586C246.373 285.52 245.978 284.106 245.978 282.346C245.978 280.586 246.373 279.178 247.162 278.122C247.962 277.056 249.061 276.522 250.458 276.522C251.866 276.522 252.965 277.056 253.754 278.122C254.544 279.178 254.938 280.586 254.938 282.346C254.938 284.106 254.544 285.52 253.754 286.586C252.965 287.642 251.866 288.17 250.458 288.17ZM248.762 285.082C249.146 285.701 249.712 286.01 250.458 286.01C251.205 286.01 251.77 285.696 252.154 285.066C252.549 284.437 252.746 283.53 252.746 282.346C252.746 281.152 252.549 280.24 252.154 279.61C251.77 278.981 251.205 278.666 250.458 278.666C249.712 278.666 249.146 278.981 248.762 279.61C248.378 280.24 248.186 281.152 248.186 282.346C248.186 283.541 248.378 284.453 248.762 285.082ZM260.216 288.17C258.819 288.17 257.72 287.642 256.92 286.586C256.131 285.52 255.736 284.106 255.736 282.346C255.736 280.586 256.131 279.178 256.92 278.122C257.72 277.056 258.819 276.522 260.216 276.522C261.624 276.522 262.723 277.056 263.512 278.122C264.302 279.178 264.696 280.586 264.696 282.346C264.696 284.106 264.302 285.52 263.512 286.586C262.723 287.642 261.624 288.17 260.216 288.17ZM258.52 285.082C258.904 285.701 259.47 286.01 260.216 286.01C260.963 286.01 261.528 285.696 261.912 285.066C262.307 284.437 262.504 283.53 262.504 282.346C262.504 281.152 262.307 280.24 261.912 279.61C261.528 278.981 260.963 278.666 260.216 278.666C259.47 278.666 258.904 278.981 258.52 279.61C258.136 280.24 257.944 281.152 257.944 282.346C257.944 283.541 258.136 284.453 258.52 285.082ZM268.114 285.738L266.914 290.186H265.234L265.874 285.738H268.114ZM277.303 288.17C275.906 288.17 274.807 287.642 274.007 286.586C273.218 285.52 272.823 284.106 272.823 282.346C272.823 280.586 273.218 279.178 274.007 278.122C274.807 277.056 275.906 276.522 277.303 276.522C278.711 276.522 279.81 277.056 280.599 278.122C281.389 279.178 281.783 280.586 281.783 282.346C281.783 284.106 281.389 285.52 280.599 286.586C279.81 287.642 278.711 288.17 277.303 288.17ZM275.607 285.082C275.991 285.701 276.557 286.01 277.303 286.01C278.05 286.01 278.615 285.696 278.999 285.066C279.394 284.437 279.591 283.53 279.591 282.346C279.591 281.152 279.394 280.24 278.999 279.61C278.615 278.981 278.05 278.666 277.303 278.666C276.557 278.666 275.991 278.981 275.607 279.61C275.223 280.24 275.031 281.152 275.031 282.346C275.031 283.541 275.223 284.453 275.607 285.082ZM287.061 288.17C285.664 288.17 284.565 287.642 283.765 286.586C282.976 285.52 282.581 284.106 282.581 282.346C282.581 280.586 282.976 279.178 283.765 278.122C284.565 277.056 285.664 276.522 287.061 276.522C288.469 276.522 289.568 277.056 290.357 278.122C291.147 279.178 291.541 280.586 291.541 282.346C291.541 284.106 291.147 285.52 290.357 286.586C289.568 287.642 288.469 288.17 287.061 288.17ZM285.365 285.082C285.749 285.701 286.315 286.01 287.061 286.01C287.808 286.01 288.373 285.696 288.757 285.066C289.152 284.437 289.349 283.53 289.349 282.346C289.349 281.152 289.152 280.24 288.757 279.61C288.373 278.981 287.808 278.666 287.061 278.666C286.315 278.666 285.749 278.981 285.365 279.61C284.981 280.24 284.789 281.152 284.789 282.346C284.789 283.541 284.981 284.453 285.365 285.082ZM296.82 288.17C295.422 288.17 294.324 287.642 293.524 286.586C292.734 285.52 292.34 284.106 292.34 282.346C292.34 280.586 292.734 279.178 293.524 278.122C294.324 277.056 295.422 276.522 296.82 276.522C298.228 276.522 299.326 277.056 300.116 278.122C300.905 279.178 301.3 280.586 301.3 282.346C301.3 284.106 300.905 285.52 300.116 286.586C299.326 287.642 298.228 288.17 296.82 288.17ZM295.124 285.082C295.508 285.701 296.073 286.01 296.82 286.01C297.566 286.01 298.132 285.696 298.516 285.066C298.91 284.437 299.108 283.53 299.108 282.346C299.108 281.152 298.91 280.24 298.516 279.61C298.132 278.981 297.566 278.666 296.82 278.666C296.073 278.666 295.508 278.981 295.124 279.61C294.74 280.24 294.548 281.152 294.548 282.346C294.548 283.541 294.74 284.453 295.124 285.082ZM304.717 285.738L303.517 290.186H301.837L302.477 285.738H304.717ZM313.906 288.17C312.509 288.17 311.41 287.642 310.61 286.586C309.821 285.52 309.426 284.106 309.426 282.346C309.426 280.586 309.821 279.178 310.61 278.122C311.41 277.056 312.509 276.522 313.906 276.522C315.314 276.522 316.413 277.056 317.202 278.122C317.992 279.178 318.386 280.586 318.386 282.346C318.386 284.106 317.992 285.52 317.202 286.586C316.413 287.642 315.314 288.17 313.906 288.17ZM312.21 285.082C312.594 285.701 313.16 286.01 313.906 286.01C314.653 286.01 315.218 285.696 315.602 285.066C315.997 284.437 316.194 283.53 316.194 282.346C316.194 281.152 315.997 280.24 315.602 279.61C315.218 278.981 314.653 278.666 313.906 278.666C313.16 278.666 312.594 278.981 312.21 279.61C311.826 280.24 311.634 281.152 311.634 282.346C311.634 283.541 311.826 284.453 312.21 285.082ZM323.665 288.17C322.267 288.17 321.169 287.642 320.369 286.586C319.579 285.52 319.185 284.106 319.185 282.346C319.185 280.586 319.579 279.178 320.369 278.122C321.169 277.056 322.267 276.522 323.665 276.522C325.073 276.522 326.171 277.056 326.961 278.122C327.75 279.178 328.145 280.586 328.145 282.346C328.145 284.106 327.75 285.52 326.961 286.586C326.171 287.642 325.073 288.17 323.665 288.17ZM321.969 285.082C322.353 285.701 322.918 286.01 323.665 286.01C324.411 286.01 324.977 285.696 325.361 285.066C325.755 284.437 325.953 283.53 325.953 282.346C325.953 281.152 325.755 280.24 325.361 279.61C324.977 278.981 324.411 278.666 323.665 278.666C322.918 278.666 322.353 278.981 321.969 279.61C321.585 280.24 321.393 281.152 321.393 282.346C321.393 283.541 321.585 284.453 321.969 285.082ZM333.423 288.17C332.025 288.17 330.927 287.642 330.127 286.586C329.337 285.52 328.943 284.106 328.943 282.346C328.943 280.586 329.337 279.178 330.127 278.122C330.927 277.056 332.025 276.522 333.423 276.522C334.831 276.522 335.929 277.056 336.719 278.122C337.508 279.178 337.903 280.586 337.903 282.346C337.903 284.106 337.508 285.52 336.719 286.586C335.929 287.642 334.831 288.17 333.423 288.17ZM331.727 285.082C332.111 285.701 332.676 286.01 333.423 286.01C334.169 286.01 334.735 285.696 335.119 285.066C335.513 284.437 335.711 283.53 335.711 282.346C335.711 281.152 335.513 280.24 335.119 279.61C334.735 278.981 334.169 278.666 333.423 278.666C332.676 278.666 332.111 278.981 331.727 279.61C331.343 280.24 331.151 281.152 331.151 282.346C331.151 283.541 331.343 284.453 331.727 285.082ZM261.875 306.138C262.419 306.373 262.851 306.73 263.171 307.21C263.502 307.68 263.667 308.218 263.667 308.826C263.667 309.69 263.363 310.426 262.755 311.034C262.147 311.642 261.411 311.946 260.547 311.946H255.667V300.746H260.179C261.011 300.746 261.721 301.045 262.307 301.642C262.894 302.229 263.187 302.933 263.187 303.754C263.187 304.8 262.75 305.594 261.875 306.138ZM260.179 301.802H256.787V305.706H260.179C260.702 305.706 261.145 305.52 261.507 305.146C261.881 304.762 262.067 304.298 262.067 303.754C262.067 303.221 261.881 302.762 261.507 302.378C261.145 301.994 260.702 301.802 260.179 301.802ZM260.547 310.89C261.102 310.89 261.571 310.693 261.955 310.298C262.35 309.893 262.547 309.402 262.547 308.826C262.547 308.261 262.35 307.776 261.955 307.37C261.571 306.965 261.102 306.762 260.547 306.762H256.787V310.89H260.547ZM271.997 300.746V301.802H268.557V311.946H267.437V301.802H263.997V300.746H271.997ZM283.997 300.746V301.802H280.557V311.946H279.437V301.802H275.997V300.746H283.997ZM290.385 310.938C289.574 311.738 288.582 312.138 287.409 312.138C286.235 312.138 285.238 311.738 284.417 310.938C283.606 310.128 283.201 309.13 283.201 307.946C283.201 306.762 283.606 305.77 284.417 304.97C285.238 304.16 286.235 303.754 287.409 303.754C288.582 303.754 289.574 304.16 290.385 304.97C291.206 305.77 291.617 306.762 291.617 307.946C291.617 309.13 291.206 310.128 290.385 310.938ZM285.169 310.202C285.777 310.81 286.523 311.114 287.409 311.114C288.294 311.114 289.041 310.81 289.649 310.202C290.257 309.584 290.561 308.832 290.561 307.946C290.561 307.061 290.257 306.314 289.649 305.706C289.041 305.088 288.294 304.778 287.409 304.778C286.523 304.778 285.777 305.088 285.169 305.706C284.561 306.314 284.257 307.061 284.257 307.946C284.257 308.832 284.561 309.584 285.169 310.202ZM299.528 311.946H298.12L294.12 308.09V311.946H293.064V300.746H294.12V307.482L297.928 303.946H299.368L295.24 307.786L299.528 311.946ZM303.549 303.754C304.733 303.754 305.688 304.176 306.413 305.018C307.149 305.85 307.517 306.837 307.517 307.978C307.517 308.096 307.506 308.261 307.485 308.474H300.461C300.568 309.285 300.909 309.93 301.485 310.41C302.072 310.88 302.792 311.114 303.645 311.114C304.253 311.114 304.776 310.992 305.213 310.746C305.661 310.49 305.997 310.16 306.221 309.754L307.149 310.298C306.797 310.864 306.317 311.312 305.709 311.642C305.101 311.973 304.408 312.138 303.629 312.138C302.37 312.138 301.346 311.744 300.557 310.954C299.768 310.165 299.373 309.162 299.373 307.946C299.373 306.752 299.762 305.754 300.541 304.954C301.32 304.154 302.322 303.754 303.549 303.754ZM303.549 304.778C302.717 304.778 302.018 305.029 301.453 305.53C300.898 306.021 300.568 306.661 300.461 307.45H306.429C306.322 306.608 305.997 305.952 305.453 305.482C304.909 305.013 304.274 304.778 303.549 304.778ZM312.621 303.754C313.591 303.754 314.354 304.053 314.909 304.65C315.474 305.237 315.757 306.032 315.757 307.034V311.946H314.701V307.034C314.701 306.32 314.509 305.765 314.125 305.37C313.751 304.976 313.218 304.778 312.525 304.778C311.757 304.778 311.133 305.024 310.653 305.514C310.173 305.994 309.933 306.741 309.933 307.754V311.946H308.877V303.946H309.933V305.194C310.53 304.234 311.426 303.754 312.621 303.754ZM318.311 306.042C318.311 306.405 318.471 306.693 318.791 306.906C319.111 307.12 319.5 307.285 319.959 307.402C320.417 307.52 320.876 307.653 321.335 307.802C321.793 307.941 322.183 308.181 322.503 308.522C322.823 308.853 322.983 309.29 322.983 309.834C322.983 310.517 322.711 311.072 322.167 311.498C321.633 311.925 320.94 312.138 320.087 312.138C319.319 312.138 318.663 311.968 318.119 311.626C317.585 311.285 317.212 310.842 316.999 310.298L317.895 309.77C318.044 310.186 318.311 310.517 318.695 310.762C319.089 310.997 319.553 311.114 320.087 311.114C320.609 311.114 321.047 311.013 321.399 310.81C321.751 310.597 321.927 310.272 321.927 309.834C321.927 309.472 321.767 309.184 321.447 308.97C321.127 308.757 320.737 308.592 320.279 308.474C319.82 308.357 319.361 308.229 318.903 308.09C318.444 307.941 318.055 307.701 317.735 307.37C317.415 307.029 317.255 306.586 317.255 306.042C317.255 305.392 317.511 304.848 318.023 304.41C318.545 303.973 319.201 303.754 319.991 303.754C320.641 303.754 321.212 303.904 321.703 304.202C322.193 304.49 322.556 304.885 322.791 305.386L321.911 305.898C321.601 305.152 320.961 304.778 319.991 304.778C319.532 304.778 319.137 304.89 318.807 305.114C318.476 305.328 318.311 305.637 318.311 306.042Z" fill="white"/>
<path d="M310.896 76.6042C301.998 75.687 293.052 75.3299 284.11 75.535L286.117 163.033C291.393 162.912 296.672 163.122 301.921 163.664L310.896 76.6042Z" fill="#CDDD6D"/>
<path d="M493.518 227.762C481.581 187.861 458.233 152.323 426.349 125.526C394.466 98.7301 355.44 81.8461 314.08 76.9543L303.8 163.869C328.203 166.755 351.228 176.717 370.039 192.527C388.85 208.337 402.626 229.304 409.669 252.846L493.518 227.762Z" fill="url(#paint0_linear)"/>
<path d="M502.418 284.208C502.021 266.306 499.373 248.524 494.536 231.283L410.268 254.924C413.122 265.096 414.685 275.587 414.919 286.15L502.418 284.208Z" fill="url(#paint1_linear)"/>
<path d="M256.68 499.949C287.18 504.622 318.332 502.627 347.988 494.101C377.643 485.576 405.098 470.722 428.46 450.564C451.823 430.406 470.537 405.422 483.314 377.335C496.09 349.248 502.626 318.724 502.47 287.868L414.95 288.31C415.042 306.515 411.186 324.524 403.648 341.095C396.11 357.667 385.068 372.407 371.285 384.301C357.501 396.194 341.303 404.958 323.806 409.988C306.309 415.018 287.93 416.195 269.934 413.438L256.68 499.949Z" fill="url(#paint2_linear)"/>
<path d="M100.329 388.781C115.555 417.555 137.16 442.466 163.492 461.608C189.824 480.749 220.185 493.615 252.253 499.22L267.323 413.006C248.403 409.699 230.489 402.108 214.954 390.815C199.418 379.521 186.671 364.824 177.687 347.847L100.329 388.781Z" fill="url(#paint3_linear)"/>
<path d="M78.1628 322.296C81.6623 344.421 88.6225 365.857 98.7878 385.818L176.778 346.101C170.78 334.324 166.674 321.676 164.609 308.623L78.1628 322.296Z" fill="url(#paint4_linear)"/>
<path d="M75.5827 293.124C75.7578 302.067 76.4949 310.99 77.7894 319.84L164.389 307.173C163.625 301.951 163.19 296.687 163.087 291.41L75.5827 293.124Z" fill="url(#paint5_linear)"/>
<path d="M281.391 75.6153C225.973 77.5938 173.499 101.06 135.079 141.048C96.6587 181.035 75.307 234.404 75.5439 289.857L163.064 289.483C162.924 256.765 175.522 225.278 198.19 201.685C220.858 178.093 251.817 164.248 284.514 163.08L281.391 75.6153Z" fill="url(#paint6_linear)"/>
</g>
<g opacity="0.9">
<path d="M308.788 97.0434C300.747 96.2145 292.662 95.8918 284.58 96.0772L286.439 177.081C291.126 176.973 295.816 177.16 300.479 177.641L308.788 97.0434Z" fill="#CDDD6D"/>
<path d="M473.831 233.651C463.043 197.59 441.942 165.473 413.128 141.257C384.314 117.04 349.045 101.781 311.666 97.3603L302.149 177.824C323.829 180.389 344.285 189.239 360.997 203.284C377.71 217.33 389.948 235.958 396.205 256.873L473.831 233.651Z" fill="url(#paint7_linear)"/>
<path d="M481.877 284.662C481.518 268.483 479.124 252.414 474.753 236.832L396.74 258.718C399.275 267.756 400.663 277.076 400.872 286.46L481.877 284.662Z" fill="url(#paint8_linear)"/>
<path d="M259.789 479.637C287.354 483.86 315.507 482.057 342.308 474.352C369.108 466.647 393.92 453.223 415.034 435.006C436.147 416.788 453.06 394.209 464.607 368.826C476.153 343.442 482.06 315.857 481.919 287.971L400.895 288.38C400.977 304.554 397.551 320.554 390.854 335.276C384.157 349.999 374.347 363.094 362.102 373.66C349.856 384.227 335.465 392.013 319.92 396.481C304.376 400.95 288.047 401.996 272.06 399.547L259.789 479.637Z" fill="url(#paint9_linear)"/>
<path d="M118.491 379.17C132.251 405.174 151.777 427.687 175.574 444.986C199.371 462.285 226.81 473.912 255.791 478.977L269.742 399.162C252.933 396.224 237.018 389.481 223.216 379.447C209.413 369.414 198.089 356.357 190.108 341.274L118.491 379.17Z" fill="url(#paint10_linear)"/>
<path d="M98.4594 319.085C101.622 339.08 107.912 358.453 117.099 376.492L189.3 339.723C183.972 329.26 180.324 318.023 178.49 306.426L98.4594 319.085Z" fill="url(#paint11_linear)"/>
<path d="M96.1274 292.721C96.2857 300.803 96.9518 308.867 98.1218 316.866L178.294 305.139C177.615 300.499 177.229 295.822 177.137 291.135L96.1274 292.721Z" fill="url(#paint12_linear)"/>
<path d="M282.123 96.1508C232.04 97.9389 184.618 119.147 149.896 155.284C115.174 191.422 95.8777 239.654 96.0918 289.769L177.116 289.422C176.992 260.356 188.184 232.382 208.322 211.422C228.461 190.462 255.966 178.161 285.014 177.124L282.123 96.1508Z" fill="url(#paint13_linear)"/>
</g>
<path d="M40.6082 314.474H48.7425V313.089H42.7488V312.988L45.6449 309.89C47.861 307.517 48.5158 306.409 48.5158 304.979C48.5158 302.99 46.9041 301.403 44.6375 301.403C42.3773 301.403 40.6585 302.94 40.6585 305.206H42.1444C42.1444 303.739 43.0951 302.763 44.5872 302.763C45.9849 302.763 47.0552 303.619 47.0552 304.979C47.0552 306.169 46.3563 307.051 44.8642 308.681L40.6082 313.34V314.474ZM57.561 312.056C57.561 313.466 58.4424 314.65 60.0794 314.65C61.6911 314.65 62.5726 313.466 62.5726 312.056V311.376C62.5726 309.966 61.7163 308.782 60.0794 308.782C58.4676 308.782 57.561 309.966 57.561 311.376V312.056ZM51.1392 304.677C51.1392 306.087 52.0206 307.271 53.6576 307.271C55.2693 307.271 56.1507 306.087 56.1507 304.677V303.997C56.1507 302.587 55.2945 301.403 53.6576 301.403C52.0458 301.403 51.1392 302.587 51.1392 303.997V304.677ZM51.6177 314.474H53.0532L61.9178 301.58H60.4823L51.6177 314.474ZM58.8454 311.376C58.8454 310.595 59.198 309.865 60.0794 309.865C60.986 309.865 61.2882 310.595 61.2882 311.376V312.056C61.2882 312.837 60.9608 313.567 60.0794 313.567C59.1728 313.567 58.8454 312.837 58.8454 312.056V311.376ZM52.4236 303.997C52.4236 303.217 52.7761 302.486 53.6576 302.486C54.5642 302.486 54.8664 303.217 54.8664 303.997V304.677C54.8664 305.458 54.539 306.188 53.6576 306.188C52.7509 306.188 52.4236 305.458 52.4236 304.677V303.997Z" fill="#060317"/>
<path d="M127.837 345.75C130.292 345.75 132.093 343.936 132.093 341.468C132.093 338.969 130.355 337.137 127.988 337.137C127.119 337.137 126.275 337.445 125.747 337.867H125.671L126.124 334.064H131.514V332.679H124.815L124.034 339.026L125.495 339.202C126.03 338.818 126.943 338.541 127.736 338.547C129.379 338.56 130.582 339.806 130.582 341.493C130.582 343.149 129.423 344.364 127.837 344.364C126.515 344.364 125.463 343.514 125.344 342.35H123.833C123.927 344.314 125.621 345.75 127.837 345.75ZM140.812 343.156C140.812 344.566 141.694 345.75 143.331 345.75C144.942 345.75 145.824 344.566 145.824 343.156V342.476C145.824 341.065 144.967 339.882 143.331 339.882C141.719 339.882 140.812 341.065 140.812 342.476V343.156ZM134.39 335.777C134.39 337.187 135.272 338.371 136.909 338.371C138.52 338.371 139.402 337.187 139.402 335.777V335.097C139.402 333.687 138.546 332.503 136.909 332.503C135.297 332.503 134.39 333.687 134.39 335.097V335.777ZM134.869 345.573H136.304L145.169 332.679H143.733L134.869 345.573ZM142.097 342.476C142.097 341.695 142.449 340.965 143.331 340.965C144.237 340.965 144.539 341.695 144.539 342.476V343.156C144.539 343.936 144.212 344.667 143.331 344.667C142.424 344.667 142.097 343.936 142.097 343.156V342.476ZM135.675 335.097C135.675 334.316 136.027 333.586 136.909 333.586C137.815 333.586 138.118 334.316 138.118 335.097V335.777C138.118 336.558 137.79 337.288 136.909 337.288C136.002 337.288 135.675 336.558 135.675 335.777V335.097Z" fill="white"/>
<path d="M186.542 408.652H184.98L181.757 410.793V412.38L184.905 410.289H184.98V421.546H186.542V408.652ZM193.925 421.723C196.38 421.723 198.181 419.909 198.181 417.441C198.181 414.942 196.443 413.11 194.076 413.11C193.207 413.11 192.363 413.418 191.834 413.84H191.759L192.212 410.037H197.601V408.652H190.903L190.122 414.999L191.583 415.175C192.118 414.791 193.031 414.514 193.824 414.52C195.467 414.533 196.67 415.779 196.67 417.467C196.67 419.122 195.511 420.338 193.925 420.338C192.603 420.338 191.551 419.488 191.432 418.323H189.92C190.015 420.287 191.709 421.723 193.925 421.723ZM206.9 419.129C206.9 420.539 207.782 421.723 209.418 421.723C211.03 421.723 211.912 420.539 211.912 419.129V418.449C211.912 417.039 211.055 415.855 209.418 415.855C207.807 415.855 206.9 417.039 206.9 418.449V419.129ZM200.478 411.75C200.478 413.16 201.36 414.344 202.997 414.344C204.608 414.344 205.49 413.16 205.49 411.75V411.07C205.49 409.66 204.634 408.476 202.997 408.476C201.385 408.476 200.478 409.66 200.478 411.07V411.75ZM200.957 421.546H202.392L211.257 408.652H209.821L200.957 421.546ZM208.184 418.449C208.184 417.668 208.537 416.938 209.418 416.938C210.325 416.938 210.627 417.668 210.627 418.449V419.129C210.627 419.909 210.3 420.64 209.418 420.64C208.512 420.64 208.184 419.909 208.184 419.129V418.449ZM201.763 411.07C201.763 410.289 202.115 409.559 202.997 409.559C203.903 409.559 204.205 410.289 204.205 411.07V411.75C204.205 412.531 203.878 413.261 202.997 413.261C202.09 413.261 201.763 412.531 201.763 411.75V411.07Z" fill="white"/>
<path d="M387.712 414.455H395.846V413.069H389.852V412.969L392.748 409.871C394.965 407.498 395.619 406.39 395.619 404.96C395.619 402.971 394.008 401.384 391.741 401.384C389.481 401.384 387.762 402.92 387.762 405.187H389.248C389.248 403.72 390.199 402.744 391.691 402.744C393.088 402.744 394.159 403.6 394.159 404.96C394.159 406.15 393.46 407.032 391.968 408.662L387.712 413.321V414.455ZM402.222 414.631C404.797 414.631 406.591 413.126 406.604 411.03C406.591 409.399 405.502 408.014 404.11 407.756V407.68C405.319 407.365 406.113 406.182 406.125 404.809C406.113 402.845 404.463 401.384 402.222 401.384C399.955 401.384 398.306 402.845 398.318 404.809C398.306 406.182 399.099 407.365 400.333 407.68V407.756C398.916 408.014 397.827 409.399 397.84 411.03C397.827 413.126 399.622 414.631 402.222 414.631ZM402.222 413.246C400.453 413.246 399.363 412.339 399.376 410.954C399.363 409.5 400.566 408.461 402.222 408.461C403.852 408.461 405.055 409.5 405.067 410.954C405.055 412.339 403.966 413.246 402.222 413.246ZM402.222 407.126C400.811 407.126 399.817 406.245 399.829 404.91C399.817 403.6 400.774 402.744 402.222 402.744C403.645 402.744 404.602 403.6 404.614 404.91C404.602 406.245 403.607 407.126 402.222 407.126ZM415.235 412.037C415.235 413.447 416.116 414.631 417.753 414.631C419.365 414.631 420.246 413.447 420.246 412.037V411.357C420.246 409.947 419.39 408.763 417.753 408.763C416.142 408.763 415.235 409.947 415.235 411.357V412.037ZM408.813 404.658C408.813 406.068 409.695 407.252 411.331 407.252C412.943 407.252 413.825 406.068 413.825 404.658V403.978C413.825 402.568 412.968 401.384 411.331 401.384C409.72 401.384 408.813 402.568 408.813 403.978V404.658ZM409.292 414.455H410.727L419.592 401.561H418.156L409.292 414.455ZM416.519 411.357C416.519 410.576 416.872 409.846 417.753 409.846C418.66 409.846 418.962 410.576 418.962 411.357V412.037C418.962 412.818 418.635 413.548 417.753 413.548C416.847 413.548 416.519 412.818 416.519 412.037V411.357ZM410.097 403.978C410.097 403.198 410.45 402.467 411.331 402.467C412.238 402.467 412.54 403.198 412.54 403.978V404.658C412.54 405.439 412.213 406.169 411.331 406.169C410.425 406.169 410.097 405.439 410.097 404.658V403.978Z" fill="white"/>
<path d="M313.511 70.1924H321.645V68.8073H315.651V68.7065L318.547 65.609C320.763 63.2354 321.418 62.1273 321.418 60.6982C321.418 58.7087 319.806 57.1221 317.54 57.1221C315.28 57.1221 313.561 58.6583 313.561 60.9248H315.047C315.047 59.4579 315.997 58.482 317.49 58.482C318.887 58.482 319.958 59.3382 319.958 60.6982C319.958 61.8881 319.259 62.7695 317.767 64.4002L313.511 69.0591V70.1924ZM330.463 67.7748C330.463 69.185 331.345 70.3687 332.982 70.3687C334.593 70.3687 335.475 69.185 335.475 67.7748V67.0948C335.475 65.6845 334.619 64.5009 332.982 64.5009C331.37 64.5009 330.463 65.6845 330.463 67.0948V67.7748ZM324.042 60.396C324.042 61.8062 324.923 62.9899 326.56 62.9899C328.172 62.9899 329.053 61.8062 329.053 60.396V59.716C329.053 58.3057 328.197 57.1221 326.56 57.1221C324.948 57.1221 324.042 58.3057 324.042 59.716V60.396ZM324.52 70.1924H325.955L334.82 57.2984H333.385L324.52 70.1924ZM331.748 67.0948C331.748 66.3141 332.1 65.5838 332.982 65.5838C333.888 65.5838 334.191 66.3141 334.191 67.0948V67.7748C334.191 68.5554 333.863 69.2858 332.982 69.2858C332.075 69.2858 331.748 68.5554 331.748 67.7748V67.0948ZM325.326 59.716C325.326 58.9353 325.678 58.205 326.56 58.205C327.467 58.205 327.769 58.9353 327.769 59.716V60.396C327.769 61.1767 327.441 61.907 326.56 61.907C325.653 61.907 325.326 61.1767 325.326 60.396V59.716Z" fill="#060317"/>
<path d="M260.804 30.4757H262.164C262.102 28.7249 260.487 27.4159 258.243 27.4159C256.022 27.4159 254.277 28.7079 254.277 30.6571C254.277 32.221 255.41 33.1502 257.223 33.6715L258.651 34.0795C259.875 34.4195 260.963 34.8501 260.963 36.0061C260.963 37.2753 259.739 38.1139 258.13 38.1139C256.747 38.1139 255.523 37.502 255.41 36.1874H253.959C254.095 38.0913 255.637 39.3832 258.13 39.3832C260.804 39.3832 262.323 37.9099 262.323 36.0287C262.323 33.8529 260.26 33.1502 259.059 32.8329L257.88 32.5156C257.019 32.289 255.637 31.8357 255.637 30.5891C255.637 29.4785 256.657 28.6625 258.198 28.6625C259.603 28.6625 260.668 29.3311 260.804 30.4757ZM267.918 30.4757H266.059V28.3905H264.722V30.4757H263.408V31.609H264.722V37.0487C264.722 38.5672 265.946 39.2925 267.079 39.2925C267.578 39.2925 267.895 39.2019 268.077 39.1339L267.805 37.9326C267.691 37.9553 267.51 38.0006 267.215 38.0006C266.626 38.0006 266.059 37.8193 266.059 36.686V31.609H267.918V30.4757ZM272.171 39.3832C273.69 39.3832 274.483 38.5672 274.755 38.0006H274.823V39.1792H276.161V33.4449C276.161 30.6797 274.053 30.3624 272.942 30.3624C271.628 30.3624 270.132 30.8157 269.452 32.4023L270.721 32.8556C271.016 32.221 271.713 31.541 272.987 31.541C274.217 31.541 274.823 32.1926 274.823 33.3089V33.3542C274.823 34.0002 274.166 33.9435 272.579 34.1475C270.965 34.3572 269.202 34.7141 269.202 36.7087C269.202 38.4086 270.517 39.3832 272.171 39.3832ZM272.375 38.1819C271.31 38.1819 270.54 37.706 270.54 36.7767C270.54 35.7567 271.469 35.4394 272.511 35.3034C273.078 35.2354 274.597 35.0768 274.823 34.8048V36.0287C274.823 37.1167 273.962 38.1819 272.375 38.1819ZM278.282 39.1792H279.619V33.6715C279.619 32.493 280.549 31.6317 281.818 31.6317C282.175 31.6317 282.543 31.6997 282.634 31.7223V30.3624C282.481 30.3511 282.13 30.3398 281.931 30.3398C280.889 30.3398 279.982 30.929 279.665 31.7903H279.574V30.4757H278.282V39.1792ZM288.23 30.4757H286.372V28.3905H285.035V30.4757H283.72V31.609H285.035V37.0487C285.035 38.5672 286.259 39.2925 287.392 39.2925C287.89 39.2925 288.208 39.2019 288.389 39.1339L288.117 37.9326C288.004 37.9553 287.822 38.0006 287.528 38.0006C286.939 38.0006 286.372 37.8193 286.372 36.686V31.609H288.23V30.4757Z" fill="#060317"/>
<path d="M157.223 188.535H165.358V187.15H159.364V187.049L162.26 183.951C164.476 181.578 165.131 180.47 165.131 179.04C165.131 177.051 163.519 175.464 161.253 175.464C158.993 175.464 157.274 177.001 157.274 179.267H158.76C158.76 177.8 159.71 176.824 161.202 176.824C162.6 176.824 163.67 177.681 163.67 179.04C163.67 180.23 162.972 181.112 161.479 182.742L157.223 187.401V188.535ZM171.633 188.711C174.088 188.711 175.889 186.898 175.889 184.43C175.889 181.93 174.151 180.098 171.784 180.098C170.915 180.098 170.071 180.407 169.542 180.828H169.467L169.92 177.026H175.31V175.641H168.611L167.83 181.987L169.291 182.163C169.826 181.779 170.739 181.502 171.532 181.508C173.175 181.521 174.378 182.768 174.378 184.455C174.378 186.111 173.219 187.326 171.633 187.326C170.311 187.326 169.259 186.476 169.14 185.311H167.629C167.723 187.275 169.417 188.711 171.633 188.711ZM184.608 186.117C184.608 187.527 185.49 188.711 187.126 188.711C188.738 188.711 189.62 187.527 189.62 186.117V185.437C189.62 184.027 188.763 182.843 187.126 182.843C185.515 182.843 184.608 184.027 184.608 185.437V186.117ZM178.186 178.738C178.186 180.149 179.068 181.332 180.705 181.332C182.316 181.332 183.198 180.149 183.198 178.738V178.058C183.198 176.648 182.342 175.464 180.705 175.464C179.093 175.464 178.186 176.648 178.186 178.058V178.738ZM178.665 188.535H180.1L188.965 175.641H187.529L178.665 188.535ZM185.892 185.437C185.892 184.656 186.245 183.926 187.126 183.926C188.033 183.926 188.335 184.656 188.335 185.437V186.117C188.335 186.898 188.008 187.628 187.126 187.628C186.22 187.628 185.892 186.898 185.892 186.117V185.437ZM179.471 178.058C179.471 177.278 179.823 176.547 180.705 176.547C181.611 176.547 181.913 177.278 181.913 178.058V178.738C181.913 179.519 181.586 180.249 180.705 180.249C179.798 180.249 179.471 179.519 179.471 178.738V178.058Z" fill="white"/>
<path d="M381.454 163.23H379.892L376.669 165.371V166.957L379.817 164.867H379.892V176.124H381.454V163.23ZM388.912 163.054C386.293 163.022 384.606 164.993 384.606 167.36C384.606 169.853 386.444 171.641 388.661 171.641C389.995 171.641 391.129 170.987 391.834 169.929H391.934C391.934 173.102 390.7 174.915 388.711 174.915C387.351 174.915 386.52 174.059 386.243 172.875H384.707C385.009 174.915 386.545 176.3 388.711 176.3C391.607 176.3 393.395 173.732 393.395 169.148C393.395 164.414 391.028 163.079 388.912 163.054ZM388.912 164.439C390.524 164.439 391.708 165.824 391.708 167.335C391.708 168.871 390.449 170.256 388.862 170.256C387.275 170.256 386.117 168.972 386.117 167.36C386.117 165.748 387.326 164.439 388.912 164.439ZM402.089 173.706C402.089 175.117 402.971 176.3 404.608 176.3C406.219 176.3 407.101 175.117 407.101 173.706V173.026C407.101 171.616 406.245 170.433 404.608 170.433C402.996 170.433 402.089 171.616 402.089 173.026V173.706ZM395.667 166.328C395.667 167.738 396.549 168.922 398.186 168.922C399.798 168.922 400.679 167.738 400.679 166.328V165.648C400.679 164.237 399.823 163.054 398.186 163.054C396.574 163.054 395.667 164.237 395.667 165.648V166.328ZM396.146 176.124H397.581L406.446 163.23H405.011L396.146 176.124ZM403.374 173.026C403.374 172.246 403.726 171.515 404.608 171.515C405.514 171.515 405.816 172.246 405.816 173.026V173.706C405.816 174.487 405.489 175.217 404.608 175.217C403.701 175.217 403.374 174.487 403.374 173.706V173.026ZM396.952 165.648C396.952 164.867 397.304 164.137 398.186 164.137C399.092 164.137 399.395 164.867 399.395 165.648V166.328C399.395 167.108 399.067 167.839 398.186 167.839C397.279 167.839 396.952 167.108 396.952 166.328V165.648Z" fill="white"/>
<path d="M439.327 270.453H445.397V273.098H446.883V270.453H448.645V269.068H446.883V260.204H444.994L439.327 269.169V270.453ZM445.397 269.068H441.015V268.968L445.296 262.193H445.397V269.068ZM457.223 270.68C457.223 272.09 458.105 273.274 459.741 273.274C461.353 273.274 462.235 272.09 462.235 270.68V270C462.235 268.59 461.378 267.406 459.741 267.406C458.13 267.406 457.223 268.59 457.223 270V270.68ZM450.801 263.301C450.801 264.712 451.683 265.895 453.32 265.895C454.931 265.895 455.813 264.712 455.813 263.301V262.621C455.813 261.211 454.957 260.027 453.32 260.027C451.708 260.027 450.801 261.211 450.801 262.621V263.301ZM451.28 273.098H452.715L461.58 260.204H460.144L451.28 273.098ZM458.507 270C458.507 269.219 458.86 268.489 459.741 268.489C460.648 268.489 460.95 269.219 460.95 270V270.68C460.95 271.461 460.623 272.191 459.741 272.191C458.835 272.191 458.507 271.461 458.507 270.68V270ZM452.086 262.621C452.086 261.841 452.438 261.11 453.32 261.11C454.226 261.11 454.528 261.841 454.528 262.621V263.301C454.528 264.082 454.201 264.812 453.32 264.812C452.413 264.812 452.086 264.082 452.086 263.301V262.621Z" fill="white"/>
<path fill-rule="evenodd" clip-rule="evenodd" d="M299.283 38.0997L302.362 35.6393L302.207 35.1153C340.308 37.0953 377.482 47.6283 410.967 65.9404C444.885 84.4892 474.125 110.531 496.461 142.083C518.798 173.636 533.642 209.868 539.865 248.022C545.939 285.261 543.644 323.372 533.161 359.593L530.956 358.878L531.917 364.471L535.973 360.503L533.646 359.75C544.153 323.452 546.454 285.258 540.368 247.94C534.132 209.71 519.258 173.405 496.877 141.789C474.495 110.173 445.197 84.0795 411.211 65.4935C377.606 47.116 340.294 36.5576 302.054 34.5974L301.186 31.6582H297.381L296.205 35.6393L299.283 38.0997Z" fill="#060317"/>
<defs>
<linearGradient id="paint0_linear" x1="414.076" y1="400.233" x2="181.002" y2="2.26491" gradientUnits="userSpaceOnUse">
<stop stop-color="#D01240"/>
<stop offset="1" stop-color="#D85086"/>
</linearGradient>
<linearGradient id="paint1_linear" x1="312.563" y1="364.891" x2="343.194" y2="84.2413" gradientUnits="userSpaceOnUse">
<stop stop-color="#2C28DB"/>
<stop offset="1" stop-color="#D40CD8" stop-opacity="0.69"/>
</linearGradient>
<linearGradient id="paint2_linear" x1="276.251" y1="265.224" x2="543.668" y2="448.556" gradientUnits="userSpaceOnUse">
<stop stop-color="#0B3A82"/>
<stop offset="1" stop-color="#43A7D2" stop-opacity="0.65"/>
</linearGradient>
<linearGradient id="paint3_linear" x1="374.017" y1="-6.81373" x2="585.96" y2="415.369" gradientUnits="userSpaceOnUse">
<stop stop-color="#309A04"/>
<stop offset="1" stop-color="#93EB23"/>
</linearGradient>
<linearGradient id="paint4_linear" x1="355.219" y1="62.3546" x2="359.451" y2="562.319" gradientUnits="userSpaceOnUse">
<stop stop-color="#58555C"/>
<stop offset="0.524816" stop-color="#45424B"/>
<stop offset="1" stop-color="#36343A"/>
</linearGradient>
<linearGradient id="paint5_linear" x1="284.828" y1="75.5199" x2="293.187" y2="502.369" gradientUnits="userSpaceOnUse">
<stop stop-color="#23EFEF"/>
<stop offset="1" stop-color="#1B9EC8"/>
</linearGradient>
<linearGradient id="paint6_linear" x1="290.932" y1="261.233" x2="-66.5407" y2="250.369" gradientUnits="userSpaceOnUse">
<stop stop-color="#EFBD07"/>
<stop offset="1" stop-color="#BBA84B"/>
</linearGradient>
<linearGradient id="paint7_linear" x1="402.036" y1="389.519" x2="191.398" y2="29.8607" gradientUnits="userSpaceOnUse">
<stop stop-color="#D01240"/>
<stop offset="1" stop-color="#D85086"/>
</linearGradient>
<linearGradient id="paint8_linear" x1="310.297" y1="357.579" x2="337.979" y2="103.945" gradientUnits="userSpaceOnUse">
<stop stop-color="#2C28DB"/>
<stop offset="1" stop-color="#D40CD8" stop-opacity="0.69"/>
</linearGradient>
<linearGradient id="paint9_linear" x1="277.476" y1="267.507" x2="519.151" y2="433.191" gradientUnits="userSpaceOnUse">
<stop stop-color="#0B3A82"/>
<stop offset="1" stop-color="#43A7D2" stop-opacity="0.65"/>
</linearGradient>
<linearGradient id="paint10_linear" x1="365.833" y1="21.656" x2="557.374" y2="403.198" gradientUnits="userSpaceOnUse">
<stop stop-color="#309A04"/>
<stop offset="1" stop-color="#93EB23"/>
</linearGradient>
<linearGradient id="paint11_linear" x1="348.845" y1="84.1661" x2="352.67" y2="536.003" gradientUnits="userSpaceOnUse">
<stop stop-color="#58555C"/>
<stop offset="0.524816" stop-color="#45424B"/>
<stop offset="1" stop-color="#36343A"/>
</linearGradient>
<linearGradient id="paint12_linear" x1="285.23" y1="96.0644" x2="292.784" y2="481.824" gradientUnits="userSpaceOnUse">
<stop stop-color="#23EFEF"/>
<stop offset="1" stop-color="#1B9EC8"/>
</linearGradient>
<linearGradient id="paint13_linear" x1="342.702" y1="291.308" x2="-5.03343" y2="242.382" gradientUnits="userSpaceOnUse">
<stop stop-color="#EFBD07"/>
<stop offset="1" stop-color="#BBA84B"/>
</linearGradient>
</defs>
</svg>
