<svg width="578" height="578" viewBox="0 0 578 578" fill="none" xmlns="http://www.w3.org/2000/svg">
<g opacity="0.91">
<circle r="74.6465" transform="matrix(4.37114e-08 -1 -1 -4.37114e-08 289.006 289.263)" fill="#4A4A4A"/>
<path d="M242.671 277.065H244.591V288.265H242.383V279.401L240.271 279.993L239.727 278.105L242.671 277.065ZM250.458 288.489C249.061 288.489 247.962 287.961 247.162 286.905C246.373 285.838 245.978 284.425 245.978 282.665C245.978 280.905 246.373 279.497 247.162 278.441C247.962 277.374 249.061 276.841 250.458 276.841C251.866 276.841 252.965 277.374 253.754 278.441C254.544 279.497 254.938 280.905 254.938 282.665C254.938 284.425 254.544 285.838 253.754 286.905C252.965 287.961 251.866 288.489 250.458 288.489ZM248.762 285.401C249.146 286.019 249.712 286.329 250.458 286.329C251.205 286.329 251.77 286.014 252.154 285.385C252.549 284.755 252.746 283.849 252.746 282.665C252.746 281.47 252.549 280.558 252.154 279.929C251.77 279.299 251.205 278.985 250.458 278.985C249.712 278.985 249.146 279.299 248.762 279.929C248.378 280.558 248.186 281.47 248.186 282.665C248.186 283.859 248.378 284.771 248.762 285.401ZM260.216 288.489C258.819 288.489 257.72 287.961 256.92 286.905C256.131 285.838 255.736 284.425 255.736 282.665C255.736 280.905 256.131 279.497 256.92 278.441C257.72 277.374 258.819 276.841 260.216 276.841C261.624 276.841 262.723 277.374 263.512 278.441C264.302 279.497 264.696 280.905 264.696 282.665C264.696 284.425 264.302 285.838 263.512 286.905C262.723 287.961 261.624 288.489 260.216 288.489ZM258.52 285.401C258.904 286.019 259.47 286.329 260.216 286.329C260.963 286.329 261.528 286.014 261.912 285.385C262.307 284.755 262.504 283.849 262.504 282.665C262.504 281.47 262.307 280.558 261.912 279.929C261.528 279.299 260.963 278.985 260.216 278.985C259.47 278.985 258.904 279.299 258.52 279.929C258.136 280.558 257.944 281.47 257.944 282.665C257.944 283.859 258.136 284.771 258.52 285.401ZM268.114 286.057L266.914 290.505H265.234L265.874 286.057H268.114ZM277.303 288.489C275.906 288.489 274.807 287.961 274.007 286.905C273.218 285.838 272.823 284.425 272.823 282.665C272.823 280.905 273.218 279.497 274.007 278.441C274.807 277.374 275.906 276.841 277.303 276.841C278.711 276.841 279.81 277.374 280.599 278.441C281.389 279.497 281.783 280.905 281.783 282.665C281.783 284.425 281.389 285.838 280.599 286.905C279.81 287.961 278.711 288.489 277.303 288.489ZM275.607 285.401C275.991 286.019 276.557 286.329 277.303 286.329C278.05 286.329 278.615 286.014 278.999 285.385C279.394 284.755 279.591 283.849 279.591 282.665C279.591 281.47 279.394 280.558 278.999 279.929C278.615 279.299 278.05 278.985 277.303 278.985C276.557 278.985 275.991 279.299 275.607 279.929C275.223 280.558 275.031 281.47 275.031 282.665C275.031 283.859 275.223 284.771 275.607 285.401ZM287.061 288.489C285.664 288.489 284.565 287.961 283.765 286.905C282.976 285.838 282.581 284.425 282.581 282.665C282.581 280.905 282.976 279.497 283.765 278.441C284.565 277.374 285.664 276.841 287.061 276.841C288.469 276.841 289.568 277.374 290.357 278.441C291.147 279.497 291.541 280.905 291.541 282.665C291.541 284.425 291.147 285.838 290.357 286.905C289.568 287.961 288.469 288.489 287.061 288.489ZM285.365 285.401C285.749 286.019 286.315 286.329 287.061 286.329C287.808 286.329 288.373 286.014 288.757 285.385C289.152 284.755 289.349 283.849 289.349 282.665C289.349 281.47 289.152 280.558 288.757 279.929C288.373 279.299 287.808 278.985 287.061 278.985C286.315 278.985 285.749 279.299 285.365 279.929C284.981 280.558 284.789 281.47 284.789 282.665C284.789 283.859 284.981 284.771 285.365 285.401ZM296.82 288.489C295.422 288.489 294.324 287.961 293.524 286.905C292.734 285.838 292.34 284.425 292.34 282.665C292.34 280.905 292.734 279.497 293.524 278.441C294.324 277.374 295.422 276.841 296.82 276.841C298.228 276.841 299.326 277.374 300.116 278.441C300.905 279.497 301.3 280.905 301.3 282.665C301.3 284.425 300.905 285.838 300.116 286.905C299.326 287.961 298.228 288.489 296.82 288.489ZM295.124 285.401C295.508 286.019 296.073 286.329 296.82 286.329C297.566 286.329 298.132 286.014 298.516 285.385C298.91 284.755 299.108 283.849 299.108 282.665C299.108 281.47 298.91 280.558 298.516 279.929C298.132 279.299 297.566 278.985 296.82 278.985C296.073 278.985 295.508 279.299 295.124 279.929C294.74 280.558 294.548 281.47 294.548 282.665C294.548 283.859 294.74 284.771 295.124 285.401ZM304.717 286.057L303.517 290.505H301.837L302.477 286.057H304.717ZM313.906 288.489C312.509 288.489 311.41 287.961 310.61 286.905C309.821 285.838 309.426 284.425 309.426 282.665C309.426 280.905 309.821 279.497 310.61 278.441C311.41 277.374 312.509 276.841 313.906 276.841C315.314 276.841 316.413 277.374 317.202 278.441C317.992 279.497 318.386 280.905 318.386 282.665C318.386 284.425 317.992 285.838 317.202 286.905C316.413 287.961 315.314 288.489 313.906 288.489ZM312.21 285.401C312.594 286.019 313.16 286.329 313.906 286.329C314.653 286.329 315.218 286.014 315.602 285.385C315.997 284.755 316.194 283.849 316.194 282.665C316.194 281.47 315.997 280.558 315.602 279.929C315.218 279.299 314.653 278.985 313.906 278.985C313.16 278.985 312.594 279.299 312.21 279.929C311.826 280.558 311.634 281.47 311.634 282.665C311.634 283.859 311.826 284.771 312.21 285.401ZM323.665 288.489C322.267 288.489 321.169 287.961 320.369 286.905C319.579 285.838 319.185 284.425 319.185 282.665C319.185 280.905 319.579 279.497 320.369 278.441C321.169 277.374 322.267 276.841 323.665 276.841C325.073 276.841 326.171 277.374 326.961 278.441C327.75 279.497 328.145 280.905 328.145 282.665C328.145 284.425 327.75 285.838 326.961 286.905C326.171 287.961 325.073 288.489 323.665 288.489ZM321.969 285.401C322.353 286.019 322.918 286.329 323.665 286.329C324.411 286.329 324.977 286.014 325.361 285.385C325.755 284.755 325.953 283.849 325.953 282.665C325.953 281.47 325.755 280.558 325.361 279.929C324.977 279.299 324.411 278.985 323.665 278.985C322.918 278.985 322.353 279.299 321.969 279.929C321.585 280.558 321.393 281.47 321.393 282.665C321.393 283.859 321.585 284.771 321.969 285.401ZM333.423 288.489C332.025 288.489 330.927 287.961 330.127 286.905C329.337 285.838 328.943 284.425 328.943 282.665C328.943 280.905 329.337 279.497 330.127 278.441C330.927 277.374 332.025 276.841 333.423 276.841C334.831 276.841 335.929 277.374 336.719 278.441C337.508 279.497 337.903 280.905 337.903 282.665C337.903 284.425 337.508 285.838 336.719 286.905C335.929 287.961 334.831 288.489 333.423 288.489ZM331.727 285.401C332.111 286.019 332.676 286.329 333.423 286.329C334.169 286.329 334.735 286.014 335.119 285.385C335.513 284.755 335.711 283.849 335.711 282.665C335.711 281.47 335.513 280.558 335.119 279.929C334.735 279.299 334.169 278.985 333.423 278.985C332.676 278.985 332.111 279.299 331.727 279.929C331.343 280.558 331.151 281.47 331.151 282.665C331.151 283.859 331.343 284.771 331.727 285.401ZM261.875 306.457C262.419 306.691 262.851 307.049 263.171 307.529C263.502 307.998 263.667 308.537 263.667 309.145C263.667 310.009 263.363 310.745 262.755 311.353C262.147 311.961 261.411 312.265 260.547 312.265H255.667V301.065H260.179C261.011 301.065 261.721 301.363 262.307 301.961C262.894 302.547 263.187 303.251 263.187 304.073C263.187 305.118 262.75 305.913 261.875 306.457ZM260.179 302.121H256.787V306.025H260.179C260.702 306.025 261.145 305.838 261.507 305.465C261.881 305.081 262.067 304.617 262.067 304.073C262.067 303.539 261.881 303.081 261.507 302.697C261.145 302.313 260.702 302.121 260.179 302.121ZM260.547 311.209C261.102 311.209 261.571 311.011 261.955 310.617C262.35 310.211 262.547 309.721 262.547 309.145C262.547 308.579 262.35 308.094 261.955 307.689C261.571 307.283 261.102 307.081 260.547 307.081H256.787V311.209H260.547ZM271.997 301.065V302.121H268.557V312.265H267.437V302.121H263.997V301.065H271.997ZM283.997 301.065V302.121H280.557V312.265H279.437V302.121H275.997V301.065H283.997ZM290.385 311.257C289.574 312.057 288.582 312.457 287.409 312.457C286.235 312.457 285.238 312.057 284.417 311.257C283.606 310.446 283.201 309.449 283.201 308.265C283.201 307.081 283.606 306.089 284.417 305.289C285.238 304.478 286.235 304.073 287.409 304.073C288.582 304.073 289.574 304.478 290.385 305.289C291.206 306.089 291.617 307.081 291.617 308.265C291.617 309.449 291.206 310.446 290.385 311.257ZM285.169 310.521C285.777 311.129 286.523 311.433 287.409 311.433C288.294 311.433 289.041 311.129 289.649 310.521C290.257 309.902 290.561 309.15 290.561 308.265C290.561 307.379 290.257 306.633 289.649 306.025C289.041 305.406 288.294 305.097 287.409 305.097C286.523 305.097 285.777 305.406 285.169 306.025C284.561 306.633 284.257 307.379 284.257 308.265C284.257 309.15 284.561 309.902 285.169 310.521ZM299.528 312.265H298.12L294.12 308.409V312.265H293.064V301.065H294.12V307.801L297.928 304.265H299.368L295.24 308.105L299.528 312.265ZM303.549 304.073C304.733 304.073 305.688 304.494 306.413 305.337C307.149 306.169 307.517 307.155 307.517 308.297C307.517 308.414 307.506 308.579 307.485 308.793H300.461C300.568 309.603 300.909 310.249 301.485 310.729C302.072 311.198 302.792 311.433 303.645 311.433C304.253 311.433 304.776 311.31 305.213 311.065C305.661 310.809 305.997 310.478 306.221 310.073L307.149 310.617C306.797 311.182 306.317 311.63 305.709 311.961C305.101 312.291 304.408 312.457 303.629 312.457C302.37 312.457 301.346 312.062 300.557 311.273C299.768 310.483 299.373 309.481 299.373 308.265C299.373 307.07 299.762 306.073 300.541 305.273C301.32 304.473 302.322 304.073 303.549 304.073ZM303.549 305.097C302.717 305.097 302.018 305.347 301.453 305.849C300.898 306.339 300.568 306.979 300.461 307.769H306.429C306.322 306.926 305.997 306.27 305.453 305.801C304.909 305.331 304.274 305.097 303.549 305.097ZM312.621 304.073C313.591 304.073 314.354 304.371 314.909 304.969C315.474 305.555 315.757 306.35 315.757 307.353V312.265H314.701V307.353C314.701 306.638 314.509 306.083 314.125 305.689C313.751 305.294 313.218 305.097 312.525 305.097C311.757 305.097 311.133 305.342 310.653 305.833C310.173 306.313 309.933 307.059 309.933 308.073V312.265H308.877V304.265H309.933V305.513C310.53 304.553 311.426 304.073 312.621 304.073ZM318.311 306.361C318.311 306.723 318.471 307.011 318.791 307.225C319.111 307.438 319.5 307.603 319.959 307.721C320.417 307.838 320.876 307.971 321.335 308.121C321.793 308.259 322.183 308.499 322.503 308.841C322.823 309.171 322.983 309.609 322.983 310.153C322.983 310.835 322.711 311.39 322.167 311.817C321.633 312.243 320.94 312.457 320.087 312.457C319.319 312.457 318.663 312.286 318.119 311.945C317.585 311.603 317.212 311.161 316.999 310.617L317.895 310.089C318.044 310.505 318.311 310.835 318.695 311.081C319.089 311.315 319.553 311.433 320.087 311.433C320.609 311.433 321.047 311.331 321.399 311.129C321.751 310.915 321.927 310.59 321.927 310.153C321.927 309.79 321.767 309.502 321.447 309.289C321.127 309.075 320.737 308.91 320.279 308.793C319.82 308.675 319.361 308.547 318.903 308.409C318.444 308.259 318.055 308.019 317.735 307.689C317.415 307.347 317.255 306.905 317.255 306.361C317.255 305.71 317.511 305.166 318.023 304.729C318.545 304.291 319.201 304.073 319.991 304.073C320.641 304.073 321.212 304.222 321.703 304.521C322.193 304.809 322.556 305.203 322.791 305.705L321.911 306.217C321.601 305.47 320.961 305.097 319.991 305.097C319.532 305.097 319.137 305.209 318.807 305.433C318.476 305.646 318.311 305.955 318.311 306.361Z" fill="white"/>
<path d="M310.896 76.9225C301.998 76.0053 293.052 75.6483 284.11 75.8534L286.117 163.351C291.393 163.23 296.672 163.441 301.921 163.982L310.896 76.9225Z" fill="#CDDD6D"/>
<path d="M493.518 228.08C481.581 188.179 458.233 152.641 426.349 125.845C394.466 99.0485 355.44 82.1644 314.08 77.2727L303.8 164.188C328.203 167.074 351.228 177.035 370.039 192.845C388.85 208.655 402.626 229.622 409.669 253.164L493.518 228.08Z" fill="url(#paint0_linear)"/>
<path d="M502.418 284.526C502.021 266.624 499.373 248.843 494.536 231.602L410.268 255.242C413.122 265.415 414.685 275.906 414.919 286.468L502.418 284.526Z" fill="url(#paint1_linear)"/>
<path d="M256.68 500.267C287.18 504.94 318.332 502.945 347.988 494.419C377.643 485.894 405.098 471.04 428.46 450.882C451.823 430.724 470.537 405.74 483.314 377.653C496.09 349.565 502.626 319.042 502.47 288.185L414.95 288.628C415.042 306.833 411.186 324.842 403.648 341.413C396.11 357.985 385.068 372.725 371.285 384.618C357.501 396.512 341.303 405.275 323.806 410.306C306.309 415.336 287.93 416.513 269.934 413.756L256.68 500.267Z" fill="url(#paint2_linear)"/>
<path d="M100.329 389.1C115.555 417.874 137.16 442.784 163.492 461.926C189.824 481.068 220.185 493.933 252.253 499.538L267.323 413.324C248.403 410.017 230.489 402.427 214.954 391.133C199.418 379.84 186.671 365.142 177.687 348.166L100.329 389.1Z" fill="url(#paint3_linear)"/>
<path d="M78.1628 322.614C81.6623 344.739 88.6225 366.176 98.7878 386.136L176.778 346.419C170.78 334.642 166.674 321.995 164.609 308.941L78.1628 322.614Z" fill="url(#paint4_linear)"/>
<path d="M75.5827 293.443C75.7578 302.386 76.4949 311.309 77.7894 320.159L164.389 307.492C163.625 302.27 163.19 297.005 163.087 291.729L75.5827 293.443Z" fill="url(#paint5_linear)"/>
<path d="M281.391 75.9331C225.973 77.9117 173.499 101.378 135.079 141.365C96.6587 181.353 75.307 234.721 75.5439 290.174L163.064 289.801C162.924 257.083 175.522 225.596 198.19 202.003C220.858 178.411 251.817 164.566 284.514 163.398L281.391 75.9331Z" fill="url(#paint6_linear)"/>
</g>
<g opacity="0.9">
<path d="M308.788 97.3617C300.747 96.5328 292.662 96.2101 284.58 96.3956L286.439 177.399C291.126 177.292 295.816 177.479 300.479 177.96L308.788 97.3617Z" fill="#CDDD6D"/>
<path d="M473.831 233.97C463.043 197.909 441.942 165.792 413.128 141.576C384.314 117.359 349.045 102.1 311.666 97.6792L302.149 178.143C323.829 180.707 344.285 189.557 360.997 203.603C377.71 217.649 389.948 236.277 396.205 257.192L473.831 233.97Z" fill="url(#paint7_linear)"/>
<path d="M481.877 284.982C481.518 268.803 479.124 252.733 474.753 237.152L396.74 259.038C399.275 268.075 400.663 277.395 400.872 286.779L481.877 284.982Z" fill="url(#paint8_linear)"/>
<path d="M259.789 479.955C287.354 484.179 315.507 482.376 342.308 474.671C369.108 466.966 393.92 453.542 415.034 435.324C436.147 417.106 453.06 394.528 464.607 369.144C476.153 343.761 482.06 316.175 481.919 288.289L400.895 288.699C400.977 304.873 397.551 320.872 390.854 335.595C384.157 350.317 374.347 363.413 362.102 373.979C349.856 384.545 335.465 392.331 319.92 396.8C304.376 401.269 288.047 402.314 272.06 399.865L259.789 479.955Z" fill="url(#paint9_linear)"/>
<path d="M118.491 379.489C132.251 405.493 151.777 428.006 175.574 445.305C199.371 462.604 226.81 474.231 255.791 479.296L269.742 399.481C252.933 396.543 237.018 389.8 223.216 379.766C209.413 369.733 198.089 356.675 190.108 341.593L118.491 379.489Z" fill="url(#paint10_linear)"/>
<path d="M98.4594 319.404C101.622 339.399 107.912 358.772 117.099 376.811L189.3 340.042C183.972 329.579 180.324 318.343 178.49 306.746L98.4594 319.404Z" fill="url(#paint11_linear)"/>
<path d="M96.1274 293.041C96.2857 301.123 96.9518 309.187 98.1218 317.185L178.294 305.458C177.615 300.819 177.229 296.142 177.137 291.454L96.1274 293.041Z" fill="url(#paint12_linear)"/>
<path d="M282.123 96.4696C232.04 98.2577 184.618 119.465 149.896 155.603C115.174 191.741 95.8777 239.972 96.0918 290.087L177.116 289.741C176.992 260.675 188.184 232.7 208.322 211.74C228.461 190.781 255.966 178.48 285.014 177.443L282.123 96.4696Z" fill="url(#paint13_linear)"/>
</g>
<path d="M40.6082 314.793H48.7425V313.408H42.7488V313.307L45.6449 310.21C47.861 307.836 48.5158 306.728 48.5158 305.299C48.5158 303.309 46.9041 301.723 44.6375 301.723C42.3773 301.723 40.6585 303.259 40.6585 305.525H42.1444C42.1444 304.058 43.0951 303.083 44.5872 303.083C45.9849 303.083 47.0552 303.939 47.0552 305.299C47.0552 306.489 46.3563 307.37 44.8642 309.001L40.6082 313.66V314.793ZM57.561 312.375C57.561 313.786 58.4424 314.969 60.0794 314.969C61.6911 314.969 62.5726 313.786 62.5726 312.375V311.695C62.5726 310.285 61.7163 309.101 60.0794 309.101C58.4676 309.101 57.561 310.285 57.561 311.695V312.375ZM51.1392 304.997C51.1392 306.407 52.0206 307.59 53.6576 307.59C55.2693 307.59 56.1507 306.407 56.1507 304.997V304.317C56.1507 302.906 55.2945 301.723 53.6576 301.723C52.0458 301.723 51.1392 302.906 51.1392 304.317V304.997ZM51.6177 314.793H53.0532L61.9178 301.899H60.4823L51.6177 314.793ZM58.8454 311.695C58.8454 310.915 59.198 310.184 60.0794 310.184C60.986 310.184 61.2882 310.915 61.2882 311.695V312.375C61.2882 313.156 60.9608 313.886 60.0794 313.886C59.1728 313.886 58.8454 313.156 58.8454 312.375V311.695ZM52.4236 304.317C52.4236 303.536 52.7761 302.806 53.6576 302.806C54.5642 302.806 54.8664 303.536 54.8664 304.317V304.997C54.8664 305.777 54.539 306.508 53.6576 306.508C52.7509 306.508 52.4236 305.777 52.4236 304.997V304.317Z" fill="white"/>
<path d="M127.837 346.069C130.292 346.069 132.093 344.256 132.093 341.788C132.093 339.288 130.355 337.456 127.988 337.456C127.119 337.456 126.275 337.765 125.747 338.186H125.671L126.124 334.384H131.514V332.999H124.815L124.034 339.345L125.495 339.521C126.03 339.137 126.943 338.86 127.736 338.866C129.379 338.879 130.582 340.126 130.582 341.813C130.582 343.469 129.423 344.684 127.837 344.684C126.515 344.684 125.463 343.834 125.344 342.669H123.833C123.927 344.633 125.621 346.069 127.837 346.069ZM140.812 343.475C140.812 344.885 141.694 346.069 143.331 346.069C144.942 346.069 145.824 344.885 145.824 343.475V342.795C145.824 341.385 144.967 340.201 143.331 340.201C141.719 340.201 140.812 341.385 140.812 342.795V343.475ZM134.39 336.096C134.39 337.506 135.272 338.69 136.909 338.69C138.52 338.69 139.402 337.506 139.402 336.096V335.416C139.402 334.006 138.546 332.822 136.909 332.822C135.297 332.822 134.39 334.006 134.39 335.416V336.096ZM134.869 345.893H136.304L145.169 332.999H143.733L134.869 345.893ZM142.097 342.795C142.097 342.014 142.449 341.284 143.331 341.284C144.237 341.284 144.539 342.014 144.539 342.795V343.475C144.539 344.256 144.212 344.986 143.331 344.986C142.424 344.986 142.097 344.256 142.097 343.475V342.795ZM135.675 335.416C135.675 334.636 136.027 333.905 136.909 333.905C137.815 333.905 138.118 334.636 138.118 335.416V336.096C138.118 336.877 137.79 337.607 136.909 337.607C136.002 337.607 135.675 336.877 135.675 336.096V335.416Z" fill="white"/>
<path d="M186.542 408.971H184.98L181.757 411.112V412.698L184.905 410.608H184.98V421.865H186.542V408.971ZM193.925 422.042C196.38 422.042 198.181 420.228 198.181 417.76C198.181 415.261 196.443 413.429 194.076 413.429C193.207 413.429 192.363 413.737 191.834 414.159H191.759L192.212 410.356H197.601V408.971H190.903L190.122 415.317L191.583 415.494C192.118 415.11 193.031 414.833 193.824 414.839C195.467 414.852 196.67 416.098 196.67 417.785C196.67 419.441 195.511 420.656 193.925 420.656C192.603 420.656 191.551 419.806 191.432 418.642H189.92C190.015 420.606 191.709 422.042 193.925 422.042ZM206.9 419.448C206.9 420.858 207.782 422.042 209.418 422.042C211.03 422.042 211.912 420.858 211.912 419.448V418.768C211.912 417.357 211.055 416.174 209.418 416.174C207.807 416.174 206.9 417.357 206.9 418.768V419.448ZM200.478 412.069C200.478 413.479 201.36 414.663 202.997 414.663C204.608 414.663 205.49 413.479 205.49 412.069V411.389C205.49 409.979 204.634 408.795 202.997 408.795C201.385 408.795 200.478 409.979 200.478 411.389V412.069ZM200.957 421.865H202.392L211.257 408.971H209.821L200.957 421.865ZM208.184 418.768C208.184 417.987 208.537 417.257 209.418 417.257C210.325 417.257 210.627 417.987 210.627 418.768V419.448C210.627 420.228 210.3 420.959 209.418 420.959C208.512 420.959 208.184 420.228 208.184 419.448V418.768ZM201.763 411.389C201.763 410.608 202.115 409.878 202.997 409.878C203.903 409.878 204.205 410.608 204.205 411.389V412.069C204.205 412.85 203.878 413.58 202.997 413.58C202.09 413.58 201.763 412.85 201.763 412.069V411.389Z" fill="white"/>
<path d="M387.712 414.773H395.846V413.388H389.852V413.288L392.748 410.19C394.965 407.816 395.619 406.708 395.619 405.279C395.619 403.29 394.008 401.703 391.741 401.703C389.481 401.703 387.762 403.239 387.762 405.506H389.248C389.248 404.039 390.199 403.063 391.691 403.063C393.088 403.063 394.159 403.919 394.159 405.279C394.159 406.469 393.46 407.351 391.968 408.981L387.712 413.64V414.773ZM402.222 414.95C404.797 414.95 406.591 413.445 406.604 411.348C406.591 409.718 405.502 408.333 404.11 408.075V407.999C405.319 407.684 406.113 406.501 406.125 405.128C406.113 403.164 404.463 401.703 402.222 401.703C399.955 401.703 398.306 403.164 398.318 405.128C398.306 406.501 399.099 407.684 400.333 407.999V408.075C398.916 408.333 397.827 409.718 397.84 411.348C397.827 413.445 399.622 414.95 402.222 414.95ZM402.222 413.565C400.453 413.565 399.363 412.658 399.376 411.273C399.363 409.819 400.566 408.78 402.222 408.78C403.852 408.78 405.055 409.819 405.067 411.273C405.055 412.658 403.966 413.565 402.222 413.565ZM402.222 407.445C400.811 407.445 399.817 406.564 399.829 405.229C399.817 403.919 400.774 403.063 402.222 403.063C403.645 403.063 404.602 403.919 404.614 405.229C404.602 406.564 403.607 407.445 402.222 407.445ZM415.235 412.356C415.235 413.766 416.116 414.95 417.753 414.95C419.365 414.95 420.246 413.766 420.246 412.356V411.676C420.246 410.266 419.39 409.082 417.753 409.082C416.142 409.082 415.235 410.266 415.235 411.676V412.356ZM408.813 404.977C408.813 406.387 409.695 407.571 411.331 407.571C412.943 407.571 413.825 406.387 413.825 404.977V404.297C413.825 402.887 412.968 401.703 411.331 401.703C409.72 401.703 408.813 402.887 408.813 404.297V404.977ZM409.292 414.773H410.727L419.592 401.879H418.156L409.292 414.773ZM416.519 411.676C416.519 410.895 416.872 410.165 417.753 410.165C418.66 410.165 418.962 410.895 418.962 411.676V412.356C418.962 413.137 418.635 413.867 417.753 413.867C416.847 413.867 416.519 413.137 416.519 412.356V411.676ZM410.097 404.297C410.097 403.516 410.45 402.786 411.331 402.786C412.238 402.786 412.54 403.516 412.54 404.297V404.977C412.54 405.758 412.213 406.488 411.331 406.488C410.425 406.488 410.097 405.758 410.097 404.977V404.297Z" fill="white"/>
<path d="M313.511 70.5117H321.645V69.1266H315.651V69.0259L318.547 65.9283C320.763 63.5547 321.418 62.4467 321.418 61.0175C321.418 59.028 319.806 57.4414 317.54 57.4414C315.28 57.4414 313.561 58.9776 313.561 61.2441H315.047C315.047 59.7772 315.997 58.8013 317.49 58.8013C318.887 58.8013 319.958 59.6576 319.958 61.0175C319.958 62.2074 319.259 63.0888 317.767 64.7195L313.511 69.3785V70.5117ZM330.463 68.0941C330.463 69.5044 331.345 70.688 332.982 70.688C334.593 70.688 335.475 69.5044 335.475 68.0941V67.4141C335.475 66.0039 334.619 64.8202 332.982 64.8202C331.37 64.8202 330.463 66.0039 330.463 67.4141V68.0941ZM324.042 60.7153C324.042 62.1256 324.923 63.3092 326.56 63.3092C328.172 63.3092 329.053 62.1256 329.053 60.7153V60.0353C329.053 58.6251 328.197 57.4414 326.56 57.4414C324.948 57.4414 324.042 58.6251 324.042 60.0353V60.7153ZM324.52 70.5117H325.955L334.82 57.6177H333.385L324.52 70.5117ZM331.748 67.4141C331.748 66.6334 332.1 65.9031 332.982 65.9031C333.888 65.9031 334.191 66.6334 334.191 67.4141V68.0941C334.191 68.8748 333.863 69.6051 332.982 69.6051C332.075 69.6051 331.748 68.8748 331.748 68.0941V67.4141ZM325.326 60.0353C325.326 59.2546 325.678 58.5243 326.56 58.5243C327.467 58.5243 327.769 59.2546 327.769 60.0353V60.7153C327.769 61.496 327.441 62.2263 326.56 62.2263C325.653 62.2263 325.326 61.496 325.326 60.7153V60.0353Z" fill="white"/>
<path d="M260.804 30.7946H262.164C262.102 29.0437 260.487 27.7348 258.243 27.7348C256.022 27.7348 254.277 29.0267 254.277 30.9759C254.277 32.5398 255.41 33.4691 257.223 33.9904L258.651 34.3984C259.875 34.7383 260.963 35.169 260.963 36.3249C260.963 37.5942 259.739 38.4328 258.13 38.4328C256.747 38.4328 255.523 37.8208 255.41 36.5062H253.959C254.095 38.4101 255.637 39.702 258.13 39.702C260.804 39.702 262.323 38.2288 262.323 36.3476C262.323 34.1717 260.26 33.4691 259.059 33.1518L257.88 32.8345C257.019 32.6078 255.637 32.1545 255.637 30.9079C255.637 29.7973 256.657 28.9814 258.198 28.9814C259.603 28.9814 260.668 29.65 260.804 30.7946ZM267.918 30.7946H266.059V28.7094H264.722V30.7946H263.408V31.9279H264.722V37.3675C264.722 38.8861 265.946 39.6114 267.079 39.6114C267.578 39.6114 267.895 39.5207 268.077 39.4527L267.805 38.2515C267.691 38.2741 267.51 38.3195 267.215 38.3195C266.626 38.3195 266.059 38.1381 266.059 37.0049V31.9279H267.918V30.7946ZM272.171 39.702C273.69 39.702 274.483 38.8861 274.755 38.3195H274.823V39.498H276.161V33.7637C276.161 30.9986 274.053 30.6813 272.942 30.6813C271.628 30.6813 270.132 31.1346 269.452 32.7211L270.721 33.1744C271.016 32.5398 271.713 31.8599 272.987 31.8599C274.217 31.8599 274.823 32.5115 274.823 33.6277V33.6731C274.823 34.319 274.166 34.2624 272.579 34.4664C270.965 34.676 269.202 35.033 269.202 37.0275C269.202 38.7274 270.517 39.702 272.171 39.702ZM272.375 38.5008C271.31 38.5008 270.54 38.0248 270.54 37.0955C270.54 36.0756 271.469 35.7583 272.511 35.6223C273.078 35.5543 274.597 35.3956 274.823 35.1237V36.3476C274.823 37.4355 273.962 38.5008 272.375 38.5008ZM278.282 39.498H279.619V33.9904C279.619 32.8118 280.549 31.9505 281.818 31.9505C282.175 31.9505 282.543 32.0185 282.634 32.0412V30.6813C282.481 30.6699 282.13 30.6586 281.931 30.6586C280.889 30.6586 279.982 31.2479 279.665 32.1092H279.574V30.7946H278.282V39.498ZM288.23 30.7946H286.372V28.7094H285.035V30.7946H283.72V31.9279H285.035V37.3675C285.035 38.8861 286.259 39.6114 287.392 39.6114C287.89 39.6114 288.208 39.5207 288.389 39.4527L288.117 38.2515C288.004 38.2741 287.822 38.3195 287.528 38.3195C286.939 38.3195 286.372 38.1381 286.372 37.0049V31.9279H288.23V30.7946Z" fill="white"/>
<path d="M157.223 188.854H165.358V187.468H159.364V187.368L162.26 184.27C164.476 181.897 165.131 180.788 165.131 179.359C165.131 177.37 163.519 175.783 161.253 175.783C158.993 175.783 157.274 177.319 157.274 179.586H158.76C158.76 178.119 159.71 177.143 161.202 177.143C162.6 177.143 163.67 177.999 163.67 179.359C163.67 180.549 162.972 181.431 161.479 183.061L157.223 187.72V188.854ZM171.633 189.03C174.088 189.03 175.889 187.217 175.889 184.749C175.889 182.249 174.151 180.417 171.784 180.417C170.915 180.417 170.071 180.726 169.542 181.147H169.467L169.92 177.345H175.31V175.96H168.611L167.83 182.306L169.291 182.482C169.826 182.098 170.739 181.821 171.532 181.827C173.175 181.84 174.378 183.086 174.378 184.774C174.378 186.43 173.219 187.645 171.633 187.645C170.311 187.645 169.259 186.795 169.14 185.63H167.629C167.723 187.594 169.417 189.03 171.633 189.03ZM184.608 186.436C184.608 187.846 185.49 189.03 187.126 189.03C188.738 189.03 189.62 187.846 189.62 186.436V185.756C189.62 184.346 188.763 183.162 187.126 183.162C185.515 183.162 184.608 184.346 184.608 185.756V186.436ZM178.186 179.057C178.186 180.467 179.068 181.651 180.705 181.651C182.316 181.651 183.198 180.467 183.198 179.057V178.377C183.198 176.967 182.342 175.783 180.705 175.783C179.093 175.783 178.186 176.967 178.186 178.377V179.057ZM178.665 188.854H180.1L188.965 175.96H187.529L178.665 188.854ZM185.892 185.756C185.892 184.975 186.245 184.245 187.126 184.245C188.033 184.245 188.335 184.975 188.335 185.756V186.436C188.335 187.217 188.008 187.947 187.126 187.947C186.22 187.947 185.892 187.217 185.892 186.436V185.756ZM179.471 178.377C179.471 177.596 179.823 176.866 180.705 176.866C181.611 176.866 181.913 177.596 181.913 178.377V179.057C181.913 179.838 181.586 180.568 180.705 180.568C179.798 180.568 179.471 179.838 179.471 179.057V178.377Z" fill="white"/>
<path d="M381.454 163.548H379.892L376.669 165.689V167.276L379.817 165.185H379.892V176.442H381.454V163.548ZM388.912 163.372C386.293 163.341 384.606 165.311 384.606 167.678C384.606 170.172 386.444 171.96 388.661 171.96C389.995 171.96 391.129 171.305 391.834 170.247H391.934C391.934 173.42 390.7 175.234 388.711 175.234C387.351 175.234 386.52 174.377 386.243 173.194H384.707C385.009 175.234 386.545 176.619 388.711 176.619C391.607 176.619 393.395 174.05 393.395 169.467C393.395 164.732 391.028 163.397 388.912 163.372ZM388.912 164.757C390.524 164.757 391.708 166.142 391.708 167.653C391.708 169.19 390.449 170.575 388.862 170.575C387.275 170.575 386.117 169.29 386.117 167.678C386.117 166.067 387.326 164.757 388.912 164.757ZM402.089 174.025C402.089 175.435 402.971 176.619 404.608 176.619C406.219 176.619 407.101 175.435 407.101 174.025V173.345C407.101 171.935 406.245 170.751 404.608 170.751C402.996 170.751 402.089 171.935 402.089 173.345V174.025ZM395.667 166.646C395.667 168.056 396.549 169.24 398.186 169.24C399.798 169.24 400.679 168.056 400.679 166.646V165.966C400.679 164.556 399.823 163.372 398.186 163.372C396.574 163.372 395.667 164.556 395.667 165.966V166.646ZM396.146 176.442H397.581L406.446 163.548H405.011L396.146 176.442ZM403.374 173.345C403.374 172.564 403.726 171.834 404.608 171.834C405.514 171.834 405.816 172.564 405.816 173.345V174.025C405.816 174.805 405.489 175.536 404.608 175.536C403.701 175.536 403.374 174.805 403.374 174.025V173.345ZM396.952 165.966C396.952 165.185 397.304 164.455 398.186 164.455C399.092 164.455 399.395 165.185 399.395 165.966V166.646C399.395 167.427 399.067 168.157 398.186 168.157C397.279 168.157 396.952 167.427 396.952 166.646V165.966Z" fill="white"/>
<path d="M439.327 270.772H445.397V273.416H446.883V270.772H448.645V269.387H446.883V260.522H444.994L439.327 269.487V270.772ZM445.397 269.387H441.015V269.286L445.296 262.512H445.397V269.387ZM457.223 270.998C457.223 272.409 458.105 273.592 459.741 273.592C461.353 273.592 462.235 272.409 462.235 270.998V270.318C462.235 268.908 461.378 267.725 459.741 267.725C458.13 267.725 457.223 268.908 457.223 270.318V270.998ZM450.801 263.62C450.801 265.03 451.683 266.214 453.32 266.214C454.931 266.214 455.813 265.03 455.813 263.62V262.94C455.813 261.529 454.957 260.346 453.32 260.346C451.708 260.346 450.801 261.529 450.801 262.94V263.62ZM451.28 273.416H452.715L461.58 260.522H460.144L451.28 273.416ZM458.507 270.318C458.507 269.538 458.86 268.807 459.741 268.807C460.648 268.807 460.95 269.538 460.95 270.318V270.998C460.95 271.779 460.623 272.509 459.741 272.509C458.835 272.509 458.507 271.779 458.507 270.998V270.318ZM452.086 262.94C452.086 262.159 452.438 261.429 453.32 261.429C454.226 261.429 454.528 262.159 454.528 262.94V263.62C454.528 264.4 454.201 265.131 453.32 265.131C452.413 265.131 452.086 264.4 452.086 263.62V262.94Z" fill="white"/>
<path fill-rule="evenodd" clip-rule="evenodd" d="M299.283 38.4191L302.362 35.9586L302.207 35.4346C340.308 37.4147 377.482 47.9476 410.967 66.2597C444.885 84.8085 474.125 110.85 496.461 142.403C518.798 173.955 533.642 210.187 539.865 248.342C545.939 285.58 543.644 323.691 533.161 359.912L530.956 359.198L531.917 364.79L535.973 360.823L533.646 360.069C544.153 323.771 546.454 285.578 540.368 248.26C534.132 210.029 519.258 173.724 496.877 142.108C474.495 110.493 445.197 84.3988 411.211 65.8129C377.606 47.4353 340.294 36.8769 302.054 34.9167L301.186 31.9775H297.381L296.205 35.9586L299.283 38.4191Z" fill="white"/>
<defs>
<linearGradient id="paint0_linear" x1="414.076" y1="400.551" x2="181.002" y2="2.58327" gradientUnits="userSpaceOnUse">
<stop stop-color="#D01240"/>
<stop offset="1" stop-color="#D85086"/>
</linearGradient>
<linearGradient id="paint1_linear" x1="312.563" y1="365.21" x2="343.194" y2="84.5597" gradientUnits="userSpaceOnUse">
<stop stop-color="#2C28DB"/>
<stop offset="1" stop-color="#D40CD8" stop-opacity="0.69"/>
</linearGradient>
<linearGradient id="paint2_linear" x1="276.251" y1="265.542" x2="543.668" y2="448.873" gradientUnits="userSpaceOnUse">
<stop stop-color="#0B3A82"/>
<stop offset="1" stop-color="#43A7D2" stop-opacity="0.65"/>
</linearGradient>
<linearGradient id="paint3_linear" x1="374.017" y1="-6.49537" x2="585.96" y2="415.687" gradientUnits="userSpaceOnUse">
<stop stop-color="#309A04"/>
<stop offset="1" stop-color="#93EB23"/>
</linearGradient>
<linearGradient id="paint4_linear" x1="355.219" y1="62.673" x2="359.451" y2="562.638" gradientUnits="userSpaceOnUse">
<stop stop-color="#58555C"/>
<stop offset="0.524816" stop-color="#45424B"/>
<stop offset="1" stop-color="#36343A"/>
</linearGradient>
<linearGradient id="paint5_linear" x1="284.828" y1="75.8388" x2="293.187" y2="502.688" gradientUnits="userSpaceOnUse">
<stop stop-color="#23EFEF"/>
<stop offset="1" stop-color="#1B9EC8"/>
</linearGradient>
<linearGradient id="paint6_linear" x1="290.932" y1="261.551" x2="-66.5407" y2="250.687" gradientUnits="userSpaceOnUse">
<stop stop-color="#EFBD07"/>
<stop offset="1" stop-color="#BBA84B"/>
</linearGradient>
<linearGradient id="paint7_linear" x1="402.036" y1="389.838" x2="191.398" y2="30.1796" gradientUnits="userSpaceOnUse">
<stop stop-color="#D01240"/>
<stop offset="1" stop-color="#D85086"/>
</linearGradient>
<linearGradient id="paint8_linear" x1="310.297" y1="357.898" x2="337.979" y2="104.264" gradientUnits="userSpaceOnUse">
<stop stop-color="#2C28DB"/>
<stop offset="1" stop-color="#D40CD8" stop-opacity="0.69"/>
</linearGradient>
<linearGradient id="paint9_linear" x1="277.476" y1="267.826" x2="519.151" y2="433.509" gradientUnits="userSpaceOnUse">
<stop stop-color="#0B3A82"/>
<stop offset="1" stop-color="#43A7D2" stop-opacity="0.65"/>
</linearGradient>
<linearGradient id="paint10_linear" x1="365.833" y1="21.9749" x2="557.374" y2="403.517" gradientUnits="userSpaceOnUse">
<stop stop-color="#309A04"/>
<stop offset="1" stop-color="#93EB23"/>
</linearGradient>
<linearGradient id="paint11_linear" x1="348.845" y1="84.4854" x2="352.67" y2="536.322" gradientUnits="userSpaceOnUse">
<stop stop-color="#58555C"/>
<stop offset="0.524816" stop-color="#45424B"/>
<stop offset="1" stop-color="#36343A"/>
</linearGradient>
<linearGradient id="paint12_linear" x1="285.23" y1="96.3837" x2="292.784" y2="482.143" gradientUnits="userSpaceOnUse">
<stop stop-color="#23EFEF"/>
<stop offset="1" stop-color="#1B9EC8"/>
</linearGradient>
<linearGradient id="paint13_linear" x1="342.702" y1="291.627" x2="-5.03343" y2="242.7" gradientUnits="userSpaceOnUse">
<stop stop-color="#EFBD07"/>
<stop offset="1" stop-color="#BBA84B"/>
</linearGradient>
</defs>
</svg>
