<svg width="41" height="40" viewBox="0 0 41 40" fill="none" xmlns="http://www.w3.org/2000/svg">
<path fill-rule="evenodd" clip-rule="evenodd" d="M40.0148 20.0469C40.0148 25.2499 37.9479 30.2397 34.2689 33.9188C30.5898 37.5978 25.6 39.6647 20.397 39.6647C15.1941 39.6647 10.2042 37.5978 6.5252 33.9188C2.84616 30.2397 0.779297 25.2499 0.779297 20.0469C0.779297 14.844 2.84616 9.85414 6.5252 6.1751C10.2042 2.49606 15.1941 0.429199 20.397 0.429199C25.6 0.429199 30.5898 2.49606 34.2689 6.1751C37.9479 9.85414 40.0148 14.844 40.0148 20.0469ZM19.5289 26.5355C19.2987 26.7657 19.1694 27.078 19.1694 27.4036C19.1694 27.7292 19.2987 28.0414 19.5289 28.2717C19.7592 28.5019 20.0714 28.6312 20.397 28.6312C20.7226 28.6312 21.0349 28.5019 21.2651 28.2717L28.6218 20.915C28.736 20.8011 28.8265 20.6658 28.8884 20.5169C28.9502 20.3679 28.982 20.2082 28.982 20.0469C28.982 19.8857 28.9502 19.726 28.8884 19.577C28.8265 19.4281 28.736 19.2927 28.6218 19.1789L21.2651 11.8222C21.1511 11.7082 21.0158 11.6178 20.8668 11.5561C20.7179 11.4944 20.5583 11.4626 20.397 11.4626C20.2358 11.4626 20.0762 11.4944 19.9272 11.5561C19.7783 11.6178 19.6429 11.7082 19.5289 11.8222C19.415 11.9362 19.3245 12.0715 19.2628 12.2205C19.2011 12.3694 19.1694 12.5291 19.1694 12.6903C19.1694 12.8515 19.2011 13.0111 19.2628 13.1601C19.3245 13.309 19.415 13.4444 19.5289 13.5584L24.7939 18.8208H13.0404C12.7152 18.8208 12.4033 18.95 12.1734 19.1799C11.9435 19.4099 11.8143 19.7218 11.8143 20.0469C11.8143 20.3721 11.9435 20.684 12.1734 20.9139C12.4033 21.1439 12.7152 21.273 13.0404 21.273H24.7939L19.5289 26.5355Z" fill="#023047"/>
</svg>
