<svg width="15" height="16" viewBox="0 0 15 16" fill="none" xmlns="http://www.w3.org/2000/svg">
<g clip-path="url(#clip0)">
<path d="M4 8.26855L7 10.7686L11 5.76855M7.5 15.2686C6.58075 15.2686 5.6705 15.0875 4.82122 14.7357C3.97194 14.3839 3.20026 13.8683 2.55025 13.2183C1.90024 12.5683 1.38463 11.7966 1.03284 10.9473C0.68106 10.0981 0.5 9.18781 0.5 8.26855C0.5 7.3493 0.68106 6.43905 1.03284 5.58977C1.38463 4.74049 1.90024 3.96882 2.55025 3.31881C3.20026 2.6688 3.97194 2.15318 4.82122 1.8014C5.6705 1.44962 6.58075 1.26855 7.5 1.26855C9.35652 1.26855 11.137 2.00605 12.4497 3.31881C13.7625 4.63156 14.5 6.41204 14.5 8.26855C14.5 10.1251 13.7625 11.9055 12.4497 13.2183C11.137 14.5311 9.35652 15.2686 7.5 15.2686Z" stroke="#EEB31D"/>
</g>
<defs>
<clipPath id="clip0">
<rect width="15" height="15" fill="white" transform="translate(0 0.768555)"/>
</clipPath>
</defs>
</svg>
