<svg width="39" height="39" viewBox="0 0 39 39" fill="none" xmlns="http://www.w3.org/2000/svg">
<path fill-rule="evenodd" clip-rule="evenodd" d="M37.0157 27.6284H30.1497C31.8938 25.3593 32.942 22.524 32.942 19.4372C32.942 16.3468 31.8913 13.5087 30.1437 11.2382H37.0122C38.176 13.7282 38.8296 16.5057 38.8296 19.4372C38.8296 22.3658 38.1771 25.1405 37.0157 27.6284ZM19.5491 27.6284C15.0371 27.6284 11.3791 23.9595 11.3791 19.4336C11.3791 14.9075 15.0371 11.2382 19.5491 11.2382C24.0619 11.2382 27.7192 14.9075 27.7192 19.4336C27.7192 23.9595 24.0619 27.6284 19.5491 27.6284ZM6.14891 19.4372C6.14891 26.8603 12.1465 32.8776 19.5456 32.8776C21.5314 32.8776 23.4094 32.4322 25.1045 31.6546V37.9587C23.3446 38.489 21.481 38.7772 19.5491 38.7772C8.9014 38.7772 0.269043 30.1187 0.269043 19.4372C0.269043 8.75595 8.9014 0.097168 19.5491 0.097168C21.481 0.097168 23.3446 0.385737 25.1045 0.91601V7.21939C23.4094 6.44177 21.5314 5.99677 19.5456 5.99677C12.1465 5.99677 6.14891 12.0144 6.14891 19.4372Z" fill="#FAFAFA"/>
</svg>
