<svg width="41" height="41" viewBox="0 0 41 41" fill="none" xmlns="http://www.w3.org/2000/svg">
<path fill-rule="evenodd" clip-rule="evenodd" d="M36.4733 28.3503H30.2364C31.8207 26.2892 32.7728 23.7137 32.7728 20.9097C32.7728 18.1025 31.8184 15.5244 30.231 13.462H36.4701C37.5273 15.7238 38.121 18.2468 38.121 20.9097C38.121 23.57 37.5282 26.0904 36.4733 28.3503ZM20.6072 28.3503C16.5086 28.3503 13.1858 25.0176 13.1858 20.9065C13.1858 16.795 16.5086 13.462 20.6072 13.462C24.7065 13.462 28.0287 16.795 28.0287 20.9065C28.0287 25.0176 24.7065 28.3503 20.6072 28.3503ZM8.43484 20.9097C8.43484 27.6526 13.8828 33.1185 20.604 33.1185C22.4078 33.1185 24.1137 32.714 25.6535 32.0076V37.734C24.0548 38.2157 22.3621 38.4775 20.6072 38.4775C10.9351 38.4775 3.09375 30.6125 3.09375 20.9097C3.09375 11.2072 10.9351 3.3418 20.6072 3.3418C22.3621 3.3418 24.0548 3.60392 25.6535 4.08561V9.81141C24.1137 9.10504 22.4078 8.70081 20.604 8.70081C13.8828 8.70081 8.43484 14.167 8.43484 20.9097Z" fill="white"/>
</svg>
